<?xml version="1.0" encoding="UTF-8" standalone="no"?>
<svg
   version="1.1"
   id="Layer_1"
   x="0px"
   y="0px"
   width="100%"
   viewBox="0 0 300 300"
   enable-background="new 0 0 300 300"
   xml:space="preserve"
   sodipodi:docname="logoev3.svg"
   inkscape:version="1.2.2 (732a01da63, 2022-12-09)"
   xmlns:inkscape="http://www.inkscape.org/namespaces/inkscape"
   xmlns:sodipodi="http://sodipodi.sourceforge.net/DTD/sodipodi-0.dtd"
   xmlns="http://www.w3.org/2000/svg"
   xmlns:svg="http://www.w3.org/2000/svg"><defs
   id="defs121" /><sodipodi:namedview
   id="namedview119"
   pagecolor="#ffffff"
   bordercolor="#000000"
   borderopacity="0.25"
   inkscape:showpageshadow="2"
   inkscape:pageopacity="0.0"
   inkscape:pagecheckerboard="0"
   inkscape:deskcolor="#d1d1d1"
   showgrid="false"
   inkscape:zoom="2.68"
   inkscape:cx="258.39552"
   inkscape:cy="150.18657"
   inkscape:window-width="1920"
   inkscape:window-height="991"
   inkscape:window-x="-9"
   inkscape:window-y="-9"
   inkscape:window-maximized="1"
   inkscape:current-layer="Layer_1" />
<path
   fill="#02ACCF"
   opacity="1.000000"
   stroke="none"
   d=" M301.000000,17.999998   C301.000000,106.354225 301.000000,194.708450 300.702942,283.249939   C296.274719,288.269958 293.510620,294.337158 287.363861,297.366547   C285.981445,298.047852 285.107819,299.761536 284.000000,301.000000   C195.645767,301.000000 107.291542,301.000000 18.750076,300.702942   C13.729999,296.274750 7.662924,293.510498 4.633497,287.363770   C3.952166,285.981384 2.238455,285.107819 1.000002,284.000000   C1.000000,195.645767 1.000000,107.291542 1.297059,18.750074   C5.725232,13.729980 8.489514,7.662924 14.636236,4.633459   C16.018623,3.952138 16.892195,2.238441 18.000000,1.000000   C106.354225,1.000000 194.708450,1.000000 283.249939,1.297068   C288.270081,5.725202 294.337067,8.489566 297.366577,14.636240   C298.047913,16.018618 299.761566,16.892197 301.000000,17.999998  M252.500000,294.934540   C258.331177,294.934601 264.162384,294.938263 269.993561,294.934052   C286.186218,294.922363 294.932343,286.158539 294.933105,269.919250   C294.936707,190.614578 294.936981,111.309914 294.932861,32.005245   C294.932037,15.815136 286.158936,7.068074 269.920624,7.067232   C190.615952,7.063123 111.311272,7.062854 32.006592,7.067456   C15.811786,7.068395 7.067687,15.840121 7.066940,32.078178   C7.063295,111.382851 7.063039,190.687515 7.067148,269.992188   C7.067986,286.185333 15.841411,294.932251 32.079296,294.933075   C105.219528,294.936798 178.359772,294.934570 252.500000,294.934540  z"
   id="path2" />




<path
   fill="#FCFDFD"
   opacity="1.000000"
   stroke="none"
   d=" M252.000000,294.934509   C178.359772,294.934570 105.219528,294.936798 32.079296,294.933075   C15.841411,294.932251 7.067986,286.185333 7.067148,269.992188   C7.063039,190.687515 7.063295,111.382851 7.066940,32.078178   C7.067687,15.840121 15.811786,7.068395 32.006592,7.067456   C111.311272,7.062854 190.615952,7.063123 269.920624,7.067232   C286.158936,7.068074 294.932037,15.815136 294.932861,32.005245   C294.936981,111.309914 294.936707,190.614578 294.933105,269.919250   C294.932343,286.158539 286.186218,294.922363 269.993561,294.934052   C264.162384,294.938263 258.331177,294.934601 252.000000,294.934509  M127.040878,91.574013   C127.068268,92.035568 127.095657,92.497116 126.945839,93.886497   C126.938698,104.812645 126.688950,115.748230 127.113533,126.657570   C127.206993,129.059082 129.693848,131.367447 131.969238,133.995804   C143.788437,134.026260 155.607758,134.090866 167.426636,134.041565   C168.816177,134.035782 170.203110,133.403656 172.228653,132.981995   C173.088669,131.310822 173.948685,129.639648 174.967178,127.046455   C174.895050,115.383347 174.822906,103.720230 174.839355,91.516769   C174.809219,91.336754 174.779068,91.156731 174.889374,90.382378   C174.602783,89.907875 174.316193,89.433372 174.000122,89.001595   C174.000122,89.001595 174.051346,88.992996 174.227600,88.236053   C172.214706,86.886200 170.237778,84.435966 168.182922,84.368790   C156.640442,83.991440 145.078003,84.099442 133.525177,84.252983   C130.727112,84.290169 127.793121,84.944099 127.931267,88.896217   C127.931267,88.896217 127.792274,88.896019 127.201942,89.089096   C127.170471,89.686531 127.139000,90.283974 127.040878,91.574013  M271.303497,214.727036   C271.506531,214.461563 271.709595,214.196106 272.046265,213.314468   C272.002930,212.898682 271.959595,212.482895 271.797394,211.525467   C271.464325,211.509872 271.131226,211.494278 269.889008,211.452148   C251.246445,211.446777 232.603897,211.439316 213.961334,211.436615   C195.485214,211.433929 177.008057,211.312729 158.533295,211.470886   C140.223267,211.627625 121.874359,210.782181 103.593376,211.958893   C103.603149,212.808304 103.612930,213.657715 103.622711,214.507126   C159.347626,214.507126 215.072540,214.507126 271.303497,214.727036  M229.462753,115.374626   C218.639664,115.374046 207.814957,115.479279 196.994385,115.313705   C193.357773,115.258057 191.943909,116.454803 192.034805,120.186592   C192.225250,128.007553 191.941437,135.839752 192.114136,143.661560   C192.194183,147.286285 190.819702,148.839905 187.224716,148.834442   C163.080811,148.797775 138.936768,148.796585 114.792862,148.836258   C111.184387,148.842194 109.832199,147.279861 109.921829,143.660492   C110.115509,135.839157 109.848717,128.005859 110.072113,120.186058   C110.177414,116.500107 108.976227,115.245285 105.218643,115.298790   C91.900505,115.488441 78.576599,115.476768 65.258011,115.302528   C61.459579,115.252838 58.769638,116.407959 57.313282,119.911232   C55.766506,123.632011 55.238991,127.381958 58.341469,130.629959   C77.193527,150.366348 95.989861,170.158051 115.080780,189.661118   C117.084938,191.708557 120.875229,192.898315 123.862038,192.947235   C142.006836,193.244431 160.161453,193.246109 178.306122,192.944550   C181.275772,192.895218 185.030670,191.655014 187.036972,189.607422   C206.020386,170.233612 224.696259,150.558578 243.480072,130.988892   C246.828979,127.499863 245.995773,123.678871 244.428528,119.853050   C242.983231,116.324890 240.201218,114.996521 236.436234,115.338455   C234.454300,115.518456 232.442825,115.373352 229.462753,115.374626  M241.067978,103.975540   C246.729858,99.623695 247.672028,93.968735 243.068405,89.089310   C224.335068,69.233688 205.518204,49.455902 186.566055,29.809631   C185.041306,28.229033 182.258774,27.072477 180.053864,27.061201   C161.077194,26.964155 142.098709,27.267057 123.121384,27.215921   C119.482803,27.206118 116.831497,28.239063 114.378624,30.876875   C107.918396,37.824154 101.241394,44.569279 94.697487,51.439465   C82.988060,63.732742 71.315102,76.060753 59.622063,88.369644   C56.665546,91.481880 54.770897,95.209061 56.934624,99.173294   C58.190994,101.475136 61.057613,104.372314 63.275524,104.437973   C78.697487,104.894501 94.139343,104.678986 110.007782,104.678986   C110.007782,95.466034 110.005058,86.677727 110.008675,77.889412   C110.011414,71.253021 110.450706,70.786072 117.034958,70.782127   C138.350266,70.769371 159.665726,70.823196 180.980850,70.760109   C193.479416,70.723122 192.041733,70.629257 192.059235,81.853111   C192.071045,89.427681 192.061478,97.002289 192.061478,104.757828   C201.084763,104.757828 209.234528,104.826294 217.382584,104.737923   C225.018631,104.655098 232.652893,104.406265 241.067978,103.975540  M167.500000,262.989319   C146.146912,262.989319 124.793839,262.989319 103.440750,262.989319   C103.333107,263.642303 103.225464,264.295288 103.117821,264.948273   C104.477882,265.321350 105.837395,266.017914 107.198074,266.020203   C142.624039,266.079803 178.050125,266.080750 213.476059,266.010925   C214.710907,266.008514 215.944122,265.176544 217.178085,264.731201   C215.920807,264.150635 214.667419,263.074829 213.405670,263.064972   C198.437836,262.947662 183.468750,262.989349 167.500000,262.989319  M42.505890,266.183014   C57.978317,266.183014 73.450745,266.183014 88.926270,266.183014   C88.926270,247.745285 88.926270,229.677155 88.926270,211.653854   C69.139778,211.653854 49.694546,211.653854 30.201626,211.653854   C30.201626,229.946854 30.201626,247.991333 30.201626,266.183014   C34.199173,266.183014 37.854370,266.183014 42.505890,266.183014  M141.160110,247.286621   C141.160110,239.179260 141.160110,231.071884 141.160110,222.690338   C139.421860,222.828506 138.180054,222.927200 136.427887,223.066467   C136.427887,226.209366 136.427887,229.086899 136.427887,232.130127   C127.052277,228.723755 123.160683,231.394821 123.395050,240.543030   C123.429024,241.869217 123.632301,243.190308 123.729858,244.515778   C123.996201,248.134521 126.114151,249.875778 129.562408,249.991898   C133.013000,250.108078 136.474045,250.054855 139.922974,249.903854   C140.357178,249.884857 140.745575,248.819717 141.160110,247.286621  M186.918579,235.239731   C188.468781,235.301956 190.041977,235.558243 191.563416,235.377869   C193.518921,235.146057 195.670074,233.846039 197.283218,234.379135   C198.400757,234.748428 198.751999,237.436539 199.403061,238.987152   C196.304764,238.711243 193.890350,238.281647 191.485733,238.330826   C187.571716,238.410889 185.846375,240.691864 186.048279,244.536209   C186.238571,248.159836 188.138107,250.010635 191.761002,250.034851   C195.620880,250.060654 199.481064,250.040665 203.690140,250.040665   C203.690140,245.969940 203.735107,242.326675 203.676605,238.685043   C203.625290,235.490265 203.690430,232.177124 199.672699,231.028687   C194.468567,229.541153 189.147095,230.987457 186.918579,235.239731  M118.533524,248.140076   C118.994057,246.866653 119.454597,245.593246 119.915131,244.319824   C119.583580,243.978653 119.252029,243.637482 118.920479,243.296310   C117.408997,244.101517 115.977402,245.241974 114.365562,245.626038   C112.403336,246.093613 110.121880,246.428513 108.309151,245.826019   C107.349571,245.507095 107.090950,243.079132 106.320312,241.101410   C109.281563,241.101410 111.262924,241.101395 113.244286,241.101395   C115.375877,241.101395 117.507477,241.101410 119.631226,241.101410   C119.695305,232.454926 118.227409,230.740112 111.095009,230.695557   C103.878204,230.650452 101.905205,232.718384 101.982536,240.438248   C101.999031,242.084534 101.878616,244.024796 102.672081,245.300385   C103.792686,247.101913 105.584625,249.510696 107.304573,249.699310   C110.790474,250.081604 114.420731,249.147552 118.533524,248.140076  M245.510300,230.889435   C243.849258,230.846786 242.187637,230.753433 240.527298,230.772430   C237.411011,230.808060 234.053787,231.138290 233.451233,234.835770   C232.693939,239.482712 230.931152,245.301941 235.307617,248.303238   C238.152649,250.254333 243.254242,249.806076 247.120590,249.136993   C251.351929,248.404755 250.808426,244.000641 250.783722,240.851334   C250.754150,237.082825 251.663788,232.500549 245.510300,230.889435  M154.884827,246.330688   C150.913330,247.496140 149.814011,245.530334 149.928360,241.955002   C150.044189,238.333679 149.953934,234.705750 149.953934,230.731720   C148.076294,230.947754 146.703003,231.105774 145.218842,231.276550   C145.218842,235.837494 145.158356,239.989761 145.238434,244.139282   C145.299881,247.322983 146.652100,249.850204 150.110138,249.943069   C154.143082,250.051331 158.190872,249.606979 162.252869,249.401382   C162.252869,243.387939 162.252869,237.414795 162.252869,231.171799   C160.764511,231.171799 159.423904,231.171799 157.812271,231.171799   C157.812271,233.948807 158.095123,236.471741 157.732819,238.898331   C157.369720,241.330429 156.362701,243.666428 154.884827,246.330688  M175.273376,246.692688   C169.058334,246.615082 171.124130,241.882523 171.052231,238.685486   C171.019272,237.220505 172.137680,234.749451 173.191330,234.472107   C174.735382,234.065659 176.731232,235.107941 178.457321,235.742889   C179.913300,236.278458 181.259277,237.113022 183.318695,238.149948   C182.329910,231.230118 180.150375,230.019913 172.549744,230.832840   C167.163467,231.408936 165.625427,234.276611 166.243774,242.590195   C166.695984,248.670258 168.740112,250.234833 175.974014,250.037674   C181.581604,249.884842 182.932251,248.526810 182.943680,241.489548   C180.166870,243.562790 178.153381,245.066101 175.273376,246.692688  M259.208344,238.187897   C259.617371,235.179489 261.362823,233.809357 264.356262,234.098541   C267.899780,234.440857 267.147827,237.254074 267.224213,239.429199   C267.345276,242.876266 267.256500,246.330704 267.256500,249.823761   C269.082489,249.823761 270.353821,249.823761 271.927216,249.823761   C271.927216,245.174911 272.030762,240.708282 271.894226,236.249008   C271.786438,232.728973 269.984711,230.610458 266.236023,230.776398   C262.531097,230.940399 258.831848,231.232697 254.821869,231.488373   C254.821869,234.333267 254.821854,237.312561 254.821854,240.291870   C254.821854,243.413605 254.821869,246.535355 254.821869,249.747650   C256.474976,249.747650 257.696899,249.747650 259.184326,249.747650   C259.184326,246.010468 259.184326,242.538651 259.208344,238.187897  M208.131744,238.622498   C208.134735,240.449265 208.046097,242.281677 208.158264,244.101715   C208.467285,249.116165 210.220657,250.446838 215.699677,250.052917   C220.321289,249.720642 221.299774,246.917099 220.699753,241.200562   C218.815918,243.015015 217.878754,244.042130 216.809799,244.906219   C216.013672,245.549744 215.046951,245.982224 214.156204,246.508682   C213.735428,245.692978 212.988266,244.891647 212.951614,244.059006   C212.809601,240.833862 212.893875,237.598740 212.893875,235.683334   C215.260193,232.739777 220.282974,236.717850 219.781448,230.766953   C217.358170,230.766953 215.381149,230.766953 213.404129,230.766953   C213.630402,230.479370 213.856659,230.191788 214.082932,229.904190   C212.587891,228.555283 211.092834,227.206360 209.597794,225.857452   C208.240295,227.801605 208.500519,229.296188 208.019150,229.594635   C204.491257,231.781906 205.768417,233.669189 208.047836,235.767532   C208.385468,236.078323 208.119141,237.045212 208.131744,238.622498  M237.680740,266.064392   C247.996796,266.064392 258.313324,266.109161 268.628296,266.004578   C269.842224,265.992279 271.047882,265.159302 272.257355,264.706757   C272.089661,264.134827 271.921967,263.562897 271.754303,262.990967   C266.465790,262.990967 261.177277,262.990540 255.888779,262.991089   C249.732422,262.991760 243.574966,262.936798 237.420975,263.057800   C236.540878,263.075043 235.677536,263.944763 234.806427,264.419952   C235.442291,264.965027 236.078171,265.510101 237.680740,266.064392  M229.179535,236.566101   C229.179535,234.787659 229.179535,233.009216 229.179535,230.925400   C227.458176,231.005432 226.234131,231.062347 224.994659,231.119980   C224.994659,237.528519 224.994659,243.598602 224.994659,249.969849   C226.483032,249.897339 227.711823,249.837463 229.179520,249.765945   C229.179520,245.479172 229.179520,241.511429 229.179535,236.566101  z"
   id="path12" />
<path
   fill="#060607"
   opacity="1.000000"
   stroke="none"
   d=" M229.953735,115.374840   C232.442825,115.373352 234.454300,115.518456 236.436234,115.338455   C240.201218,114.996521 242.983231,116.324890 244.428528,119.853050   C245.995773,123.678871 246.828979,127.499863 243.480072,130.988892   C224.696259,150.558578 206.020386,170.233612 187.036972,189.607422   C185.030670,191.655014 181.275772,192.895218 178.306122,192.944550   C160.161453,193.246109 142.006836,193.244431 123.862038,192.947235   C120.875229,192.898315 117.084938,191.708557 115.080780,189.661118   C95.989861,170.158051 77.193527,150.366348 58.341469,130.629959   C55.238991,127.381958 55.766506,123.632011 57.313282,119.911232   C58.769638,116.407959 61.459579,115.252838 65.258011,115.302528   C78.576599,115.476768 91.900505,115.488441 105.218643,115.298790   C108.976227,115.245285 110.177414,116.500107 110.072113,120.186058   C109.848717,128.005859 110.115509,135.839157 109.921829,143.660492   C109.832199,147.279861 111.184387,148.842194 114.792862,148.836258   C138.936768,148.796585 163.080811,148.797775 187.224716,148.834442   C190.819702,148.839905 192.194183,147.286285 192.114136,143.661560   C191.941437,135.839752 192.225250,128.007553 192.034805,120.186592   C191.943909,116.454803 193.357773,115.258057 196.994385,115.313705   C207.814957,115.479279 218.639664,115.374046 229.953735,115.374840  z"
   id="path14" />
<path
   fill="#070708"
   opacity="1.000000"
   stroke="none"
   d=" M240.677948,104.103012   C232.652893,104.406265 225.018631,104.655098 217.382584,104.737923   C209.234528,104.826294 201.084763,104.757828 192.061478,104.757828   C192.061478,97.002289 192.071045,89.427681 192.059235,81.853111   C192.041733,70.629257 193.479416,70.723122 180.980850,70.760109   C159.665726,70.823196 138.350266,70.769371 117.034958,70.782127   C110.450706,70.786072 110.011414,71.253021 110.008675,77.889412   C110.005058,86.677727 110.007782,95.466034 110.007782,104.678986   C94.139343,104.678986 78.697487,104.894501 63.275524,104.437973   C61.057613,104.372314 58.190994,101.475136 56.934624,99.173294   C54.770897,95.209061 56.665546,91.481880 59.622063,88.369644   C71.315102,76.060753 82.988060,63.732742 94.697487,51.439465   C101.241394,44.569279 107.918396,37.824154 114.378624,30.876875   C116.831497,28.239063 119.482803,27.206118 123.121384,27.215921   C142.098709,27.267057 161.077194,26.964155 180.053864,27.061201   C182.258774,27.072477 185.041306,28.229033 186.566055,29.809631   C205.518204,49.455902 224.335068,69.233688 243.068405,89.089310   C247.672028,93.968735 246.729858,99.623695 240.677948,104.103012  z"
   id="path16" />
<path
   fill="#E51C21"
   opacity="1.000000"
   stroke="none"
   d=" M174.808701,127.968483   C173.948685,129.639648 173.088669,131.310822 171.398315,133.010590   C161.477142,133.025909 152.385559,132.939026 143.295853,133.032852   C139.221497,133.074905 135.150864,133.478943 131.078552,133.718704   C129.693848,131.367447 127.206993,129.059082 127.113533,126.657570   C126.688950,115.748230 126.938698,104.812645 127.278519,93.193466   C127.693329,91.844696 127.775452,91.188950 127.859161,90.257462   C127.837921,89.619820 127.815094,89.257919 127.792267,88.896019   C127.792274,88.896019 127.931267,88.896217 128.259277,88.811035   C130.777496,88.138824 132.959305,87.084335 135.159332,87.044807   C145.285294,86.862862 155.419769,86.818733 165.543396,87.056778   C168.392975,87.123779 171.216095,88.316566 174.051346,88.992996   C174.051346,88.992996 174.000122,89.001595 173.963425,89.265411   C174.200790,90.011734 174.474854,90.494225 174.748932,90.976715   C174.779068,91.156731 174.809219,91.336754 174.555511,92.117508   C174.180908,100.873253 173.998245,109.028740 174.041626,117.183029   C174.060760,120.779434 174.538925,124.373405 174.808701,127.968483  z"
   id="path18" />
<path
   fill="#0066B5"
   opacity="1.000000"
   stroke="none"
   d=" M271.916260,212.067108   C271.959595,212.482895 272.002930,212.898682 271.769745,213.675903   C271.181854,214.076294 270.949921,214.232895 270.797455,214.507126   C215.072540,214.507126 159.347626,214.507126 103.622711,214.507126   C103.612930,213.657715 103.603149,212.808304 103.593376,211.958893   C121.874359,210.782181 140.223267,211.627625 158.533295,211.470886   C177.008057,211.312729 195.485214,211.433929 213.961334,211.436615   C232.603897,211.439316 251.246445,211.446777 270.487640,211.628754   C271.354736,211.918625 271.631409,212.005875 271.916260,212.067108  z"
   id="path20" />
<path
   fill="#076AB7"
   opacity="1.000000"
   stroke="none"
   d=" M168.000000,262.989319   C183.468750,262.989349 198.437836,262.947662 213.405670,263.064972   C214.667419,263.074829 215.920807,264.150635 217.178101,264.731201   C215.944122,265.176544 214.710907,266.008514 213.476059,266.010925   C178.050125,266.080750 142.624039,266.079803 107.198074,266.020203   C105.837395,266.017914 104.477882,265.321350 103.117821,264.948273   C103.225464,264.295288 103.333107,263.642303 103.440750,262.989319   C124.793839,262.989319 146.146912,262.989319 168.000000,262.989319  z"
   id="path22" />
<path
   fill="#1B1B1B"
   opacity="1.000000"
   stroke="none"
   d=" M42.007729,266.183014   C37.854370,266.183014 34.199173,266.183014 30.201626,266.183014   C30.201626,247.991333 30.201626,229.946854 30.201626,211.653854   C49.694546,211.653854 69.139778,211.653854 88.926270,211.653854   C88.926270,229.677155 88.926270,247.745285 88.926270,266.183014   C73.450745,266.183014 57.978317,266.183014 42.007729,266.183014  M87.765099,213.554169   C87.600685,213.220352 87.339684,213.105072 86.054245,213.089096   C67.906380,213.089096 49.758518,213.089096 31.441830,213.089096   C31.441830,223.880005 31.441830,233.960892 31.244200,244.668289   C31.310129,245.095932 31.376059,245.523575 31.315456,246.883270   C31.409170,252.540085 31.502882,258.196899 31.937263,264.525513   C49.962276,264.618958 67.987267,264.720215 86.012405,264.767303   C86.542877,264.768677 87.074837,264.199188 87.797775,262.991638   C87.773911,252.015244 87.750046,241.038849 87.887390,229.246735   C87.833511,228.143875 87.779633,227.041016 87.820419,225.029755   C87.787148,221.358521 87.753876,217.687286 87.765099,213.554169  z"
   id="path24" />
<path
   fill="#090909"
   opacity="1.000000"
   stroke="none"
   d=" M141.157654,247.762955   C140.745575,248.819717 140.357178,249.884857 139.922974,249.903854   C136.474045,250.054855 133.013000,250.108078 129.562408,249.991898   C126.114151,249.875778 123.996201,248.134521 123.729858,244.515778   C123.632301,243.190308 123.429024,241.869217 123.395050,240.543030   C123.160683,231.394821 127.052277,228.723755 136.427887,232.130127   C136.427887,229.086899 136.427887,226.209366 136.427887,223.066467   C138.180054,222.927200 139.421860,222.828506 141.160110,222.690338   C141.160110,231.071884 141.160110,239.179260 141.157654,247.762955  M131.581085,234.043808   C125.874939,235.181686 128.416260,239.733597 128.180344,242.918213   C128.096115,244.055405 129.649902,245.965012 130.846420,246.370697   C132.153885,246.813995 134.295135,246.404327 135.403610,245.523819   C138.577484,243.002655 136.486847,235.465866 131.581085,234.043808  z"
   id="path26" />
<path
   fill="#131313"
   opacity="1.000000"
   stroke="none"
   d=" M186.933960,234.865250   C189.147095,230.987457 194.468567,229.541153 199.672699,231.028687   C203.690430,232.177124 203.625290,235.490265 203.676605,238.685043   C203.735107,242.326675 203.690140,245.969940 203.690140,250.040665   C199.481064,250.040665 195.620880,250.060654 191.761002,250.034851   C188.138107,250.010635 186.238571,248.159836 186.048279,244.536209   C185.846375,240.691864 187.571716,238.410889 191.485733,238.330826   C193.890350,238.281647 196.304764,238.711243 199.403061,238.987152   C198.751999,237.436539 198.400757,234.748428 197.283218,234.379135   C195.670074,233.846039 193.518921,235.146057 191.563416,235.377869   C190.041977,235.558243 188.468781,235.301956 186.933960,234.865250  M198.992050,244.464600   C198.664215,240.225342 195.464020,241.040253 193.056763,241.542679   C192.115372,241.739136 191.580673,243.884232 190.860733,245.141815   C192.739960,245.717697 194.591019,246.484497 196.513382,246.768082   C197.205795,246.870239 198.069565,245.810959 198.992050,244.464600  z"
   id="path28" />
<path
   fill="#100F10"
   opacity="1.000000"
   stroke="none"
   d=" M118.262497,248.448120   C114.420731,249.147552 110.790474,250.081604 107.304573,249.699310   C105.584625,249.510696 103.792686,247.101913 102.672081,245.300385   C101.878616,244.024796 101.999031,242.084534 101.982536,240.438248   C101.905205,232.718384 103.878204,230.650452 111.095009,230.695557   C118.227409,230.740112 119.695305,232.454926 119.631226,241.101410   C117.507477,241.101410 115.375877,241.101395 113.244286,241.101395   C111.262924,241.101395 109.281563,241.101410 106.320312,241.101410   C107.090950,243.079132 107.349571,245.507095 108.309151,245.826019   C110.121880,246.428513 112.403336,246.093613 114.365562,245.626038   C115.977402,245.241974 117.408997,244.101517 118.920479,243.296310   C119.252029,243.637482 119.583580,243.978653 119.915131,244.319824   C119.454597,245.593246 118.994057,246.866653 118.262497,248.448120  M108.765884,234.206680   C108.028946,235.302139 107.292007,236.397583 106.236389,237.966751   C109.829468,237.966751 112.355598,237.966751 114.908607,237.966751   C115.244644,233.375885 112.121078,234.189514 108.765884,234.206680  z"
   id="path30" />
<path
   fill="#0D0C0D"
   opacity="1.000000"
   stroke="none"
   d=" M245.898499,230.958450   C251.663788,232.500549 250.754150,237.082825 250.783722,240.851334   C250.808426,244.000641 251.351929,248.404755 247.120590,249.136993   C243.254242,249.806076 238.152649,250.254333 235.307617,248.303238   C230.931152,245.301941 232.693939,239.482712 233.451233,234.835770   C234.053787,231.138290 237.411011,230.808060 240.527298,230.772430   C242.187637,230.753433 243.849258,230.846786 245.898499,230.958450  M246.174744,240.467346   C245.970734,237.630920 246.878906,234.183182 242.191391,234.030548   C237.035156,233.862640 237.467133,237.496887 237.396790,240.821106   C237.333298,243.821976 237.677750,246.597687 241.607010,246.737106   C245.367416,246.870575 246.420624,244.639877 246.174744,240.467346  z"
   id="path32" />
<path
   fill="#0D0D0D"
   opacity="1.000000"
   stroke="none"
   d=" M155.261368,246.187622   C156.362701,243.666428 157.369720,241.330429 157.732819,238.898331   C158.095123,236.471741 157.812271,233.948807 157.812271,231.171799   C159.423904,231.171799 160.764511,231.171799 162.252869,231.171799   C162.252869,237.414795 162.252869,243.387939 162.252869,249.401382   C158.190872,249.606979 154.143082,250.051331 150.110138,249.943069   C146.652100,249.850204 145.299881,247.322983 145.238434,244.139282   C145.158356,239.989761 145.218842,235.837494 145.218842,231.276550   C146.703003,231.105774 148.076294,230.947754 149.953934,230.731720   C149.953934,234.705750 150.044189,238.333679 149.928360,241.955002   C149.814011,245.530334 150.913330,247.496140 155.261368,246.187622  z"
   id="path34" />
<path
   fill="#0F0F0F"
   opacity="1.000000"
   stroke="none"
   d=" M175.706635,246.631058   C178.153381,245.066101 180.166870,243.562790 182.943680,241.489548   C182.932251,248.526810 181.581604,249.884842 175.974014,250.037674   C168.740112,250.234833 166.695984,248.670258 166.243774,242.590195   C165.625427,234.276611 167.163467,231.408936 172.549744,230.832840   C180.150375,230.019913 182.329910,231.230118 183.318695,238.149948   C181.259277,237.113022 179.913300,236.278458 178.457321,235.742889   C176.731232,235.107941 174.735382,234.065659 173.191330,234.472107   C172.137680,234.749451 171.019272,237.220505 171.052231,238.685486   C171.124130,241.882523 169.058334,246.615082 175.706635,246.631058  z"
   id="path36" />
<path
   fill="#0D0D0D"
   opacity="1.000000"
   stroke="none"
   d=" M259.196350,238.627350   C259.184326,242.538651 259.184326,246.010468 259.184326,249.747650   C257.696899,249.747650 256.474976,249.747650 254.821869,249.747650   C254.821869,246.535355 254.821854,243.413605 254.821854,240.291870   C254.821854,237.312561 254.821869,234.333267 254.821869,231.488373   C258.831848,231.232697 262.531097,230.940399 266.236023,230.776398   C269.984711,230.610458 271.786438,232.728973 271.894226,236.249008   C272.030762,240.708282 271.927216,245.174911 271.927216,249.823761   C270.353821,249.823761 269.082489,249.823761 267.256500,249.823761   C267.256500,246.330704 267.345276,242.876266 267.224213,239.429199   C267.147827,237.254074 267.899780,234.440857 264.356262,234.098541   C261.362823,233.809357 259.617371,235.179489 259.196350,238.627350  z"
   id="path38" />
<path
   fill="#0F0E0F"
   opacity="1.000000"
   stroke="none"
   d=" M208.131989,238.165527   C208.119141,237.045212 208.385468,236.078323 208.047836,235.767532   C205.768417,233.669189 204.491257,231.781906 208.019150,229.594635   C208.500519,229.296188 208.240295,227.801605 209.597794,225.857452   C211.092834,227.206360 212.587891,228.555283 214.082932,229.904190   C213.856659,230.191788 213.630402,230.479370 213.404129,230.766953   C215.381149,230.766953 217.358170,230.766953 219.781448,230.766953   C220.282974,236.717850 215.260193,232.739777 212.893875,235.683334   C212.893875,237.598740 212.809601,240.833862 212.951614,244.059006   C212.988266,244.891647 213.735428,245.692978 214.156204,246.508682   C215.046951,245.982224 216.013672,245.549744 216.809799,244.906219   C217.878754,244.042130 218.815918,243.015015 220.699753,241.200562   C221.299774,246.917099 220.321289,249.720642 215.699677,250.052917   C210.220657,250.446838 208.467285,249.116165 208.158264,244.101715   C208.046097,242.281677 208.134735,240.449265 208.131989,238.165527  z"
   id="path40" />
<path
   fill="#938C8D"
   opacity="1.000000"
   stroke="none"
   d=" M174.139465,88.614525   C171.216095,88.316566 168.392975,87.123779 165.543396,87.056778   C155.419769,86.818733 145.285294,86.862862 135.159332,87.044807   C132.959305,87.084335 130.777496,88.138824 128.193787,88.787811   C127.793121,84.944099 130.727112,84.290169 133.525177,84.252983   C145.078003,84.099442 156.640442,83.991440 168.182922,84.368790   C170.237778,84.435966 172.214706,86.886200 174.139465,88.614525  z"
   id="path42" />
<path
   fill="#0669B7"
   opacity="1.000000"
   stroke="none"
   d=" M237.197388,266.059784   C236.078171,265.510101 235.442291,264.965027 234.806427,264.419952   C235.677536,263.944763 236.540878,263.075043 237.420975,263.057800   C243.574966,262.936798 249.732422,262.991760 255.888779,262.991089   C261.177277,262.990540 266.465790,262.990967 271.754303,262.990967   C271.921967,263.562897 272.089661,264.134827 272.257355,264.706757   C271.047882,265.159302 269.842224,265.992279 268.628296,266.004578   C258.313324,266.109161 247.996796,266.064392 237.197388,266.059784  z"
   id="path44" />
<path
   fill="#000000"
   opacity="1.000000"
   stroke="none"
   d=" M229.179535,237.054901   C229.179520,241.511429 229.179520,245.479172 229.179520,249.765945   C227.711823,249.837463 226.483032,249.897339 224.994659,249.969849   C224.994659,243.598602 224.994659,237.528519 224.994659,231.119980   C226.234131,231.062347 227.458176,231.005432 229.179535,230.925400   C229.179535,233.009216 229.179535,234.787659 229.179535,237.054901  z"
   id="path46" />
<path
   fill="#E30000"
   opacity="1.000000"
   stroke="none"
   d=" M131.523895,133.857254   C135.150864,133.478943 139.221497,133.074905 143.295853,133.032852   C152.385559,132.939026 161.477142,133.025909 171.079605,133.050537   C170.203110,133.403656 168.816177,134.035782 167.426636,134.041565   C155.607758,134.090866 143.788437,134.026260 131.523895,133.857254  z"
   id="path48" />
<path
   fill="#DF1B0A"
   opacity="1.000000"
   stroke="none"
   d=" M174.887939,127.507469   C174.538925,124.373405 174.060760,120.779434 174.041626,117.183029   C173.998245,109.028740 174.180908,100.873253 174.511215,92.387688   C174.822906,103.720230 174.895050,115.383347 174.887939,127.507469  z"
   id="path50" />
<path
   fill="#E30000"
   opacity="1.000000"
   stroke="none"
   d=" M127.857582,90.533211   C127.775452,91.188950 127.693329,91.844696 127.367126,92.729553   C127.095657,92.497116 127.068268,92.035568 127.262581,91.143631   C127.484283,90.713257 127.857582,90.533211 127.857582,90.533211  z"
   id="path52" />
<path
   fill="#938C8D"
   opacity="1.000000"
   stroke="none"
   d=" M174.819153,90.679550   C174.474854,90.494225 174.200790,90.011734 173.978180,89.244049   C174.316193,89.433372 174.602783,89.907875 174.819153,90.679550  z"
   id="path54" />
<path
   fill="#938C8D"
   opacity="1.000000"
   stroke="none"
   d=" M127.859161,90.257462   C127.857582,90.533211 127.484283,90.713257 127.295906,90.797333   C127.139000,90.283974 127.170471,89.686531 127.497101,88.992554   C127.815094,89.257919 127.837921,89.619820 127.859161,90.257462  z"
   id="path56" />
<path
   fill="#81A8D5"
   opacity="1.000000"
   stroke="none"
   d=" M271.856812,211.796295   C271.631409,212.005875 271.354736,211.918625 270.942200,211.642029   C271.131226,211.494278 271.464325,211.509872 271.856812,211.796295  z"
   id="path58" />
<path
   fill="#81A8D5"
   opacity="1.000000"
   stroke="none"
   d=" M271.050476,214.617081   C270.949921,214.232895 271.181854,214.076294 271.702942,213.983994   C271.709595,214.196106 271.506531,214.461563 271.050476,214.617081  z"
   id="path60" />
<path
   fill="#E62510"
   opacity="1.000000"
   stroke="none"
   d=" M31.441830,244.041779   C31.441830,233.960892 31.441830,223.880005 31.441830,213.089096   C49.758518,213.089096 67.906380,213.089096 86.608543,213.311371   C87.304703,213.745377 87.490623,213.906189 87.720604,214.016052   C87.753876,217.687286 87.787148,221.358521 87.472290,225.542084   C86.417511,226.737015 85.710854,227.419617 84.746292,228.125793   C83.723343,228.143555 82.958305,228.137741 81.793869,228.062347   C77.924538,228.264053 74.454613,228.535339 70.824249,228.487686   C64.336739,224.562790 57.594944,227.588394 51.071674,227.050827   C50.400101,226.995499 49.601425,228.482590 48.509087,229.158142   C42.794289,226.153488 39.159981,227.736267 36.599113,234.192230   C35.621910,238.472366 34.677513,242.507492 34.358528,246.591446   C34.181847,248.853485 35.345387,250.721939 38.414173,249.030182   C38.613041,249.027069 38.980450,248.874603 39.235828,248.944824   C39.661194,248.967300 39.831184,248.919540 40.376183,248.938660   C41.498016,248.897293 42.244839,248.789032 43.275032,248.665863   C44.039623,248.438950 44.520855,248.226959 45.098602,248.291702   C46.146355,248.746765 47.097588,248.925064 48.254982,249.100632   C48.461147,249.097900 48.871342,249.055725 49.079033,249.304733   C51.830505,249.589859 54.374401,249.619720 56.918041,249.663940   C59.275887,249.704956 61.633469,249.761307 64.299973,249.731201   C66.450279,249.712112 68.292511,249.756393 70.133064,249.838394   C71.692673,249.907867 73.250336,250.020996 75.015015,250.397995   C77.495674,249.110535 80.423607,247.998901 81.913963,245.877380   C85.439369,240.859055 86.504715,235.033371 85.429596,229.058823   C86.356537,229.491333 87.041359,229.776901 87.726181,230.062454   C87.750046,241.038849 87.773911,252.015244 87.262955,263.460449   C68.350960,263.904114 49.973778,263.878937 31.596596,263.853729   C31.502882,258.196899 31.409170,252.540085 31.527538,246.255722   C31.640358,245.099380 31.541094,244.570572 31.441830,244.041779  z"
   id="path62" />
<path
   fill="#BD2110"
   opacity="1.000000"
   stroke="none"
   d=" M31.766930,264.189636   C49.973778,263.878937 68.350960,263.904114 87.167130,263.912598   C87.074837,264.199188 86.542877,264.768677 86.012405,264.767303   C67.987267,264.720215 49.962276,264.618958 31.766930,264.189636  z"
   id="path64" />
<path
   fill="#BD2110"
   opacity="1.000000"
   stroke="none"
   d=" M87.806786,229.654602   C87.041359,229.776901 86.356537,229.491333 85.374527,228.858917   C85.077347,228.512070 85.004196,228.102219 85.004196,228.102219   C85.710854,227.419617 86.417511,226.737015 87.424965,225.996277   C87.779633,227.041016 87.833511,228.143875 87.806786,229.654602  z"
   id="path66" />
<path
   fill="#BD2110"
   opacity="1.000000"
   stroke="none"
   d=" M31.343014,244.355042   C31.541094,244.570572 31.640358,245.099380 31.590805,245.789703   C31.376059,245.523575 31.310129,245.095932 31.343014,244.355042  z"
   id="path68" />
<path
   fill="#BD2110"
   opacity="1.000000"
   stroke="none"
   d=" M87.742851,213.785110   C87.490623,213.906189 87.304703,213.745377 87.072464,213.370972   C87.339684,213.105072 87.600685,213.220352 87.742851,213.785110  z"
   id="path70" />
<path
   fill="#EEEEEE"
   opacity="1.000000"
   stroke="none"
   d=" M131.991211,234.041656   C136.486847,235.465866 138.577484,243.002655 135.403610,245.523819   C134.295135,246.404327 132.153885,246.813995 130.846420,246.370697   C129.649902,245.965012 128.096115,244.055405 128.180344,242.918213   C128.416260,239.733597 125.874939,235.181686 131.991211,234.041656  z"
   id="path72" />
<path
   fill="#EAE9EA"
   opacity="1.000000"
   stroke="none"
   d=" M198.923584,244.873154   C198.069565,245.810959 197.205795,246.870239 196.513382,246.768082   C194.591019,246.484497 192.739960,245.717697 190.860733,245.141815   C191.580673,243.884232 192.115372,241.739136 193.056763,241.542679   C195.464020,241.040253 198.664215,240.225342 198.923584,244.873154  z"
   id="path74" />
<path
   fill="#F2F1F2"
   opacity="1.000000"
   stroke="none"
   d=" M109.198868,234.141418   C112.121078,234.189514 115.244644,233.375885 114.908607,237.966751   C112.355598,237.966751 109.829468,237.966751 106.236389,237.966751   C107.292007,236.397583 108.028946,235.302139 109.198868,234.141418  z"
   id="path76" />
<path
   fill="#F0F0F0"
   opacity="1.000000"
   stroke="none"
   d=" M246.172516,240.904938   C246.420624,244.639877 245.367416,246.870575 241.607010,246.737106   C237.677750,246.597687 237.333298,243.821976 237.396790,240.821106   C237.467133,237.496887 237.035156,233.862640 242.191391,234.030548   C246.878906,234.183182 245.970734,237.630920 246.172516,240.904938  z"
   id="path78" />
<path
   fill="#EDECEB"
   opacity="1.000000"
   stroke="none"
   d=" M40.001175,248.871780   C39.831184,248.919540 39.661194,248.967300 39.126667,248.749710   C38.567600,248.245163 38.322613,248.081467 37.694939,247.833252   C34.023350,243.698349 38.145786,240.336197 38.528400,236.388092   C40.427528,233.576141 40.652534,229.207291 46.383884,230.607513   C44.564194,234.947021 42.949524,238.797607 41.278030,242.783707   C42.533642,243.116135 43.680370,243.419754 44.312881,243.587219   C46.246395,238.872604 48.039280,234.500900 50.216034,230.001404   C53.745319,229.934464 56.890743,229.995346 60.477299,230.043365   C62.359234,230.018631 63.803623,230.067627 65.240112,229.982803   C68.734314,229.776550 70.410866,231.224075 69.561264,234.997009   C69.245972,235.752563 69.192963,236.350601 68.769592,236.925415   C67.075623,235.640945 65.752022,234.379715 63.603336,232.332260   C62.624420,235.895477 61.791367,238.927780 60.680511,242.010254   C60.089027,242.368134 59.775341,242.675842 59.461662,242.983551   C59.669060,243.165405 59.876457,243.347260 60.083855,243.529114   C60.403645,243.034393 60.723438,242.539658 61.284660,242.203430   C66.761948,243.602875 60.700638,238.342377 64.069061,238.236847   C65.328094,238.257095 66.694038,238.905624 68.060677,238.907089   C68.705124,238.907791 69.350899,237.666702 70.128029,236.772217   C70.378059,236.246353 70.496132,235.936584 70.807304,235.332031   C72.826530,229.376755 77.463791,229.984787 81.923279,230.108673   C81.944763,230.068832 81.854370,230.073654 81.552086,230.454956   C81.547409,232.998901 81.845009,235.161545 82.129868,237.616211   C80.449234,241.263641 78.781349,244.619064 76.672050,247.923737   C74.174431,247.692032 71.731949,248.120834 70.182716,247.139481   C68.915367,246.336716 68.713081,243.852509 68.038620,242.113739   C68.593597,242.767288 69.148582,243.420822 69.703560,244.074371   C67.401352,245.348633 65.099136,246.622879 62.388546,247.919388   C56.429127,248.147537 55.531406,247.279770 55.096039,241.105392   C55.024151,240.611877 55.017406,240.328659 55.385521,239.978241   C56.512512,238.293686 57.299515,236.675507 58.279907,234.914062   C58.455811,234.394974 58.438328,234.019135 58.420845,233.643280   C58.231033,234.050079 58.041225,234.456894 57.526550,234.926849   C55.335155,235.202209 53.468628,235.414398 52.897205,235.479355   C53.751694,237.342224 54.347672,238.641525 54.545189,239.953339   C50.003605,240.288635 50.003605,240.288635 49.559425,243.463959   C50.886307,242.945999 52.191425,242.436523 53.663605,242.320770   C55.934658,247.766571 50.876102,247.217010 48.871342,249.055725   C48.871342,249.055725 48.461147,249.097900 48.217491,248.811737   C46.983257,248.355377 45.992676,248.185165 45.002090,248.014954   C44.520855,248.226959 44.039623,248.438950 43.208748,248.360046   C41.906456,248.336685 40.953815,248.604233 40.001175,248.871780  M76.082603,234.337967   C74.915329,237.424240 73.748055,240.510529 72.096214,244.878006   C76.685303,241.382751 78.294197,236.597427 76.082603,234.337967  z"
   id="path80" />
<path
   fill="#1D1A0E"
   opacity="1.000000"
   stroke="none"
   d=" M49.832161,230.129196   C48.039280,234.500900 46.246395,238.872604 44.312881,243.587219   C43.680370,243.419754 42.533642,243.116135 41.278030,242.783707   C42.949524,238.797607 44.564194,234.947021 46.383884,230.607513   C40.652534,229.207291 40.427528,233.576141 38.448883,236.003952   C37.703831,235.240753 37.298466,234.604172 36.893101,233.967606   C39.159981,227.736267 42.794289,226.153488 48.599777,229.373932   C49.228275,229.971924 49.491291,230.119812 49.832161,230.129196  z"
   id="path82" />
<path
   fill="#E7BF0C"
   opacity="1.000000"
   stroke="none"
   d=" M77.113449,247.974472   C78.781349,244.619064 80.449234,241.263641 82.465149,237.430756   C83.986618,234.451996 85.085358,231.961105 81.854370,230.073654   C81.854370,230.073654 81.944763,230.068832 82.038116,229.784821   C82.152077,229.044510 82.172668,228.588211 82.193268,228.131912   C82.958305,228.137741 83.723343,228.143555 84.746292,228.125793   C85.004196,228.102219 85.077347,228.512070 85.132416,228.711975   C86.504715,235.033371 85.439369,240.859055 81.913963,245.877380   C80.423607,247.998901 77.495674,249.110535 75.297455,250.224731   C75.953651,249.170334 76.533546,248.572403 77.113449,247.974472  z"
   id="path84" />
<path
   fill="#E5B70F"
   opacity="1.000000"
   stroke="none"
   d=" M50.216030,230.001404   C49.491291,230.119812 49.228275,229.971924 48.952423,229.469757   C49.601425,228.482590 50.400101,226.995499 51.071674,227.050827   C57.594944,227.588394 64.336739,224.562790 70.370567,228.556152   C66.730263,229.314453 63.383213,229.685349 60.036163,230.056229   C56.890743,229.995346 53.745319,229.934464 50.216030,230.001404  z"
   id="path86" />
<path
   fill="#211E15"
   opacity="1.000000"
   stroke="none"
   d=" M60.477299,230.043365   C63.383213,229.685349 66.730263,229.314453 70.530998,228.875092   C74.454613,228.535339 77.924538,228.264053 81.793869,228.062347   C82.172668,228.588211 82.152077,229.044510 82.016632,229.824646   C77.463791,229.984787 72.826530,229.376755 70.614182,235.130463   C70.093163,235.095627 69.958366,234.967575 69.823563,234.839508   C70.410866,231.224075 68.734314,229.776550 65.240112,229.982803   C63.803623,230.067627 62.359234,230.018631 60.477299,230.043365  z"
   id="path88" />
<path
   fill="#1B1916"
   opacity="1.000000"
   stroke="none"
   d=" M55.126316,241.316498   C55.531406,247.279770 56.429127,248.147537 62.650917,248.067993   C63.544834,248.733215 63.767998,249.272064 63.991165,249.810913   C61.633469,249.761307 59.275887,249.704956 56.918041,249.663940   C54.374401,249.619720 51.830505,249.589859 49.079033,249.304733   C50.876102,247.217010 55.934658,247.766571 54.077995,242.186676   C54.592331,241.544754 54.859325,241.430618 55.126316,241.316498  z"
   id="path90" />
<path
   fill="#24211A"
   opacity="1.000000"
   stroke="none"
   d=" M64.299973,249.731201   C63.767998,249.272064 63.544834,248.733215 63.059296,248.045746   C65.099136,246.622879 67.401352,245.348633 69.703560,244.074371   C69.148582,243.420822 68.593597,242.767288 68.038620,242.113739   C68.713081,243.852509 68.915367,246.336716 70.182716,247.139481   C71.731949,248.120834 74.174431,247.692032 76.672043,247.923737   C76.533546,248.572403 75.953651,249.170334 75.091309,249.941528   C73.250336,250.020996 71.692673,249.907867 70.133064,249.838394   C68.292511,249.756393 66.450279,249.712112 64.299973,249.731201  z"
   id="path92" />
<path
   fill="#282514"
   opacity="1.000000"
   stroke="none"
   d=" M36.599113,234.192230   C37.298466,234.604172 37.703831,235.240753 38.188713,236.261444   C38.145786,240.336197 34.023350,243.698349 37.726131,248.096115   C38.131462,248.690445 38.173386,248.861862 38.215305,249.033279   C35.345387,250.721939 34.181847,248.853485 34.358528,246.591446   C34.677513,242.507492 35.621910,238.472366 36.599113,234.192230  z"
   id="path94" />
<path
   fill="#ECEBEA"
   opacity="1.000000"
   stroke="none"
   d=" M40.376186,248.938660   C40.953815,248.604233 41.906456,248.336685 42.925381,248.374954   C42.244839,248.789032 41.498016,248.897293 40.376186,248.938660  z"
   id="path96" />
<path
   fill="#ECEBEA"
   opacity="1.000000"
   stroke="none"
   d=" M45.098606,248.291702   C45.992676,248.185165 46.983257,248.355377 48.011330,248.814468   C47.097588,248.925064 46.146355,248.746765 45.098606,248.291702  z"
   id="path98" />
<path
   fill="#ECEBEA"
   opacity="1.000000"
   stroke="none"
   d=" M38.414173,249.030182   C38.173386,248.861862 38.131462,248.690445 38.058350,248.256149   C38.322613,248.081467 38.567600,248.245163 38.871288,248.679474   C38.980450,248.874603 38.613041,249.027069 38.414173,249.030182  z"
   id="path100" />
<path
   fill="#E7E6E4"
   opacity="1.000000"
   stroke="none"
   d=" M60.958313,241.960068   C61.791367,238.927780 62.624420,235.895477 63.603336,232.332260   C65.752022,234.379715 67.075623,235.640945 68.984375,236.918884   C69.569534,236.935562 69.996063,236.988281 69.996063,236.988281   C69.350899,237.666702 68.705124,238.907791 68.060677,238.907089   C66.694038,238.905624 65.328094,238.257095 64.069061,238.236847   C60.700638,238.342377 66.761948,243.602875 61.263702,242.181946   C61.001320,242.001938 60.958313,241.960068 60.958313,241.960068  z"
   id="path102" />
<path
   fill="#171717"
   opacity="1.000000"
   stroke="none"
   d=" M76.420914,234.119019   C78.294197,236.597427 76.685303,241.382751 72.096214,244.878006   C73.748055,240.510529 74.915329,237.424240 76.420914,234.119019  z"
   id="path104" />
<path
   fill="#E7E6E4"
   opacity="1.000000"
   stroke="none"
   d=" M58.086514,235.057312   C57.299515,236.675507 56.512512,238.293686 55.359535,239.952347   C54.993565,239.992828 54.943645,239.940826 54.943649,239.940826   C54.347672,238.641525 53.751694,237.342224 52.897205,235.479355   C53.468628,235.414398 55.335155,235.202209 57.584053,234.976807   C57.966423,234.963593 58.086510,235.057312 58.086514,235.057312  z"
   id="path106" />
<path
   fill="#E7E6E4"
   opacity="1.000000"
   stroke="none"
   d=" M55.096039,241.105392   C54.859325,241.430618 54.592331,241.544754 53.910942,241.792969   C52.191425,242.436523 50.886307,242.945999 49.559425,243.463959   C50.003605,240.288635 50.003605,240.288635 54.545189,239.953339   C54.943645,239.940826 54.993565,239.992828 55.019547,240.018707   C55.017406,240.328659 55.024151,240.611877 55.096039,241.105392  z"
   id="path108" />
<path
   fill="#211E15"
   opacity="1.000000"
   stroke="none"
   d=" M81.552086,230.454956   C85.085358,231.961105 83.986618,234.451996 82.477890,237.138748   C81.845009,235.161545 81.547409,232.998901 81.552086,230.454956  z"
   id="path110" />
<path
   fill="#E7E6E4"
   opacity="1.000000"
   stroke="none"
   d=" M61.022278,242.023422   C60.723438,242.539658 60.403645,243.034393 60.083855,243.529114   C59.876457,243.347260 59.669060,243.165405 59.461662,242.983551   C59.775341,242.675842 60.089027,242.368134 60.680511,242.010254   C60.958313,241.960068 61.001320,242.001938 61.022278,242.023422  z"
   id="path112" />
<path
   fill="#211E15"
   opacity="1.000000"
   stroke="none"
   d=" M70.128021,236.772217   C69.996063,236.988281 69.569534,236.935562 69.354752,236.942108   C69.192963,236.350601 69.245972,235.752563 69.561264,234.997009   C69.958366,234.967575 70.093163,235.095627 70.421082,235.425247   C70.496132,235.936584 70.378059,236.246353 70.128021,236.772217  z"
   id="path114" />
<path
   fill="#E7E6E4"
   opacity="1.000000"
   stroke="none"
   d=" M57.908920,234.913635   C58.041225,234.456894 58.231033,234.050079 58.420845,233.643280   C58.438328,234.019135 58.455811,234.394974 58.279903,234.914062   C58.086510,235.057312 57.966423,234.963593 57.908920,234.913635  z"
   id="path116" />
</svg>
