<?xml version="1.0" encoding="UTF-8" standalone="no"?>
<svg
   version="1.1"
   id="Layer_1"
   x="0px"
   y="0px"
   width="100%"
   viewBox="0 0 400 400"
   enable-background="new 0 0 400 400"
   xml:space="preserve"
   sodipodi:docname="snowflake.svg"
   inkscape:version="1.2.2 (732a01da63, 2022-12-09)"
   xmlns:inkscape="http://www.inkscape.org/namespaces/inkscape"
   xmlns:sodipodi="http://sodipodi.sourceforge.net/DTD/sodipodi-0.dtd"
   xmlns="http://www.w3.org/2000/svg"
   xmlns:svg="http://www.w3.org/2000/svg"><defs
   id="defs29" /><sodipodi:namedview
   id="namedview27"
   pagecolor="#ffffff"
   bordercolor="#000000"
   borderopacity="0.25"
   inkscape:showpageshadow="2"
   inkscape:pageopacity="0.0"
   inkscape:pagecheckerboard="true"
   inkscape:deskcolor="#d1d1d1"
   showgrid="false"
   inkscape:zoom="1.4212846"
   inkscape:cx="34.124059"
   inkscape:cy="219.87151"
   inkscape:window-width="1920"
   inkscape:window-height="991"
   inkscape:window-x="-9"
   inkscape:window-y="-9"
   inkscape:window-maximized="1"
   inkscape:current-layer="Layer_1" />

<path
   fill="#23B4E6"
   opacity="1.000000"
   stroke="none"
   d=" M183.108170,68.024345   C183.107086,91.664307 183.167374,114.809135 183.084686,137.953445   C183.022873,155.251251 167.542557,164.090668 152.440369,155.480606   C130.765488,143.123306 109.119980,130.714218 87.497818,118.264923   C76.340034,111.840660 72.934937,100.422714 78.875259,89.836121   C84.539429,79.741684 96.376335,76.978302 107.462242,83.355354   C119.120270,90.061508 130.674942,96.947350 142.962311,104.158157   C143.103363,102.048645 143.291306,100.518150 143.294510,98.987274   C143.320236,86.665741 143.183182,74.342377 143.351486,62.023067   C143.497208,51.355412 150.260010,43.181885 160.082748,41.296295   C168.749695,39.632572 178.662018,44.960255 181.595459,53.780109   C183.018127,58.057594 182.660034,62.927368 183.108170,68.024345  z"
   id="path4" />
<path
   fill="#23B4E6"
   opacity="1.000000"
   stroke="none"
   d=" M146.628448,193.745605   C148.983292,207.017258 145.486282,214.466156 134.113770,221.035645   C112.797150,233.349533 91.511925,245.718506 70.136353,257.929291   C61.587307,262.812927 51.695724,260.987549 45.773808,253.824875   C39.285183,245.976807 38.989441,235.007645 45.364166,227.701950   C47.177513,225.623795 49.597599,223.946487 52.003803,222.536530   C62.335976,216.482178 72.771797,210.604874 83.155380,204.637894   C84.548264,203.837463 85.858643,202.893448 87.771973,201.648468   C77.235207,195.451996 67.242950,189.577026 57.252308,183.699326   C55.245125,182.518433 53.222233,181.362335 51.243885,180.134705   C41.151653,173.872208 38.124062,162.458450 43.893505,152.500046   C49.428062,142.947067 60.909096,140.018951 71.247269,145.781738   C83.159607,152.422028 94.951012,159.279480 106.785545,166.059006   C117.032410,171.929001 127.448135,177.535141 137.409073,183.856918   C140.998810,186.135178 143.481918,190.157104 146.628448,193.745605  z"
   id="path6" />
<path
   fill="#23B4E6"
   opacity="1.000000"
   stroke="none"
   d=" M284.508057,133.497223   C271.198273,141.131226 258.213257,148.594513 245.183640,155.979080   C231.073120,163.976273 215.969696,155.129181 215.942856,138.837234   C215.900864,113.349808 215.911728,87.862228 215.939667,62.374763   C215.953018,50.186218 224.367783,41.130959 235.647995,41.053082   C246.517349,40.978035 255.432449,49.922848 255.686066,61.706600   C255.947662,73.861717 255.750351,86.026726 255.753647,98.187408   C255.754135,100.003838 255.753708,101.820267 255.753708,104.593971   C257.795624,103.518616 259.206665,102.843018 260.552551,102.056007   C271.183716,95.839462 281.768860,89.543465 292.434570,83.386971   C302.856140,77.371429 314.112854,79.993195 319.750549,89.609123   C325.486511,99.392586 322.492310,111.345963 312.502716,117.349937   C303.375946,122.835365 294.050873,127.990898 284.508057,133.497223  z"
   id="path8" />
<path
   fill="#23B4E6"
   opacity="1.000000"
   stroke="none"
   d=" M183.108139,328.997589   C183.105377,333.329865 183.164536,337.163940 183.087936,340.995300   C182.874939,351.646912 174.780640,360.297577 164.508011,360.921143   C154.446838,361.531830 145.092819,354.262146 143.891312,343.841736   C142.999512,336.107147 143.400940,328.217926 143.323517,320.396606   C143.251526,313.124847 143.308151,305.851868 143.308151,297.652954   C131.513824,304.571686 120.487595,310.993958 109.511108,317.500183   C104.746674,320.324249 100.012711,323.067780 94.145805,322.395599   C85.173248,321.367523 78.478363,315.117676 76.462288,305.842712   C74.723717,297.844452 78.383362,289.555878 86.092003,285.085114   C104.668129,274.311615 123.343323,263.708893 141.977005,253.034607   C145.877304,250.800354 149.752930,248.522430 153.671021,246.319946   C167.006851,238.823380 182.858963,247.681686 183.027298,263.007385   C183.267075,284.835327 183.100876,306.667694 183.108139,328.997589  z"
   id="path10" />
<path
   fill="#22B4E6"
   opacity="1.000000"
   stroke="none"
   d=" M337.620117,185.622070   C328.756378,190.843964 320.201874,195.868729 311.012299,201.266495   C324.036591,208.752106 336.329285,215.687210 348.486664,222.851913   C356.148102,227.367050 359.370697,234.319778 358.164581,243.111954   C357.010559,251.524368 352.188477,257.045654 344.054016,259.433655   C339.046539,260.903656 334.175537,260.173553 329.616150,257.560547   C307.245544,244.739883 284.805695,232.038254 262.521973,219.068375   C247.171677,210.133987 247.390503,191.857574 262.794159,182.986572   C284.127686,170.700546 305.483704,158.453384 326.859131,146.240402   C337.776062,140.002960 349.271667,142.584763 355.126343,152.472107   C361.151031,162.646545 357.756836,173.659225 346.525604,180.351654   C343.667358,182.054810 340.795166,183.734497 337.620117,185.622070  z"
   id="path12" />
<path
   fill="#23B4E6"
   opacity="1.000000"
   stroke="none"
   d=" M255.753632,319.000244   C255.748703,326.493164 255.937622,333.492889 255.694473,340.477600   C255.313782,351.412445 247.576279,359.918182 237.476257,360.891846   C227.886566,361.816315 219.046661,355.596375 216.556747,346.014008   C216.063095,344.114136 215.959564,342.070068 215.956589,340.092072   C215.918671,314.950500 215.888138,289.808716 215.947510,264.667206   C215.988281,247.406921 231.551224,238.445465 246.551544,247.053406   C268.623688,259.719513 290.684631,272.406616 312.655304,285.247314   C320.121887,289.611176 323.370148,296.479553 322.319214,305.063263   C321.255463,313.751251 316.206360,319.295105 307.800873,321.531006   C302.038147,323.063843 296.643768,321.703003 291.550659,318.680145   C279.984985,311.815582 268.362823,305.046112 255.753738,297.645233   C255.753738,305.140686 255.753738,311.820496 255.753632,319.000244  z"
   id="path14" />
<path
   fill="#24B4E6"
   opacity="1.000000"
   stroke="none"
   d=" M178.945435,177.945312   C182.136795,174.753967 185.289764,171.991379 187.964615,168.824905   C191.158463,165.044083 194.924530,163.825638 199.812790,163.909714   C203.978134,163.981354 206.962143,165.155594 209.843491,168.177734   C217.533875,176.243942 225.571548,183.977982 233.415253,191.899429   C239.242798,197.784729 239.202255,205.358658 233.397278,211.184555   C225.411392,219.199249 217.439148,227.227859 209.406723,235.195755   C204.656189,239.908142 194.800735,239.867676 190.053482,235.149170   C181.674805,226.821198 173.319534,218.469406 164.994446,210.087875   C160.768906,205.833694 160.728577,196.310196 164.946228,191.976700   C169.471725,187.326889 174.107620,182.784500 178.945435,177.945312  M205.278488,210.825745   C214.812454,201.294342 214.812454,201.294342 205.339203,191.862488   C205.103638,191.627945 204.870453,191.390961 204.633011,191.158340   C200.103485,186.721039 198.458694,186.727661 193.882843,191.215027   C183.136322,201.753754 183.290314,201.015335 193.621048,211.158966   C198.350861,215.803101 199.624207,215.858368 205.278488,210.825745  z"
   id="path16" />




</svg>
