<?xml version="1.0" encoding="UTF-8" standalone="no"?>
<svg
   version="1.1"
   id="Layer_1"
   x="0px"
   y="0px"
   width="100%"
   viewBox="0 0 225 225"
   enable-background="new 0 0 225 225"
   xml:space="preserve"
   sodipodi:docname="waspmote.svg"
   inkscape:version="1.2.2 (732a01da63, 2022-12-09)"
   xmlns:inkscape="http://www.inkscape.org/namespaces/inkscape"
   xmlns:sodipodi="http://sodipodi.sourceforge.net/DTD/sodipodi-0.dtd"
   xmlns="http://www.w3.org/2000/svg"
   xmlns:svg="http://www.w3.org/2000/svg"><defs
   id="defs145" /><sodipodi:namedview
   id="namedview143"
   pagecolor="#ffffff"
   bordercolor="#000000"
   borderopacity="0.25"
   inkscape:showpageshadow="2"
   inkscape:pageopacity="0.0"
   inkscape:pagecheckerboard="true"
   inkscape:deskcolor="#bcbcbc"
   showgrid="false"
   inkscape:zoom="2.5267282"
   inkscape:cx="183.04304"
   inkscape:cy="82.12201"
   inkscape:window-width="1920"
   inkscape:window-height="991"
   inkscape:window-x="-9"
   inkscape:window-y="-9"
   inkscape:window-maximized="1"
   inkscape:current-layer="Layer_1" />

<path
   fill="#7B0526"
   opacity="1.000000"
   stroke="none"
   d=" M151.421982,65.183418   C153.739502,64.851425 156.057022,64.519432 159.129578,64.106033   C163.927567,63.630459 167.970505,63.236294 172.339645,62.915035   C173.105835,62.937405 173.545822,62.886868 174.429688,62.930084   C190.070419,62.992256 204.256348,66.457092 216.921570,75.181427   C216.939392,75.492577 217.067261,75.748810 217.578491,76.337204   C218.195175,77.236816 218.538559,77.749359 218.881943,78.261902   C218.881943,78.261894 218.845703,78.675041 218.922302,79.222229   C218.859009,84.370041 215.769516,86.837975 212.301483,89.032204   C212.301483,89.032204 211.982208,89.349297 211.596893,89.678825   C207.536911,91.689156 203.862228,93.369957 199.898300,95.073425   C199.415771,95.090149 199.222519,95.084221 198.852844,94.795837   C197.530930,93.142952 196.385437,91.772522 195.141647,90.284492   C194.793961,90.752213 194.265091,91.647812 194.146942,91.596558   C171.426453,81.741280 147.540741,77.062881 122.416328,76.490158   C123.340744,74.737389 123.719078,74.020035 124.226379,73.189964   C124.624832,72.894768 124.894325,72.712303 125.163811,72.529831   C128.542328,71.458733 131.920853,70.387627 136.028259,69.168045   C138.679626,68.440010 140.602112,67.860458 142.524612,67.280907   C142.524612,67.280907 142.824615,67.326782 143.275879,67.233833   C144.830887,66.800804 145.934631,66.460732 147.038361,66.120651   C147.481110,66.085381 147.923859,66.050117 149.012146,65.965744   C150.245789,65.672226 150.833878,65.427818 151.421982,65.183418  z"
   id="path4" />
<path
   fill="#7C0526"
   opacity="1.000000"
   stroke="none"
   d=" M74.020004,64.694611   C76.128014,65.102890 78.236031,65.511162 81.042999,66.146362   C89.864212,68.823128 97.986473,71.272964 106.008804,74.010345   C106.207497,75.167076 106.506111,76.036263 106.838669,77.004272   C100.872658,77.004272 94.937164,77.004272 88.555565,77.001953   C78.269554,78.369476 68.357491,79.377586 58.631371,81.317780   C55.495487,81.943329 52.848824,85.021317 49.606415,86.980682   C48.490566,86.986290 47.746662,86.988602 46.808510,86.748100   C45.406757,87.334900 44.199253,88.164520 42.625572,89.033730   C37.180485,90.679237 32.101562,92.285149 26.658871,93.908920   C21.616678,91.244781 16.938261,88.562767 12.259844,85.880753   C8.919557,79.461601 9.570090,76.875435 15.820281,72.957573   C18.520561,71.264931 20.276030,67.788673 24.778851,68.198997   C41.221081,61.906059 57.545776,62.216164 74.020004,64.694611  z"
   id="path6" />
<path
   fill="#7C0626"
   opacity="1.000000"
   stroke="none"
   d=" M105.692131,134.985855   C105.660637,133.198883 105.629143,131.411911 105.575638,128.792023   C105.466934,125.039948 105.380241,122.120789 105.293549,119.201622   C105.452667,117.419334 105.611786,115.637047 105.830475,112.985580   C105.942497,110.078568 105.994949,108.040726 106.047401,106.002884   C106.047401,106.002884 106.259163,105.655739 106.349457,105.309052   C106.608192,104.649101 106.554192,104.380692 106.277740,104.157127   C106.425110,103.691582 106.572472,103.226044 106.813339,101.989021   C107.619087,97.343887 108.422417,93.483864 109.005196,89.590828   C109.297173,87.640366 109.482086,85.399757 105.839539,85.975006   C104.643929,85.971680 103.848427,85.993820 103.194832,85.699036   C106.863281,80.781158 112.577957,82.860863 116.998322,80.952209   C117.022369,80.989021 117.059143,81.068893 117.195084,81.323906   C117.897049,82.364143 118.463066,83.149376 118.721664,84.057175   C118.983253,86.167511 119.722847,88.124390 120.089561,90.148804   C121.226585,96.425491 122.221855,102.727844 123.272133,109.020241   C123.404907,112.734764 123.537674,116.449287 123.655052,120.839134   C123.721214,122.687027 123.802773,123.859604 123.884338,125.032173   C123.658073,129.396042 123.431816,133.759918 123.138069,138.981979   C123.054199,141.560486 123.037811,143.280823 123.021423,145.001144   C122.799850,146.100937 122.578278,147.200729 122.274643,148.962662   C122.233299,150.091446 122.274017,150.558090 122.314735,151.024734   C122.251831,151.458435 122.188927,151.892136 122.028076,153.051437   C120.995193,161.188553 120.060265,168.600067 119.125336,176.011581   C117.986610,180.795761 116.847885,185.579926 115.709160,190.364090   C114.875015,190.377167 114.040863,190.390228 113.206718,190.403305   C111.878380,183.522934 110.550041,176.642578 109.093582,168.973526   C108.421272,164.429794 107.877090,160.674759 107.332901,156.919708   C107.293808,156.180450 107.254715,155.441208 107.159988,153.921234   C106.793533,150.406998 106.482712,147.673492 106.171890,144.939987   C106.099388,142.586304 106.026886,140.232605 105.938110,137.106277   C105.845261,135.884369 105.768700,135.435120 105.692131,134.985855  z"
   id="path8" />
<path
   fill="#ED050C"
   opacity="1.000000"
   stroke="none"
   d=" M19.981726,118.204964   C19.981726,118.204964 19.579893,117.972641 19.234695,117.706985   C18.240932,117.139214 17.592365,116.837097 16.656200,116.276573   C12.624174,110.972328 13.147367,107.160507 18.139284,103.369576   C21.781797,100.603394 25.448912,97.869614 29.484154,95.161835   C34.231396,95.939590 38.599545,96.676895 43.030518,97.666512   C43.733215,97.930954 44.373081,97.943085 45.416401,97.940697   C46.893524,97.988846 47.967201,98.051506 49.345047,98.387276   C55.699200,98.765961 61.749325,98.925140 67.798950,98.907951   C68.539146,98.905838 69.276649,97.958252 70.378754,97.357071   C71.490494,97.249344 72.238892,97.233383 73.041397,97.495239   C73.442558,98.038147 73.789604,98.303223 74.136658,98.568298   C74.421356,98.043198 74.706047,97.518097 75.330353,96.944336   C76.355087,96.881126 77.040207,96.866577 78.170059,96.900925   C82.080246,95.718979 85.545708,94.488129 89.369553,93.130630   C92.452599,91.892029 95.177277,90.780075 98.044144,90.043671   C98.458565,91.946350 98.730797,93.473465 99.001511,95.000290   C99.000000,95.000000 99.001091,95.002434 98.667679,94.995880   C97.889641,94.992752 97.445023,94.996178 96.965271,94.714310   C96.625923,94.104584 96.321709,93.780151 96.017487,93.455719   C95.834335,93.665321 95.651184,93.874924 95.468033,94.084534   C95.978561,94.389824 96.489082,94.695114 96.996613,95.288940   C96.989563,95.962181 96.985504,96.346870 96.885712,96.899918   C96.789970,97.068268 96.410492,97.145920 96.048615,97.126663   C95.133720,97.750526 94.580719,98.393654 94.014343,99.017914   C94.000969,98.999054 94.036560,99.029327 93.736305,99.041801   C92.952522,99.597198 92.468994,100.140121 91.792343,100.914375   C91.100174,101.445335 90.601143,101.744972 89.812973,101.931343   C88.040031,102.934883 86.556221,104.051689 85.073395,105.123352   C85.074387,105.078201 85.155602,105.117714 84.822510,105.102852   C84.051323,105.498932 83.613235,105.909882 83.160202,106.263168   C83.145248,106.205513 83.251930,106.258537 82.912498,106.201904   C82.120567,106.549934 81.668068,106.954605 81.199730,107.295425   C81.183891,107.231590 81.300774,107.291969 80.924423,107.230835   C77.419174,108.895180 74.290283,110.620659 71.137146,112.286926   C71.112907,112.227699 71.238670,112.251411 70.917511,112.185272   C70.065193,112.419960 69.534035,112.720795 68.817398,113.294235   C67.427299,114.108932 66.222702,114.651016 64.803368,115.150314   C64.264664,115.104385 64.020828,115.242599 63.528290,115.564758   C62.796329,115.786057 62.393208,115.964760 61.680164,116.113129   C60.827690,116.349777 60.285133,116.616768 59.542778,116.861610   C59.342979,116.839462 59.010040,117.064842 58.656452,117.036469   C57.203770,117.389244 56.104671,117.770393 55.005577,118.151543   C53.879017,118.349136 52.752457,118.546722 50.974854,118.844749   C49.881039,119.067886 49.438259,119.190582 48.995483,119.313278   C48.170330,119.406006 47.345181,119.498726 46.035004,119.652611   C45.303616,119.690590 45.150459,119.799194 45.090515,120.039581   C45.090515,120.039581 45.035812,119.996674 44.602791,119.960052   C42.815060,120.168434 41.460350,120.413429 40.105640,120.658417   C37.342545,120.614334 34.579445,120.570259 31.158409,120.502686   C30.500471,120.479195 30.061844,120.698402 30.061844,120.698402   C29.609650,120.571953 29.157454,120.445511 28.041798,120.166794   C26.914858,120.029716 26.451382,120.044907 25.987906,120.060089   C25.987906,120.060097 25.518738,119.896431 25.030457,119.691284   C23.688282,119.337662 22.834389,119.189201 21.980494,119.040733   C21.980494,119.040733 21.722115,118.800537 21.395786,118.563232   C20.706881,118.285614 20.344303,118.245293 19.981726,118.204964  z"
   id="path10" />

<path
   fill="#7B0B28"
   opacity="1.000000"
   stroke="none"
   d=" M105.025917,66.957237   C104.736862,60.778614 108.026787,56.312737 112.094513,52.229340   C114.786247,49.527229 116.859985,49.422646 117.998291,53.612545   C118.131516,54.102905 118.872818,54.428059 119.684479,55.199028   C120.325745,55.785347 120.614777,56.002434 120.903809,56.219521   C121.136208,56.699718 121.368599,57.179920 121.853653,58.201393   C122.681534,61.788563 123.256767,64.834457 123.832001,67.880348   C123.832001,67.880348 123.991295,67.933762 123.632256,68.115578   C117.867241,72.893265 108.842644,72.230461 105.025917,66.957237  z"
   id="path14" />












<path
   fill="#DE0A13"
   opacity="1.000000"
   stroke="none"
   d=" M79.220474,109.967575   C76.659073,110.870430 74.302277,111.644531 71.553436,112.382385   C74.290283,110.620659 77.419174,108.895180 80.924423,107.230835   C80.874992,107.908546 80.449219,108.525131 79.956352,109.422684   C79.889267,109.703667 79.425064,109.838814 79.220474,109.967575  z"
   id="path40" />
<path
   fill="#F7F3F2"
   opacity="1.000000"
   stroke="none"
   d=" M105.860107,145.189743   C106.482712,147.673492 106.793533,150.406998 107.035416,153.569855   C106.493767,151.145966 106.021049,148.292725 105.860107,145.189743  z"
   id="path42" />

<path
   fill="#F7F3F2"
   opacity="1.000000"
   stroke="none"
   d=" M105.160545,119.545746   C105.380241,122.120789 105.466934,125.039948 105.414062,128.374359   C105.192177,125.823021 105.109863,122.856453 105.160545,119.545746  z"
   id="path46" />
<path
   fill="#F7F3F2"
   opacity="1.000000"
   stroke="none"
   d=" M105.712166,106.052322   C105.994949,108.040726 105.942497,110.078568 105.775871,112.538727   C105.566780,110.674614 105.471855,108.388184 105.712166,106.052322  z"
   id="path48" />

<path
   fill="#F2E9EB"
   opacity="1.000000"
   stroke="none"
   d=" M146.823181,65.838539   C145.934631,66.460732 144.830887,66.800804 143.369751,67.114578   C144.210892,66.577667 145.409439,66.067047 146.823181,65.838539  z"
   id="path52" />
<path
   fill="#EEE1E3"
   opacity="1.000000"
   stroke="none"
   d=" M124.159515,124.823090   C123.802773,123.859604 123.721214,122.687027 123.763184,121.242599   C124.069366,122.185158 124.252029,123.399574 124.159515,124.823090  z"
   id="path54" />

<path
   fill="#EEE1E3"
   opacity="1.000000"
   stroke="none"
   d=" M123.284470,144.757507   C123.037811,143.280823 123.054199,141.560486 123.182007,139.423462   C123.378120,140.842468 123.462814,142.678162 123.284470,144.757507  z"
   id="path58" />
<path
   fill="#F6DBD7"
   opacity="1.000000"
   stroke="none"
   d=" M22.031345,119.361954   C22.834389,119.189201 23.688282,119.337662 24.783184,119.715431   C24.043528,119.857544 23.062862,119.770355 22.031345,119.361954  z"
   id="path60" />
<path
   fill="#F6DBD7"
   opacity="1.000000"
   stroke="none"
   d=" M40.397079,120.816963   C41.460350,120.413429 42.815060,120.168434 44.582985,119.988625   C43.560307,120.361046 42.124413,120.668274 40.397079,120.816963  z"
   id="path62" />
<path
   fill="#F5ECEE"
   opacity="1.000000"
   stroke="none"
   d=" M122.575935,150.983917   C122.274017,150.558090 122.233299,150.091446 122.325317,149.295578   C122.584412,149.625275 122.710777,150.284195 122.575935,150.983917  z"
   id="path64" />
<path
   fill="#F7F3F2"
   opacity="1.000000"
   stroke="none"
   d=" M105.422211,135.033875   C105.768700,135.435120 105.845261,135.884369 105.853592,136.671936   C105.574333,136.367447 105.363312,135.724670 105.422211,135.033875  z"
   id="path66" />

<path
   fill="#F6DBD7"
   opacity="1.000000"
   stroke="none"
   d=" M18.328323,118.132721   C17.715803,117.800819 17.370785,117.422699 16.984783,116.789780   C17.592365,116.837097 18.240932,117.139214 19.003376,117.688263   C18.943443,117.985619 18.769634,118.036057 18.328323,118.132721  z"
   id="path70" />
<path
   fill="#F6DBD7"
   opacity="1.000000"
   stroke="none"
   d=" M49.170780,119.499855   C49.438259,119.190582 49.881039,119.067886 50.667725,119.003021   C50.456451,119.269371 49.901264,119.477898 49.170780,119.499855  z"
   id="path72" />
<path
   fill="#F6DBD7"
   opacity="1.000000"
   stroke="none"
   d=" M26.125172,120.274529   C26.451382,120.044907 26.914858,120.029716 27.687569,120.184990   C27.418680,120.399956 26.840557,120.444458 26.125172,120.274529  z"
   id="path74" />
<path
   fill="#F3EDED"
   opacity="1.000000"
   stroke="none"
   d=" M218.909134,77.916367   C218.538559,77.749359 218.195175,77.236816 217.783325,76.416557   C218.122009,76.596169 218.529175,77.083504 218.909134,77.916367  z"
   id="path76" />
<path
   fill="#F2E9EB"
   opacity="1.000000"
   stroke="none"
   d=" M151.092346,65.119370   C150.833878,65.427818 150.245789,65.672226 149.330994,65.864769   C149.590439,65.560379 150.176590,65.307854 151.092346,65.119370  z"
   id="path78" />
<path
   fill="#F6DBD7"
   opacity="1.000000"
   stroke="none"
   d=" M30.139645,120.809921   C30.061844,120.698402 30.500471,120.479195 30.709639,120.607117   C30.918806,120.735031 30.610956,120.972015 30.610956,120.972015   C30.610956,120.972015 30.217445,120.921432 30.139645,120.809921  z"
   id="path80" />
<path
   fill="#F3EAEB"
   opacity="1.000000"
   stroke="none"
   d=" M120.851227,55.951550   C120.614777,56.002434 120.325745,55.785347 120.002525,55.292389   C120.245102,55.238873 120.521881,55.461224 120.851227,55.951550  z"
   id="path82" />
<path
   fill="#F7F3F2"
   opacity="1.000000"
   stroke="none"
   d=" M106.181320,104.328171   C106.554192,104.380692 106.608192,104.649101 106.279709,105.118073   C106.015472,105.019737 106.003883,104.761543 106.181320,104.328171  z"
   id="path84" />
<path
   fill="#F6DBD7"
   opacity="1.000000"
   stroke="none"
   d=" M45.205433,120.096649   C45.150459,119.799194 45.303616,119.690590 45.654190,119.824982   C45.658497,120.101517 45.512482,120.174026 45.205433,120.096649  z"
   id="path86" />
<path
   fill="#F6DBD7"
   opacity="1.000000"
   stroke="none"
   d=" M20.152428,118.419815   C20.344303,118.245293 20.706881,118.285614 21.219400,118.564430   C21.020605,118.746834 20.671865,118.690750 20.152428,118.419815  z"
   id="path88" />
<path
   fill="#EC050C"
   opacity="1.000000"
   stroke="none"
   d=" M209.052826,101.508667   C210.379959,102.695045 211.403824,103.733269 212.723511,104.877403   C216.338776,111.791534 218.148270,113.676346 205.170563,119.469887   C181.069534,122.359734 159.618515,116.002419 140.034210,102.558502   C138.152069,101.266479 136.216354,100.052528 134.110077,98.164070   C131.801331,95.889053 129.688004,94.252296 127.574684,92.615547   C127.574684,92.615547 127.438934,92.503845 127.641953,92.144791   C128.234879,90.829224 128.624786,89.872704 129.339783,88.970161   C130.097244,89.100067 130.529617,89.176003 131.012985,89.548813   C132.037796,90.243301 133.011627,90.640900 134.362152,91.060692   C155.737793,99.353020 177.211395,99.985451 199.029282,95.078300   C199.222519,95.084221 199.415771,95.090149 199.898300,95.073425   C203.041550,97.154015 205.895538,99.257256 209.052826,101.508667  z"
   id="path90" />
<path
   fill="#6B0419"
   opacity="1.000000"
   stroke="none"
   d=" M130.962006,89.251930   C130.529617,89.176003 130.097244,89.100067 129.275543,88.637085   C124.943855,85.856316 121.001503,83.462601 117.059143,81.068893   C117.059143,81.068893 117.022369,80.989021 117.004967,80.735001   C116.987564,80.480988 116.986366,80.044731 116.977669,79.734131   C116.656563,78.667473 116.344154,77.911423 116.031738,77.155373   C118.453217,75.898743 120.874702,74.642120 123.696800,73.344093   C123.719078,74.020035 123.340744,74.737389 122.416328,76.490158   C147.540741,77.062881 171.426453,81.741280 194.146942,91.596558   C194.265091,91.647812 194.793961,90.752213 195.141647,90.284492   C196.385437,91.772522 197.530930,93.142952 198.852844,94.795837   C177.211395,99.985451 155.737793,99.353020 134.214905,90.777214   C132.781326,90.065010 131.871674,89.658470 130.962006,89.251930  z"
   id="path92" />

<path
   fill="#6B0418"
   opacity="1.000000"
   stroke="none"
   d=" M116.986366,80.044731   C116.986366,80.044731 116.987564,80.480988 116.980911,80.698196   C112.577957,82.860863 106.863281,80.781158 102.924820,85.890076   C100.975922,87.488060 99.438942,88.578094 97.901955,89.668121   C95.177277,90.780075 92.452599,91.892029 88.997749,93.115730   C84.753494,94.435654 81.239410,95.643845 77.725334,96.852020   C77.040207,96.866577 76.355087,96.881126 74.990677,96.918152   C73.870018,97.032890 73.428658,97.125153 72.987289,97.217422   C72.238892,97.233383 71.490494,97.249344 69.958244,97.241196   C62.463219,97.516113 55.752048,97.815140 49.040874,98.114166   C47.967201,98.051506 46.893524,97.988846 45.229721,97.715668   C44.082291,97.474838 43.524990,97.444519 42.967693,97.414192   C38.599545,96.676895 34.231396,95.939590 29.484150,95.161835   C28.590881,94.803635 28.076712,94.485886 27.292593,94.029594   C32.101562,92.285149 37.180485,90.679237 42.975872,89.033554   C44.795811,88.326149 45.899281,87.658531 47.002754,86.990913   C47.746662,86.988602 48.490566,86.986290 49.979939,86.950394   C59.473671,84.943344 68.252701,83.094231 76.956688,80.941719   C81.046150,79.930382 84.991188,78.334984 89.001671,77.004272   C94.937164,77.004272 100.872658,77.004272 106.838669,77.004272   C106.506111,76.036263 106.207497,75.167076 106.008804,74.010345   C108.337997,74.563965 110.567261,75.405113 112.879623,76.894455   C112.479736,78.391930 111.996765,79.241226 111.539841,80.044731   C113.513428,80.044731 115.249901,80.044731 116.986366,80.044731  z"
   id="path96" />
<path
   fill="#6F021E"
   opacity="1.000000"
   stroke="none"
   d=" M88.555565,77.001953   C84.991188,78.334984 81.046150,79.930382 76.956688,80.941719   C68.252701,83.094231 59.473671,84.943344 50.351883,86.947105   C52.848824,85.021317 55.495487,81.943329 58.631371,81.317780   C68.357491,79.377586 78.269554,78.369476 88.555565,77.001953  z"
   id="path98" />
<path
   fill="#6F021E"
   opacity="1.000000"
   stroke="none"
   d=" M46.808510,86.748100   C45.899281,87.658531 44.795811,88.326149 43.342041,88.993958   C44.199253,88.164520 45.406757,87.334900 46.808510,86.748100  z"
   id="path100" />
<path
   fill="#D31821"
   opacity="1.000000"
   stroke="none"
   d=" M117.195084,81.323906   C121.001503,83.462601 124.943855,85.856316 128.950455,88.583099   C128.624786,89.872704 128.234879,90.829224 127.580284,92.082153   C124.749359,89.670898 122.183121,86.963234 119.322983,84.095085   C118.463066,83.149376 117.897049,82.364143 117.195084,81.323906  z"
   id="path102" />
<path
   fill="#DE0A13"
   opacity="1.000000"
   stroke="none"
   d=" M98.044144,90.043678   C99.438942,88.578094 100.975922,87.488060 102.782913,86.206985   C103.848427,85.993820 104.643929,85.971680 105.839539,85.975006   C104.043137,88.928040 101.846619,91.855614 99.326569,94.891891   C98.730797,93.473465 98.458565,91.946350 98.044144,90.043678  z"
   id="path104" />
<path
   fill="#DE0A13"
   opacity="1.000000"
   stroke="none"
   d=" M49.345047,98.387276   C55.752048,97.815140 62.463219,97.516113 69.594894,97.332954   C69.276649,97.958252 68.539146,98.905838 67.798950,98.907951   C61.749325,98.925140 55.699200,98.765961 49.345047,98.387276  z"
   id="path106" />
<path
   fill="#DE0A13"
   opacity="1.000000"
   stroke="none"
   d=" M78.170059,96.900925   C81.239410,95.643845 84.753494,94.435654 88.639374,93.242371   C85.545708,94.488129 82.080246,95.718979 78.170059,96.900925  z"
   id="path108" />
<path
   fill="#DE0A13"
   opacity="1.000000"
   stroke="none"
   d=" M89.812973,101.931335   C88.649559,103.060303 87.197014,104.075996 85.408440,105.130096   C86.556221,104.051689 88.040031,102.934883 89.812973,101.931335  z"
   id="path110" />
<path
   fill="#DE0A13"
   opacity="1.000000"
   stroke="none"
   d=" M73.041397,97.495239   C73.428658,97.125153 73.870018,97.032890 74.651062,96.966812   C74.706047,97.518097 74.421356,98.043198 74.136658,98.568298   C73.789604,98.303223 73.442558,98.038147 73.041397,97.495239  z"
   id="path112" />
<path
   fill="#DE0A13"
   opacity="1.000000"
   stroke="none"
   d=" M96.999603,95.000397   C96.489082,94.695114 95.978561,94.389824 95.468033,94.084534   C95.651184,93.874924 95.834335,93.665321 96.017487,93.455719   C96.321709,93.780151 96.625923,94.104584 96.965073,94.714508   C97.000000,95.000000 96.999603,95.000397 96.999603,95.000397  z"
   id="path114" />
<path
   fill="#DE0A13"
   opacity="1.000000"
   stroke="none"
   d=" M43.030518,97.666512   C43.524990,97.444519 44.082291,97.474838 44.826271,97.730179   C44.373081,97.943085 43.733215,97.930954 43.030518,97.666512  z"
   id="path116" />
<path
   fill="#DE0A13"
   opacity="1.000000"
   stroke="none"
   d=" M96.048615,97.126663   C95.821678,97.730881 95.232857,98.315842 94.335876,98.968796   C94.580719,98.393654 95.133720,97.750526 96.048615,97.126663  z"
   id="path118" />
<path
   fill="#DE0A13"
   opacity="1.000000"
   stroke="none"
   d=" M98.667679,94.995880   C98.506874,95.527145 98.012657,96.051857 97.249939,96.654068   C96.985504,96.346870 96.989563,95.962181 96.996613,95.288940   C96.999603,95.000397 97.000000,95.000000 97.000198,94.999802   C97.445023,94.996178 97.889641,94.992752 98.667679,94.995880  z"
   id="path120" />
<path
   fill="#DE0A13"
   opacity="1.000000"
   stroke="none"
   d=" M93.736313,99.041801   C93.534035,99.544731 93.031502,100.060127 92.257225,100.629288   C92.468994,100.140121 92.952522,99.597198 93.736313,99.041801  z"
   id="path122" />
<path
   fill="#F5E2DE"
   opacity="1.000000"
   stroke="none"
   d=" M64.803368,115.150314   C64.678932,115.454910 64.339760,115.716721 63.928856,115.750351   C64.020828,115.242599 64.264664,115.104385 64.803368,115.150314  z"
   id="path124" />
<path
   fill="#DE0A13"
   opacity="1.000000"
   stroke="none"
   d=" M70.917511,112.185272   C70.702560,112.499657 70.166443,112.747894 69.316605,113.008881   C69.534035,112.720795 70.065193,112.419960 70.917511,112.185272  z"
   id="path126" />
<path
   fill="#F5E2DE"
   opacity="1.000000"
   stroke="none"
   d=" M61.680168,116.113129   C61.451851,116.419014 60.913609,116.694550 60.058975,116.926926   C60.285133,116.616768 60.827690,116.349777 61.680168,116.113129  z"
   id="path128" />
<path
   fill="#DE0A13"
   opacity="1.000000"
   stroke="none"
   d=" M82.912498,106.201897   C82.778397,106.612289 82.304863,106.966042 81.523453,107.339531   C81.668068,106.954605 82.120567,106.549934 82.912498,106.201897  z"
   id="path130" />
<path
   fill="#DE0A13"
   opacity="1.000000"
   stroke="none"
   d=" M84.822510,105.102852   C84.697212,105.494431 84.238831,105.871147 83.477798,106.284348   C83.613235,105.909882 84.051323,105.498932 84.822510,105.102852  z"
   id="path132" />
<path
   fill="#D31821"
   opacity="1.000000"
   stroke="none"
   d=" M127.742905,92.880814   C129.688004,94.252296 131.801331,95.889053 133.920212,97.892281   C131.920898,96.554535 129.916000,94.850311 127.742905,92.880814  z"
   id="path134" />
<path
   fill="#FFFFFF"
   opacity="1.000000"
   stroke="none"
   d=" M11.258764,112.643951   C11.006824,112.629456 10.869678,112.495262 10.732533,112.361061   C10.946210,112.415451 11.159883,112.469849 11.258764,112.643951  z"
   id="path136" />
<path
   fill="#7C0626"
   opacity="1.000000"
   stroke="none"
   d=" M116.977669,79.734131   C115.249901,80.044731 113.513428,80.044731 111.539841,80.044731   C111.996765,79.241226 112.479736,78.391930 113.011734,77.227203   C113.805573,76.949043 114.550400,76.986298 115.663483,77.089462   C116.344154,77.911423 116.656563,78.667473 116.977669,79.734131  z"
   id="path138" />
<path
   fill="#D31821"
   opacity="1.000000"
   stroke="none"
   d=" M131.012985,89.548813   C131.871674,89.658470 132.781326,90.065010 133.838226,90.755028   C133.011627,90.640900 132.037796,90.243301 131.012985,89.548813  z"
   id="path140" />
</svg>
