<?xml version="1.0" encoding="UTF-8" standalone="no"?>
<!-- Generator: Adobe Illustrator 28.0.0, SVG Export Plug-In . SVG Version: 6.00 Build 0)  -->

<svg
   version="1.1"
   x="0px"
   y="0px"
   viewBox="0 0 97.28 123.17"
   style="enable-background:new 0 0 97.28 123.17;"
   xml:space="preserve"
   id="svg161"
   sodipodi:docname="logoDoctorado.svg"
   inkscape:version="1.2.2 (732a01da63, 2022-12-09)"
   xmlns:inkscape="http://www.inkscape.org/namespaces/inkscape"
   xmlns:sodipodi="http://sodipodi.sourceforge.net/DTD/sodipodi-0.dtd"
   xmlns="http://www.w3.org/2000/svg"
   xmlns:svg="http://www.w3.org/2000/svg"><defs
   id="defs165" /><sodipodi:namedview
   id="namedview163"
   pagecolor="#ffffff"
   bordercolor="#000000"
   borderopacity="0.25"
   inkscape:showpageshadow="2"
   inkscape:pageopacity="0.0"
   inkscape:pagecheckerboard="0"
   inkscape:deskcolor="#d1d1d1"
   showgrid="false"
   inkscape:zoom="6.5275636"
   inkscape:cx="31.328687"
   inkscape:cy="61.661597"
   inkscape:window-width="1920"
   inkscape:window-height="991"
   inkscape:window-x="-9"
   inkscape:window-y="-9"
   inkscape:window-maximized="1"
   inkscape:current-layer="text152" />
<style
   type="text/css"
   id="style2">
	.st0{fill:#0067A2;}
	.st1{display:none;}
	.st2{display:inline;fill-rule:evenodd;clip-rule:evenodd;fill:none;stroke:#000000;stroke-width:0.216;stroke-miterlimit:22.9256;}
	.st3{display:inline;}
	.st4{fill:#DADADA;}
	.st5{fill:none;stroke:#C6C6C6;stroke-width:0.216;stroke-miterlimit:22.9256;}
	.st6{fill:none;stroke:#B2B2B2;stroke-width:0.216;stroke-miterlimit:22.9256;}
	.st7{fill:none;stroke:#009FE3;stroke-width:0.216;stroke-miterlimit:22.9256;}
	.st8{fill:none;stroke:#EF7D00;stroke-width:0.216;stroke-miterlimit:22.9256;}
	.st9{fill:none;stroke:#F59A00;stroke-width:0.216;stroke-miterlimit:22.9256;}
	.st10{fill:none;stroke:#E30613;stroke-width:0.216;stroke-miterlimit:22.9256;}
	.st11{fill:none;stroke:#009640;stroke-width:0.216;stroke-miterlimit:22.9256;}
	
		.st12{display:inline;fill-rule:evenodd;clip-rule:evenodd;fill:none;stroke:#F59A00;stroke-width:0.216;stroke-miterlimit:22.9256;}
	
		.st13{display:inline;fill-rule:evenodd;clip-rule:evenodd;fill:none;stroke:#C6C6C6;stroke-width:0.216;stroke-miterlimit:22.9256;}
	
		.st14{display:inline;fill-rule:evenodd;clip-rule:evenodd;fill:none;stroke:#B2B2B2;stroke-width:0.216;stroke-miterlimit:22.9256;}
	
		.st15{display:inline;fill-rule:evenodd;clip-rule:evenodd;fill:none;stroke:#E30613;stroke-width:0.216;stroke-miterlimit:22.9256;}
	.st16{display:inline;fill:#DADADA;}
	.st17{display:inline;fill-rule:evenodd;clip-rule:evenodd;fill:#009640;}
	.st18{display:inline;fill:none;stroke:#F59A00;stroke-width:0.216;stroke-miterlimit:22.9256;}
	.st19{display:inline;fill:none;stroke:#EF7D00;stroke-width:0.216;stroke-miterlimit:22.9256;}
	.st20{display:inline;fill:none;stroke:#E30613;stroke-width:0.216;stroke-miterlimit:22.9256;}
	
		.st21{display:inline;fill-rule:evenodd;clip-rule:evenodd;fill:none;stroke:#009FE3;stroke-width:0.216;stroke-miterlimit:22.9256;}
	.st22{display:inline;fill-rule:evenodd;clip-rule:evenodd;fill:#F59A00;}
	.st23{display:inline;fill:none;stroke:#009FE3;stroke-width:0.216;stroke-miterlimit:22.9256;}
	.st24{fill-rule:evenodd;clip-rule:evenodd;fill:none;stroke:#B2B2B2;stroke-width:0.216;stroke-miterlimit:22.9256;}
	.st25{fill-rule:evenodd;clip-rule:evenodd;fill:none;stroke:#009FE3;stroke-width:0.216;stroke-miterlimit:22.9256;}
	.st26{fill-rule:evenodd;clip-rule:evenodd;fill:#009640;}
	.st27{fill:#F59A00;}
	.st28{fill-rule:evenodd;clip-rule:evenodd;fill:#0067A2;}
	.st29{fill-rule:evenodd;clip-rule:evenodd;fill:#F59A00;}
	.st30{fill-rule:evenodd;clip-rule:evenodd;fill:#FFFFFF;}
	.st31{fill:#FFFFFF;}
	.st32{font-family:'Rubik-Medium';}
	.st33{font-size:12.1405px;}
	.st34{font-family:'Rubik-Bold';}
</style>
<g
   id="Capa_3">
</g>
<g
   id="Capa_2"
   class="st1">
	<path
   class="st16"
   d="M89.59,53.04c0-1.1,0.28-1.96,0.84-2.57c0.56-0.61,1.41-0.91,2.54-0.91h4.95c0.09,0,0.16,0.03,0.22,0.08   c0.06,0.05,0.08,0.12,0.08,0.21v1.12c0,0.09-0.03,0.16-0.08,0.22c-0.06,0.06-0.13,0.09-0.22,0.09h-4.95   c-0.64,0-1.12,0.15-1.45,0.46c-0.32,0.3-0.49,0.74-0.49,1.3c0,0.56,0.16,0.99,0.49,1.3c0.32,0.3,0.81,0.46,1.45,0.46h4.95   c0.09,0,0.16,0.03,0.22,0.09c0.06,0.06,0.08,0.13,0.08,0.22v1.12c0,0.09-0.03,0.16-0.08,0.21c-0.06,0.05-0.13,0.08-0.22,0.08h-4.95   c-1.14,0-1.98-0.3-2.54-0.91C89.87,54.98,89.59,54.13,89.59,53.04z"
   id="path5" />
	<path
   class="st16"
   d="M89.59,68.54c0-1.1,0.28-1.96,0.84-2.57c0.56-0.61,1.41-0.91,2.54-0.91h4.95c0.09,0,0.16,0.03,0.22,0.08   c0.06,0.05,0.09,0.12,0.09,0.21v1.12c0,0.09-0.03,0.16-0.09,0.22c-0.06,0.06-0.13,0.09-0.22,0.09h-4.95   c-0.64,0-1.12,0.15-1.45,0.46c-0.32,0.3-0.49,0.74-0.49,1.3c0,0.56,0.16,0.99,0.49,1.3c0.32,0.3,0.81,0.46,1.45,0.46h4.95   c0.09,0,0.16,0.03,0.22,0.09c0.06,0.06,0.09,0.13,0.09,0.22v1.12c0,0.09-0.03,0.16-0.09,0.21c-0.06,0.05-0.13,0.08-0.22,0.08h-4.95   c-1.14,0-1.98-0.3-2.54-0.91C89.87,70.48,89.59,69.63,89.59,68.54z"
   id="path7" />
	<path
   class="st16"
   d="M89.59,75.45c0,1.1,0.28,1.96,0.84,2.57c0.56,0.61,1.41,0.91,2.54,0.91h4.95c0.09,0,0.16-0.03,0.22-0.08   c0.06-0.05,0.08-0.12,0.08-0.21v-1.12c0-0.09-0.03-0.16-0.08-0.22c-0.06-0.06-0.13-0.09-0.22-0.09h-4.95   c-0.64,0-1.12-0.15-1.45-0.46c-0.32-0.3-0.49-0.74-0.49-1.3c0-0.56,0.16-0.99,0.49-1.3c0.32-0.3,0.81-0.46,1.45-0.46h4.95   c0.09,0,0.16-0.03,0.22-0.09c0.06-0.06,0.08-0.13,0.08-0.22v-1.12c0-0.09-0.03-0.16-0.08-0.21c-0.06-0.05-0.13-0.08-0.22-0.08   h-4.95c-1.14,0-1.98,0.3-2.54,0.91C89.87,73.51,89.59,74.36,89.59,75.45z"
   id="path9" />
	<path
   class="st16"
   d="M89.59,82.41c0-1.1,0.28-1.96,0.84-2.57c0.56-0.61,1.41-0.91,2.54-0.91h4.95c0.09,0,0.16,0.03,0.22,0.08   c0.06,0.05,0.08,0.12,0.08,0.21v1.12c0,0.09-0.03,0.16-0.08,0.22c-0.06,0.06-0.13,0.09-0.22,0.09h-4.95   c-0.64,0-1.12,0.15-1.45,0.46c-0.32,0.3-0.49,0.74-0.49,1.3c0,0.56,0.16,0.99,0.49,1.3c0.32,0.3,0.81,0.46,1.45,0.46h4.95   c0.09,0,0.16,0.03,0.22,0.09c0.06,0.06,0.08,0.13,0.08,0.22v1.12c0,0.09-0.03,0.16-0.08,0.21c-0.06,0.05-0.13,0.08-0.22,0.08h-4.95   c-1.14,0-1.98-0.3-2.54-0.91C89.87,84.36,89.59,83.51,89.59,82.41z"
   id="path11" />
	<g
   class="st3"
   id="g17">
		<path
   class="st4"
   d="M37.21,8.7c-1.1,0-1.95-0.28-2.56-0.84c-0.61-0.56-0.91-1.4-0.91-2.54V0.38c0-0.09,0.03-0.16,0.08-0.22    c0.05-0.06,0.12-0.09,0.21-0.09h1.12c0.09,0,0.16,0.03,0.22,0.09c0.06,0.06,0.09,0.13,0.09,0.22v4.94c0,0.64,0.15,1.12,0.46,1.44    s0.73,0.49,1.29,0.49c0.56,0,0.99-0.16,1.29-0.49s0.46-0.81,0.46-1.44V0.38c0-0.09,0.03-0.16,0.08-0.22    c0.06-0.06,0.13-0.09,0.22-0.09h1.12c0.09,0,0.16,0.03,0.21,0.09c0.05,0.06,0.08,0.13,0.08,0.22v4.94c0,1.13-0.3,1.98-0.9,2.54    C39.15,8.42,38.3,8.7,37.21,8.7z"
   id="path13" />
		<path
   class="st4"
   d="M37.21,8.7c-1.1,0-1.95,0.28-2.56,0.84c-0.61,0.56-0.91,1.4-0.91,2.54v4.94c0,0.09,0.03,0.16,0.08,0.22    c0.05,0.06,0.12,0.08,0.21,0.08h1.12c0.09,0,0.16-0.03,0.22-0.08c0.06-0.06,0.09-0.13,0.09-0.22v-4.94c0-0.64,0.15-1.12,0.46-1.44    s0.73-0.49,1.29-0.49c0.56,0,0.99,0.16,1.29,0.49s0.46,0.81,0.46,1.44v4.94c0,0.09,0.03,0.16,0.08,0.22    c0.06,0.06,0.13,0.08,0.22,0.08h1.12c0.09,0,0.16-0.03,0.21-0.08c0.05-0.06,0.08-0.13,0.08-0.22v-4.94c0-1.13-0.3-1.98-0.9-2.54    C39.15,8.98,38.3,8.7,37.21,8.7z"
   id="path15" />
	</g>
	<line
   class="st18"
   x1="0.14"
   y1="101.41"
   x2="176.54"
   y2="101.41"
   id="line19" />
	<line
   class="st18"
   x1="0.14"
   y1="94.47"
   x2="106.87"
   y2="94.47"
   id="line21" />
	<g
   class="st3"
   id="g39">
		<line
   class="st9"
   x1="0.14"
   y1="71.99"
   x2="176.54"
   y2="71.99"
   id="line23" />
		<line
   class="st9"
   x1="0.14"
   y1="65.06"
   x2="176.54"
   y2="65.06"
   id="line25" />
		<line
   class="st9"
   x1="0.14"
   y1="49.56"
   x2="176.54"
   y2="49.56"
   id="line27" />
		<line
   class="st9"
   x1="0.14"
   y1="56.49"
   x2="176.54"
   y2="56.49"
   id="line29" />
		<line
   class="st9"
   x1="0.14"
   y1="78.93"
   x2="176.54"
   y2="78.93"
   id="line31" />
		<line
   class="st10"
   x1="0.14"
   y1="85.87"
   x2="176.54"
   y2="85.87"
   id="line33" />
		<line
   class="st8"
   x1="0.14"
   y1="17.43"
   x2="176.54"
   y2="17.43"
   id="line35" />
		<line
   class="st8"
   x1="0.14"
   y1="0.08"
   x2="176.54"
   y2="0.08"
   id="line37" />
	</g>
	<line
   class="st20"
   x1="0.14"
   y1="106.36"
   x2="176.54"
   y2="106.36"
   id="line41" />
	<line
   class="st23"
   x1="0.14"
   y1="113.3"
   x2="176.54"
   y2="113.3"
   id="line43" />
	<line
   class="st23"
   x1="0.14"
   y1="113.35"
   x2="176.63"
   y2="113.35"
   id="line45" />
	<line
   class="st23"
   x1="0.14"
   y1="113.34"
   x2="176.63"
   y2="113.34"
   id="line47" />
	<line
   class="st18"
   x1="0.14"
   y1="113.3"
   x2="176.63"
   y2="113.3"
   id="line49" />
	<line
   class="st18"
   x1="0.14"
   y1="109.83"
   x2="176.63"
   y2="109.83"
   id="line51" />
	<line
   class="st20"
   x1="0.17"
   y1="118.12"
   x2="176.66"
   y2="118.12"
   id="line53" />
	<line
   class="st18"
   x1="0.17"
   y1="121.59"
   x2="176.66"
   y2="121.59"
   id="line55" />
	<g
   class="st3"
   id="g99">
		<path
   class="st4"
   d="M0.14,68.51c0,1.1,0.28,1.96,0.84,2.57c0.56,0.61,1.41,0.91,2.54,0.91h4.95c0.09,0,0.16-0.03,0.22-0.08    c0.06-0.05,0.09-0.12,0.09-0.21v-1.12c0-0.09-0.03-0.16-0.09-0.22c-0.06-0.06-0.13-0.09-0.22-0.09H3.53    c-0.64,0-1.12-0.15-1.45-0.46c-0.32-0.3-0.49-0.74-0.49-1.3c0-0.56,0.16-0.99,0.49-1.3c0.32-0.3,0.81-0.46,1.45-0.46h4.95    c0.09,0,0.16-0.03,0.22-0.08c0.06-0.06,0.09-0.13,0.09-0.22v-1.12c0-0.09-0.03-0.16-0.09-0.21c-0.06-0.05-0.13-0.08-0.22-0.08    H3.53c-1.14,0-1.98,0.3-2.54,0.91C0.42,66.57,0.14,67.42,0.14,68.51z"
   id="path57" />
		<path
   class="st4"
   d="M8.88,68.51c0,1.1,0.28,1.96,0.84,2.57c0.56,0.61,1.41,0.91,2.54,0.91h4.95c0.09,0,0.16-0.03,0.22-0.08    c0.06-0.05,0.08-0.12,0.08-0.21v-1.12c0-0.09-0.03-0.16-0.08-0.22c-0.06-0.06-0.13-0.09-0.22-0.09h-4.95    c-0.64,0-1.12-0.15-1.45-0.46c-0.32-0.3-0.49-0.74-0.49-1.3c0-0.56,0.16-0.99,0.49-1.3c0.32-0.3,0.81-0.46,1.45-0.46h4.95    c0.09,0,0.16-0.03,0.22-0.08c0.06-0.06,0.08-0.13,0.08-0.22v-1.12c0-0.09-0.03-0.16-0.08-0.21c-0.06-0.05-0.13-0.08-0.22-0.08    h-4.95c-1.14,0-1.98,0.3-2.54,0.91C9.16,66.57,8.88,67.42,8.88,68.51z"
   id="path59" />
		<path
   class="st4"
   d="M8.88,75.48c0-1.1,0.28-1.96,0.84-2.57c0.56-0.61,1.41-0.91,2.54-0.91h4.95c0.09,0,0.16,0.03,0.22,0.08    c0.06,0.05,0.08,0.12,0.08,0.21v1.12c0,0.09-0.03,0.16-0.08,0.22c-0.06,0.06-0.13,0.08-0.22,0.08h-4.95    c-0.64,0-1.12,0.15-1.45,0.46c-0.32,0.3-0.49,0.74-0.49,1.3c0,0.56,0.16,0.99,0.49,1.3c0.32,0.3,0.81,0.46,1.45,0.46h4.95    c0.09,0,0.16,0.03,0.22,0.09c0.06,0.06,0.08,0.13,0.08,0.22v1.12c0,0.09-0.03,0.16-0.08,0.21c-0.06,0.05-0.13,0.08-0.22,0.08    h-4.95c-1.14,0-1.98-0.3-2.54-0.91C9.16,77.42,8.88,76.57,8.88,75.48z"
   id="path61" />
		<path
   class="st4"
   d="M0.14,75.48c0-1.1,0.28-1.96,0.84-2.57c0.56-0.61,1.41-0.91,2.54-0.91h4.95c0.09,0,0.16,0.03,0.22,0.08    c0.06,0.05,0.09,0.12,0.09,0.21v1.12c0,0.09-0.03,0.16-0.09,0.22c-0.06,0.06-0.13,0.08-0.22,0.08H3.53    c-0.64,0-1.12,0.15-1.45,0.46c-0.32,0.3-0.49,0.74-0.49,1.3c0,0.56,0.16,0.99,0.49,1.3c0.32,0.3,0.81,0.46,1.45,0.46h4.95    c0.09,0,0.16,0.03,0.22,0.09c0.06,0.06,0.09,0.13,0.09,0.22v1.12c0,0.09-0.03,0.16-0.09,0.21c-0.06,0.05-0.13,0.08-0.22,0.08H3.53    c-1.14,0-1.98-0.3-2.54-0.91C0.42,77.42,0.14,76.57,0.14,75.48z"
   id="path63" />
		<line
   class="st6"
   x1="17.53"
   y1="0.08"
   x2="17.53"
   y2="204.21"
   id="line65" />
		<line
   class="st6"
   x1="8.88"
   y1="0.08"
   x2="8.88"
   y2="204.21"
   id="line67" />
		<line
   class="st6"
   x1="0.14"
   y1="0.08"
   x2="0.14"
   y2="204.21"
   id="line69" />
		<path
   class="st4"
   d="M8.88,82.39c0,1.1,0.28,1.96,0.84,2.57c0.56,0.61,1.41,0.91,2.54,0.91h4.95c0.09,0,0.16-0.03,0.22-0.08    c0.06-0.05,0.08-0.12,0.08-0.21v-1.12c0-0.09-0.03-0.16-0.08-0.22c-0.06-0.06-0.13-0.09-0.22-0.09h-4.95    c-0.64,0-1.12-0.15-1.45-0.46c-0.32-0.3-0.49-0.74-0.49-1.3c0-0.56,0.16-0.99,0.49-1.3c0.32-0.3,0.81-0.46,1.45-0.46h4.95    c0.09,0,0.16-0.03,0.22-0.09c0.06-0.06,0.08-0.13,0.08-0.22v-1.12c0-0.09-0.03-0.16-0.08-0.21c-0.06-0.05-0.13-0.08-0.22-0.08    h-4.95c-1.14,0-1.98,0.3-2.54,0.91C9.16,80.44,8.88,81.29,8.88,82.39z"
   id="path71" />
		<path
   class="st4"
   d="M0.14,82.39c0,1.1,0.28,1.96,0.84,2.57c0.56,0.61,1.41,0.91,2.54,0.91h4.95c0.09,0,0.16-0.03,0.22-0.08    c0.06-0.05,0.09-0.12,0.09-0.21v-1.12c0-0.09-0.03-0.16-0.09-0.22c-0.06-0.06-0.13-0.09-0.22-0.09H3.53    c-0.64,0-1.12-0.15-1.45-0.46c-0.32-0.3-0.49-0.74-0.49-1.3c0-0.56,0.16-0.99,0.49-1.3c0.32-0.3,0.81-0.46,1.45-0.46h4.95    c0.09,0,0.16-0.03,0.22-0.09c0.06-0.06,0.09-0.13,0.09-0.22v-1.12c0-0.09-0.03-0.16-0.09-0.21c-0.06-0.05-0.13-0.08-0.22-0.08    H3.53c-1.14,0-1.98,0.3-2.54,0.91C0.42,80.44,0.14,81.29,0.14,82.39z"
   id="path73" />
		<path
   class="st4"
   d="M8.88,97.93c0,1.1,0.28,1.96,0.84,2.57c0.56,0.61,1.41,0.91,2.54,0.91h4.95c0.09,0,0.16-0.03,0.22-0.08    c0.06-0.05,0.08-0.12,0.08-0.21V100c0-0.09-0.03-0.16-0.08-0.22c-0.06-0.06-0.13-0.09-0.22-0.09h-4.95    c-0.64,0-1.12-0.15-1.45-0.46c-0.32-0.3-0.49-0.74-0.49-1.3c0-0.56,0.16-0.99,0.49-1.3c0.32-0.3,0.81-0.46,1.45-0.46h4.95    c0.09,0,0.16-0.03,0.22-0.09c0.06-0.06,0.08-0.13,0.08-0.22v-1.12c0-0.09-0.03-0.16-0.08-0.21c-0.06-0.05-0.13-0.08-0.22-0.08    h-4.95c-1.14,0-1.98,0.3-2.54,0.91C9.16,95.98,8.88,96.83,8.88,97.93z"
   id="path75" />
		<path
   class="st4"
   d="M0.14,97.93c0,1.1,0.28,1.96,0.84,2.57c0.56,0.61,1.41,0.91,2.54,0.91h4.95c0.09,0,0.16-0.03,0.22-0.08    c0.06-0.05,0.09-0.12,0.09-0.21V100c0-0.09-0.03-0.16-0.09-0.22c-0.06-0.06-0.13-0.09-0.22-0.09H3.53c-0.64,0-1.12-0.15-1.45-0.46    c-0.32-0.3-0.49-0.74-0.49-1.3c0-0.56,0.16-0.99,0.49-1.3c0.32-0.3,0.81-0.46,1.45-0.46h4.95c0.09,0,0.16-0.03,0.22-0.09    c0.06-0.06,0.09-0.13,0.09-0.22v-1.12c0-0.09-0.03-0.16-0.09-0.21c-0.06-0.05-0.13-0.08-0.22-0.08H3.53    c-1.14,0-1.98,0.3-2.54,0.91C0.42,95.98,0.14,96.83,0.14,97.93z"
   id="path77" />
		<path
   class="st4"
   d="M8.88,109.82c0,1.1,0.28,1.96,0.84,2.57c0.56,0.61,1.41,0.91,2.54,0.91h4.95c0.09,0,0.16-0.03,0.22-0.08    c0.06-0.05,0.08-0.12,0.08-0.21v-1.12c0-0.09-0.03-0.16-0.08-0.22c-0.06-0.06-0.13-0.08-0.22-0.08h-4.95    c-0.64,0-1.12-0.15-1.45-0.46c-0.32-0.3-0.49-0.74-0.49-1.3c0-0.56,0.16-0.99,0.49-1.3c0.32-0.3,0.81-0.46,1.45-0.46h4.95    c0.09,0,0.16-0.03,0.22-0.09c0.06-0.06,0.08-0.13,0.08-0.22v-1.12c0-0.09-0.03-0.16-0.08-0.21c-0.06-0.05-0.13-0.08-0.22-0.08    h-4.95c-1.14,0-1.98,0.3-2.54,0.91C9.16,107.87,8.88,108.72,8.88,109.82z"
   id="path79" />
		<path
   class="st4"
   d="M0.14,109.82c0,1.1,0.28,1.96,0.84,2.57c0.56,0.61,1.41,0.91,2.54,0.91h4.95c0.09,0,0.16-0.03,0.22-0.08    c0.06-0.05,0.09-0.12,0.09-0.21v-1.12c0-0.09-0.03-0.16-0.09-0.22c-0.06-0.06-0.13-0.08-0.22-0.08H3.53    c-0.64,0-1.12-0.15-1.45-0.46c-0.32-0.3-0.49-0.74-0.49-1.3c0-0.56,0.16-0.99,0.49-1.3c0.32-0.3,0.81-0.46,1.45-0.46h4.95    c0.09,0,0.16-0.03,0.22-0.09c0.06-0.06,0.09-0.13,0.09-0.22v-1.12c0-0.09-0.03-0.16-0.09-0.21c-0.06-0.05-0.13-0.08-0.22-0.08    H3.53c-1.14,0-1.98,0.3-2.54,0.91C0.42,107.87,0.14,108.72,0.14,109.82z"
   id="path81" />
		<g
   id="g89">
			<path
   class="st4"
   d="M0.14,53.04c0-1.1,0.28-1.96,0.85-2.57c0.57-0.61,1.42-0.91,2.57-0.91h5.01c0.09,0,0.16,0.03,0.22,0.08     c0.06,0.05,0.09,0.12,0.09,0.21v1.12c0,0.09-0.03,0.16-0.09,0.22c-0.06,0.06-0.13,0.09-0.22,0.09H3.57     c-0.65,0-1.14,0.15-1.47,0.46c-0.33,0.3-0.49,0.74-0.49,1.3c0,0.56,0.16,0.99,0.49,1.3c0.33,0.3,0.82,0.46,1.47,0.46h5.01     c0.09,0,0.16,0.03,0.22,0.09c0.06,0.06,0.09,0.13,0.09,0.22v1.12c0,0.09-0.03,0.16-0.09,0.21c-0.06,0.05-0.13,0.08-0.22,0.08     H3.57c-1.15,0-2.01-0.3-2.57-0.91C0.43,54.98,0.14,54.13,0.14,53.04z"
   id="path83" />
			<path
   class="st4"
   d="M8.88,53.04c0-1.1,0.28-1.96,0.85-2.57c0.57-0.61,1.42-0.91,2.57-0.91h5.01c0.09,0,0.16,0.03,0.22,0.08     c0.06,0.05,0.09,0.12,0.09,0.21v1.12c0,0.09-0.03,0.16-0.09,0.22c-0.06,0.06-0.13,0.09-0.22,0.09h-5.01     c-0.65,0-1.14,0.15-1.47,0.46c-0.33,0.3-0.49,0.74-0.49,1.3c0,0.56,0.16,0.99,0.49,1.3c0.33,0.3,0.82,0.46,1.47,0.46h5.01     c0.09,0,0.16,0.03,0.22,0.09c0.06,0.06,0.09,0.13,0.09,0.22v1.12c0,0.09-0.03,0.16-0.09,0.21c-0.06,0.05-0.13,0.08-0.22,0.08     h-5.01c-1.15,0-2.01-0.3-2.57-0.91C9.17,54.98,8.88,54.13,8.88,53.04z"
   id="path85" />
			<rect
   x="12.31"
   y="49.55"
   class="st26"
   width="3.48"
   height="1.72"
   id="rect87" />
		</g>
		<path
   class="st4"
   d="M8.88,109.82c0,1.1,0.28,1.96,0.84,2.57c0.56,0.61,1.41,0.91,2.54,0.91h4.95c0.09,0,0.16-0.03,0.22-0.08    c0.06-0.05,0.09-0.12,0.09-0.21v-1.12c0-0.09-0.03-0.16-0.09-0.22c-0.06-0.06-0.13-0.08-0.22-0.08h-4.95    c-0.64,0-1.12-0.15-1.45-0.46c-0.32-0.3-0.49-0.74-0.49-1.3c0-0.56,0.16-0.99,0.49-1.3c0.32-0.3,0.81-0.46,1.45-0.46h4.95    c0.09,0,0.16-0.03,0.22-0.09c0.06-0.06,0.09-0.13,0.09-0.22v-1.12c0-0.09-0.03-0.16-0.09-0.21c-0.06-0.05-0.13-0.08-0.22-0.08    h-4.95c-1.14,0-1.98,0.3-2.54,0.91C9.16,107.87,8.88,108.72,8.88,109.82z"
   id="path91" />
		<path
   class="st4"
   d="M0.14,109.82c0,1.1,0.28,1.96,0.84,2.57c0.56,0.61,1.41,0.91,2.54,0.91h4.95c0.09,0,0.16-0.03,0.22-0.08    c0.06-0.05,0.09-0.12,0.09-0.21v-1.12c0-0.09-0.03-0.16-0.09-0.22c-0.06-0.06-0.13-0.08-0.22-0.08H3.53    c-0.64,0-1.12-0.15-1.45-0.46c-0.32-0.3-0.49-0.74-0.49-1.3c0-0.56,0.16-0.99,0.49-1.3c0.32-0.3,0.81-0.46,1.45-0.46h4.95    c0.09,0,0.16-0.03,0.22-0.09c0.06-0.06,0.09-0.13,0.09-0.22v-1.12c0-0.09-0.03-0.16-0.09-0.21c-0.06-0.05-0.13-0.08-0.22-0.08    H3.53c-1.14,0-1.98,0.3-2.54,0.91C0.42,107.87,0.14,108.72,0.14,109.82z"
   id="path93" />
		<path
   class="st4"
   d="M8.9,121.58c0,1.1,0.28,1.96,0.84,2.57c0.56,0.61,1.41,0.91,2.54,0.91h4.95c0.09,0,0.16-0.03,0.22-0.08    c0.06-0.05,0.09-0.12,0.09-0.21v-1.12c0-0.09-0.03-0.16-0.09-0.22c-0.06-0.06-0.13-0.08-0.22-0.08h-4.95    c-0.64,0-1.12-0.15-1.45-0.46c-0.32-0.3-0.49-0.74-0.49-1.3c0-0.56,0.16-0.99,0.49-1.3c0.32-0.3,0.81-0.46,1.45-0.46h4.95    c0.09,0,0.16-0.03,0.22-0.09c0.06-0.06,0.09-0.13,0.09-0.22v-1.12c0-0.09-0.03-0.16-0.09-0.21c-0.06-0.05-0.13-0.08-0.22-0.08    h-4.95c-1.14,0-1.98,0.3-2.54,0.91C9.18,119.63,8.9,120.48,8.9,121.58z"
   id="path95" />
		<path
   class="st4"
   d="M0.16,121.58c0,1.1,0.28,1.96,0.84,2.57c0.56,0.61,1.41,0.91,2.54,0.91H8.5c0.09,0,0.16-0.03,0.22-0.08    c0.06-0.05,0.09-0.12,0.09-0.21v-1.12c0-0.09-0.03-0.16-0.09-0.22c-0.06-0.06-0.13-0.08-0.22-0.08H3.54    c-0.64,0-1.12-0.15-1.45-0.46c-0.32-0.3-0.49-0.74-0.49-1.3c0-0.56,0.16-0.99,0.49-1.3c0.32-0.3,0.81-0.46,1.45-0.46H8.5    c0.09,0,0.16-0.03,0.22-0.09c0.06-0.06,0.09-0.13,0.09-0.22v-1.12c0-0.09-0.03-0.16-0.09-0.21c-0.06-0.05-0.13-0.08-0.22-0.08    H3.54c-1.14,0-1.98,0.3-2.54,0.91C0.44,119.63,0.16,120.48,0.16,121.58z"
   id="path97" />
	</g>
	<g
   class="st3"
   id="g119">
		<line
   class="st6"
   x1="88.48"
   y1="-4.84"
   x2="88.48"
   y2="200.89"
   id="line101" />
		<line
   class="st6"
   x1="79.84"
   y1="-4.84"
   x2="79.84"
   y2="200.89"
   id="line103" />
		<line
   class="st6"
   x1="97.12"
   y1="-4.84"
   x2="97.12"
   y2="201.28"
   id="line105" />
		<path
   class="st4"
   d="M88.56,104.9c0,1.1,0.28,1.96,0.84,2.57c0.56,0.61,1.41,0.91,2.54,0.91h4.95c0.09,0,0.16-0.03,0.22-0.08    c0.06-0.05,0.08-0.12,0.08-0.21v-1.12c0-0.09-0.03-0.16-0.08-0.22c-0.06-0.06-0.13-0.08-0.22-0.08h-4.95    c-0.64,0-1.12-0.15-1.45-0.46c-0.32-0.3-0.49-0.74-0.49-1.3c0-0.56,0.16-0.99,0.49-1.3c0.32-0.3,0.81-0.46,1.45-0.46h4.95    c0.09,0,0.16-0.03,0.22-0.09c0.06-0.06,0.08-0.13,0.08-0.22v-1.12c0-0.09-0.03-0.16-0.08-0.21c-0.06-0.05-0.13-0.08-0.22-0.08    h-4.95c-1.14,0-1.98,0.3-2.54,0.91C88.84,102.95,88.56,103.8,88.56,104.9z"
   id="path107" />
		<path
   class="st4"
   d="M79.82,104.9c0,1.1,0.28,1.96,0.84,2.57c0.56,0.61,1.41,0.91,2.54,0.91h4.95c0.09,0,0.16-0.03,0.22-0.08    c0.06-0.05,0.09-0.12,0.09-0.21v-1.12c0-0.09-0.03-0.16-0.09-0.22c-0.06-0.06-0.13-0.08-0.22-0.08H83.2    c-0.64,0-1.12-0.15-1.45-0.46c-0.32-0.3-0.49-0.74-0.49-1.3c0-0.56,0.16-0.99,0.49-1.3c0.32-0.3,0.81-0.46,1.45-0.46h4.95    c0.09,0,0.16-0.03,0.22-0.09c0.06-0.06,0.09-0.13,0.09-0.22v-1.12c0-0.09-0.03-0.16-0.09-0.21c-0.06-0.05-0.13-0.08-0.22-0.08    H83.2c-1.14,0-1.98,0.3-2.54,0.91C80.1,102.95,79.82,103.8,79.82,104.9z"
   id="path109" />
		<path
   class="st4"
   d="M88.58,116.65c0,1.1,0.28,1.96,0.84,2.57c0.56,0.61,1.41,0.91,2.54,0.91h4.95c0.09,0,0.16-0.03,0.22-0.08    c0.06-0.05,0.09-0.12,0.09-0.21v-1.12c0-0.09-0.03-0.16-0.09-0.22c-0.06-0.06-0.13-0.09-0.22-0.09h-4.95    c-0.64,0-1.12-0.15-1.45-0.46c-0.32-0.3-0.49-0.74-0.49-1.3c0-0.56,0.16-0.99,0.49-1.3c0.32-0.3,0.81-0.46,1.45-0.46h4.95    c0.09,0,0.16-0.03,0.22-0.09c0.06-0.06,0.09-0.13,0.09-0.22v-1.12c0-0.09-0.03-0.16-0.09-0.21c-0.06-0.05-0.13-0.08-0.22-0.08    h-4.95c-1.14,0-1.98,0.3-2.54,0.91C88.86,114.71,88.58,115.56,88.58,116.65z"
   id="path111" />
		<path
   class="st4"
   d="M79.84,116.65c0,1.1,0.28,1.96,0.84,2.57c0.56,0.61,1.41,0.91,2.54,0.91h4.95c0.09,0,0.16-0.03,0.22-0.08    c0.06-0.05,0.09-0.12,0.09-0.21v-1.12c0-0.09-0.03-0.16-0.09-0.22c-0.06-0.06-0.13-0.09-0.22-0.09h-4.95    c-0.64,0-1.12-0.15-1.45-0.46c-0.32-0.3-0.49-0.74-0.49-1.3c0-0.56,0.16-0.99,0.49-1.3c0.32-0.3,0.81-0.46,1.45-0.46h4.95    c0.09,0,0.16-0.03,0.22-0.09c0.06-0.06,0.09-0.13,0.09-0.22v-1.12c0-0.09-0.03-0.16-0.09-0.21c-0.06-0.05-0.13-0.08-0.22-0.08    h-4.95c-1.14,0-1.98,0.3-2.54,0.91C80.12,114.71,79.84,115.56,79.84,116.65z"
   id="path113" />
		<path
   class="st4"
   d="M88.56,125.24c0,1.1,0.28,1.96,0.84,2.57c0.56,0.61,1.41,0.91,2.54,0.91h4.95c0.09,0,0.16-0.03,0.22-0.08    c0.06-0.05,0.08-0.12,0.08-0.21v-1.12c0-0.09-0.03-0.16-0.08-0.22c-0.06-0.06-0.13-0.08-0.22-0.08h-4.95    c-0.64,0-1.12-0.15-1.45-0.46c-0.32-0.3-0.49-0.74-0.49-1.3c0-0.56,0.16-0.99,0.49-1.3c0.32-0.3,0.81-0.46,1.45-0.46h4.95    c0.09,0,0.16-0.03,0.22-0.09c0.06-0.06,0.08-0.13,0.08-0.22v-1.12c0-0.09-0.03-0.16-0.08-0.21c-0.06-0.05-0.13-0.08-0.22-0.08    h-4.95c-1.14,0-1.98,0.3-2.54,0.91C88.85,123.29,88.56,124.14,88.56,125.24z"
   id="path115" />
		<path
   class="st4"
   d="M79.82,125.24c0,1.1,0.28,1.96,0.84,2.57c0.56,0.61,1.41,0.91,2.54,0.91h4.95c0.09,0,0.16-0.03,0.22-0.08    c0.06-0.05,0.09-0.12,0.09-0.21v-1.12c0-0.09-0.03-0.16-0.09-0.22c-0.06-0.06-0.13-0.08-0.22-0.08h-4.95    c-0.64,0-1.12-0.15-1.45-0.46c-0.32-0.3-0.49-0.74-0.49-1.3c0-0.56,0.16-0.99,0.49-1.3c0.32-0.3,0.81-0.46,1.45-0.46h4.95    c0.09,0,0.16-0.03,0.22-0.09c0.06-0.06,0.09-0.13,0.09-0.22v-1.12c0-0.09-0.03-0.16-0.09-0.21c-0.06-0.05-0.13-0.08-0.22-0.08    h-4.95c-1.14,0-1.98,0.3-2.54,0.91C80.1,123.29,79.82,124.14,79.82,125.24z"
   id="path117" />
	</g>
	<g
   class="st3"
   id="g125">
		<path
   class="st4"
   d="M54.65,114.92c-1.06,0-1.88,0.27-2.47,0.81c-0.58,0.54-0.88,1.35-0.88,2.44v4.75c0,0.09,0.03,0.16,0.08,0.21    c0.05,0.05,0.12,0.08,0.2,0.08h1.07c0.09,0,0.16-0.03,0.21-0.08c0.05-0.05,0.08-0.12,0.08-0.21v-4.75c0-0.62,0.15-1.08,0.44-1.39    c0.29-0.31,0.71-0.47,1.24-0.47c0.54,0,0.95,0.16,1.24,0.47c0.29,0.31,0.44,0.77,0.44,1.39v4.75c0,0.09,0.03,0.16,0.08,0.21    c0.05,0.05,0.12,0.08,0.21,0.08h1.07c0.09,0,0.15-0.03,0.2-0.08c0.05-0.05,0.08-0.12,0.08-0.21v-4.75c0-1.09-0.29-1.9-0.87-2.44    C56.52,115.18,55.7,114.92,54.65,114.92z"
   id="path121" />
		<path
   class="st4"
   d="M54.65,106.53c-1.06,0-1.88,0.27-2.47,0.81c-0.58,0.54-0.88,1.35-0.88,2.44v4.75c0,0.09,0.03,0.16,0.08,0.21    c0.05,0.05,0.12,0.08,0.2,0.08h1.07c0.09,0,0.16-0.03,0.21-0.08c0.05-0.05,0.08-0.12,0.08-0.21v-4.75c0-0.62,0.15-1.08,0.44-1.39    c0.29-0.31,0.71-0.47,1.24-0.47c0.54,0,0.95,0.16,1.24,0.47c0.29,0.31,0.44,0.77,0.44,1.39v4.75c0,0.09,0.03,0.16,0.08,0.21    c0.05,0.05,0.12,0.08,0.21,0.08h1.07c0.09,0,0.15-0.03,0.2-0.08c0.05-0.05,0.08-0.12,0.08-0.21v-4.75c0-1.09-0.29-1.9-0.87-2.44    C56.52,106.79,55.7,106.53,54.65,106.53z"
   id="path123" />
	</g>
</g>
<g
   id="Capa_1">
	<path
   class="st0"
   d="M44.73,17.32c8.06,0,12.09,6.04,12.09,13.1c0.1,3.22,0,5.05,0,9.07c-1.2,0-3.02,0-3.02,0s-2.66,5.74,2.01,9.07   c0,0.2-17.23,5.68-21.16-11.08c0,0.2,8.91,5.64,14.1,4.03c0,0,2.03-7.52,0.52-12.07c-1.95-5.89-10.55-4.24-14.62-1.87   c-10.11,5.88-13.31,14.99-17.13,22C17.53,49.56,20.03,17.32,44.73,17.32z"
   id="path128" />
	<path
   class="st27"
   d="M21.14,65.1c-1.13,0-2.01-0.28-2.65-0.84c-0.64-0.56-0.96-1.4-0.96-2.51v-4.95c0-0.09,0.03-0.16,0.08-0.22   c0.06-0.06,0.13-0.09,0.21-0.09h1.63c0.09,0,0.16,0.03,0.22,0.09c0.06,0.06,0.09,0.14,0.09,0.22v4.93c0,0.5,0.12,0.88,0.35,1.13   c0.23,0.25,0.57,0.38,1.01,0.38c0.44,0,0.77-0.13,1.01-0.38c0.23-0.25,0.35-0.63,0.35-1.12v-4.93c0-0.09,0.03-0.16,0.09-0.22   c0.06-0.06,0.13-0.09,0.22-0.09h1.62c0.09,0,0.16,0.03,0.22,0.09c0.06,0.06,0.09,0.14,0.09,0.22v4.95c0,1.12-0.32,1.95-0.95,2.51   C23.13,64.82,22.26,65.1,21.14,65.1L21.14,65.1z"
   id="path130" />
	<path
   class="st27"
   d="M26.44,64.98c-0.08,0-0.15-0.03-0.21-0.09c-0.06-0.06-0.09-0.13-0.09-0.21v-7.89c0-0.09,0.03-0.16,0.09-0.22   c0.06-0.06,0.13-0.08,0.21-0.08h1.67c0.09,0,0.16,0.03,0.21,0.08c0.06,0.06,0.08,0.13,0.08,0.22v6.29h3.57   c0.09,0,0.16,0.03,0.22,0.09c0.06,0.06,0.09,0.14,0.09,0.22v1.29c0,0.09-0.03,0.16-0.09,0.22c-0.06,0.06-0.13,0.08-0.22,0.08H26.44   L26.44,64.98z"
   id="path132" />
	<path
   class="st27"
   d="M39.27,57.19c-0.59-0.48-1.4-0.72-2.43-0.72h-3.37c-0.09,0-0.16,0.03-0.21,0.09   c-0.06,0.06-0.08,0.14-0.08,0.22v7.88c0,0.08,0.03,0.15,0.09,0.21c0.06,0.06,0.13,0.09,0.21,0.09h1.72c0.09,0,0.16-0.03,0.21-0.09   c0.06-0.06,0.08-0.13,0.08-0.21v-2.62h1.36c1.03,0,1.84-0.23,2.43-0.69c0.59-0.46,0.88-1.15,0.88-2.07   C40.15,58.37,39.86,57.67,39.27,57.19z M37.55,60.05c-0.19,0.17-0.44,0.26-0.77,0.26h-1.33v-2.09h1.33c0.36,0,0.62,0.1,0.79,0.29   c0.17,0.19,0.26,0.45,0.26,0.77C37.83,59.62,37.73,59.88,37.55,60.05z"
   id="path134" />
	<path
   class="st27"
   d="M44.62,65.1c-1.15,0-2.05-0.29-2.7-0.86c-0.65-0.57-1-1.39-1.04-2.45c-0.01-0.23-0.01-0.59-0.01-1.1   c0-0.51,0-0.88,0.01-1.12c0.03-1.02,0.38-1.81,1.04-2.37c0.66-0.56,1.56-0.84,2.7-0.84c0.76,0,1.43,0.13,2,0.38   c0.57,0.25,1,0.57,1.3,0.97c0.3,0.39,0.45,0.8,0.47,1.21c0,0.07-0.03,0.14-0.08,0.19c-0.05,0.05-0.11,0.08-0.18,0.08h-1.85   c-0.08,0-0.14-0.01-0.18-0.04c-0.04-0.03-0.09-0.07-0.12-0.13c-0.1-0.23-0.25-0.42-0.46-0.58c-0.21-0.16-0.51-0.24-0.89-0.24   c-0.92,0-1.4,0.49-1.43,1.46c-0.01,0.23-0.01,0.57-0.01,1.04c0,0.47,0,0.82,0.01,1.06c0.03,1.03,0.52,1.54,1.45,1.54   c0.46,0,0.83-0.12,1.1-0.35c0.27-0.23,0.4-0.59,0.4-1.07v-0.22h-1.06c-0.09,0-0.16-0.03-0.22-0.09c-0.06-0.06-0.09-0.14-0.09-0.22   v-0.95c0-0.09,0.03-0.16,0.09-0.22c0.06-0.06,0.13-0.09,0.22-0.09h3.03c0.09,0,0.16,0.03,0.22,0.09c0.06,0.06,0.09,0.14,0.09,0.22   v1.41c0,0.69-0.16,1.28-0.47,1.78c-0.31,0.5-0.76,0.88-1.33,1.14C46.05,64.97,45.39,65.1,44.62,65.1L44.62,65.1z"
   id="path136" />
	<path
   class="st27"
   d="M53.08,65.1c-1.14,0-2.03-0.28-2.67-0.84c-0.65-0.56-0.99-1.38-1.03-2.45c-0.01-0.22-0.01-0.57-0.01-1.07   c0-0.5,0-0.87,0.01-1.09c0.04-1.05,0.39-1.86,1.04-2.43c0.66-0.57,1.54-0.86,2.66-0.86c0.71,0,1.34,0.12,1.9,0.35   c0.56,0.23,1,0.57,1.33,1.02c0.33,0.45,0.5,0.97,0.51,1.58c0,0.07-0.03,0.13-0.08,0.18c-0.05,0.05-0.11,0.07-0.18,0.07h-1.69   c-0.11,0-0.19-0.02-0.24-0.07c-0.05-0.04-0.1-0.13-0.14-0.25c-0.11-0.4-0.28-0.67-0.51-0.83c-0.23-0.16-0.53-0.24-0.9-0.24   c-0.9,0-1.36,0.51-1.39,1.53c-0.01,0.22-0.01,0.55-0.01,1.01c0,0.45,0,0.8,0.01,1.03c0.03,1.02,0.5,1.53,1.39,1.53   c0.37,0,0.67-0.08,0.9-0.24c0.23-0.16,0.4-0.44,0.51-0.83c0.03-0.12,0.08-0.2,0.13-0.25c0.06-0.04,0.14-0.07,0.25-0.07h1.69   c0.07,0,0.13,0.02,0.18,0.07c0.05,0.05,0.08,0.11,0.08,0.18c-0.02,0.61-0.19,1.13-0.51,1.58c-0.33,0.45-0.77,0.79-1.33,1.02   C54.42,64.98,53.78,65.1,53.08,65.1L53.08,65.1z"
   id="path138" />
	<rect
   x="17.53"
   y="74.47"
   class="st0"
   width="39.29"
   height="1.72"
   id="rect140" />
	<g
   aria-label="Escuela de "
   transform="matrix(1 0 0 1 16.6495 94.3789)"
   id="text152"><path
     d="m 1.1915237,-8.850472 h 5.5960117 v 1.0077564 h -4.39856 v 2.6201665 h 4.2147927 v 1.0077564 H 2.3889754 v 3.2070363 H 6.8942391 V 0 H 1.1915237 Z"
     style="font-size:12.1405px;font-family:Rubik-Medium;fill:#0067a2"
     id="path766" /><path
     d="m 13.047481,-6.4437127 v 1.0314683 q -0.462383,-0.2371192 -0.960333,-0.3556787 -0.49795,-0.1185596 -1.031468,-0.1185596 -0.812133,0 -1.2211638,0.2489751 -0.4031025,0.2489751 -0.4031025,0.7469253 0,0.3793906 0.2904709,0.5987258 0.2904714,0.2134073 1.1678114,0.4090306 l 0.373463,0.082992 q 1.161884,0.2489751 1.647978,0.7054295 0.492022,0.4505264 0.492022,1.2626594 0,0.92476468 -0.735069,1.46421073 -0.729141,0.53944605 -2.009585,0.53944605 -0.533518,0 -1.1144598,-0.10670362 Q 8.9690313,-0.03556787 8.3288096,-0.24304712 V -1.369363 q 0.6046539,0.3141828 1.1915237,0.47423824 0.5868697,0.15412744 1.1618837,0.15412744 0.770637,0 1.185596,-0.26083108 0.414958,-0.266759 0.414958,-0.7469253 0,-0.4445984 -0.302327,-0.6817175 -0.296398,-0.2371191 -1.310083,-0.4564544 l -0.37939,-0.08892 Q 9.2772862,-3.1892525 8.8267598,-3.6279229 8.3762335,-4.0725213 8.3762335,-4.8431585 q 0,-0.9366206 0.6639336,-1.4464267 0.6639336,-0.5098062 1.8850969,-0.5098062 0.604654,0 1.138172,0.08892 0.533518,0.08892 0.984045,0.266759 z"
     style="font-size:12.1405px;font-family:Rubik-Medium;fill:#0067a2"
     id="path763" /><path
     d="m 19.918007,-6.3844329 v 1.0196123 q -0.462382,-0.2549031 -0.930693,-0.3793906 -0.462382,-0.1304155 -0.93662,-0.1304155 -1.061108,0 -1.647978,0.6757895 -0.58687,0.6698616 -0.58687,1.8850972 0,1.2152356 0.58687,1.8910251 0.58687,0.66986162 1.647978,0.66986162 0.474238,0 0.93662,-0.12448755 0.468311,-0.13041557 0.930693,-0.38531857 v 1.00775632 q -0.456454,0.21340723 -0.948477,0.32011084 -0.486094,0.10670362 -1.037396,0.10670362 -1.499778,0 -2.383047,-0.94254859 -0.883269,-0.94254859 -0.883269,-2.54310279 0,-1.6242661 0.889197,-2.5549588 0.895125,-0.9306926 2.448255,-0.9306926 0.503878,0 0.984044,0.1067036 0.480167,0.1007757 0.930693,0.3082549 z"
     style="font-size:12.1405px;font-family:Rubik-Medium;fill:#0067a2"
     id="path760" /><path
     d="M 21.702329,-2.6201665 V -6.639336 h 1.090748 v 3.9776736 q 0,0.9425486 0.367534,1.4167869 0.367535,0.46831031 1.102604,0.46831031 0.883269,0 1.393075,-0.56315801 0.515734,-0.5631579 0.515734,-1.5353464 V -6.639336 h 1.090748 V 0 h -1.090748 v -1.0196123 q -0.397174,0.6046538 -0.924764,0.90105273 -0.521662,0.29047095 -1.215236,0.29047095 -1.1441,0 -1.736898,-0.71135743 -0.592797,-0.71135745 -0.592797,-2.08072045 z m 2.744654,-4.1792249 z"
     style="font-size:12.1405px;font-family:Rubik-Medium;fill:#0067a2"
     id="path757" /><path
     d="m 35.188481,-3.592355 v 0.5335181 h -5.01507 q 0.07114,1.1263159 0.675789,1.7191137 0.610582,0.58686992 1.695402,0.58686992 0.628366,0 1.215236,-0.15412744 0.592798,-0.15412748 1.17374,-0.46238228 v 1.03146822 q -0.58687,0.2489751 -1.20338,0.37939063 -0.61651,0.13041553 -1.250803,0.13041553 -1.588699,0 -2.519391,-0.92476466 -0.924765,-0.92476462 -0.924765,-2.50160692 0,-1.6301941 0.877341,-2.5845987 0.883269,-0.9603325 2.377119,-0.9603325 1.339723,0 2.116289,0.8654849 0.782493,0.8595569 0.782493,2.3415515 z m -1.090748,-0.3201108 q -0.01186,-0.8951248 -0.503878,-1.4286429 -0.486095,-0.533518 -1.2923,-0.533518 -0.912909,0 -1.464211,0.5157341 -0.545374,0.5157341 -0.628365,1.4523547 z"
     style="font-size:12.1405px;font-family:Rubik-Medium;fill:#0067a2"
     id="path754" /><path
     d="m 36.978729,-9.2239346 h 1.090748 V 0 h -1.090748 z"
     style="font-size:12.1405px;font-family:Rubik-Medium;fill:#0067a2"
     id="path751" /><path
     d="m 42.201442,-3.3374519 q -1.321939,0 -1.831746,0.3023269 -0.509806,0.3023269 -0.509806,1.0314683 0,0.5809418 0.379391,0.9247646 0.385319,0.33789478 1.043324,0.33789478 0.906981,0 1.452355,-0.64022168 0.551302,-0.6461497 0.551302,-1.7131858 V -3.3374519 Z M 44.37701,-3.7879783 V 0 h -1.090748 v -1.0077564 q -0.373463,0.60465386 -0.930693,0.89512481 -0.55723,0.28454297 -1.363435,0.28454297 -1.019612,0 -1.624266,-0.56908594 -0.598726,-0.57501392 -0.598726,-1.53534644 0,-1.120388 0.746926,-1.6894739 0.752853,-0.5690859 2.240775,-0.5690859 h 1.529419 v -0.1067036 q 0,-0.7528533 -0.49795,-1.1618838 -0.492022,-0.4149585 -1.387147,-0.4149585 -0.569086,0 -1.108532,0.1363435 -0.539446,0.1363435 -1.037396,0.4090305 v -1.0077564 q 0.598725,-0.2311911 1.161883,-0.3438227 0.563158,-0.1185596 1.096676,-0.1185596 1.440499,0 2.151857,0.7469253 0.711357,0.7469253 0.711357,2.2644878 z"
     style="font-size:12.1405px;font-family:Rubik-Medium;fill:#0067a2"
     id="path748" /><path
     d="m 53.123021,-5.6315796 v -3.592355 h 1.090748 V 0 h -1.090748 v -0.9959004 q -0.343823,0.59279786 -0.871413,0.88326881 -0.521662,0.28454297 -1.256732,0.28454297 -1.203379,0 -1.962161,-0.96033253 -0.752853,-0.96033255 -0.752853,-2.52531885 0,-1.5649863 0.752853,-2.5253189 0.758782,-0.9603325 1.962161,-0.9603325 0.73507,0 1.256732,0.290471 0.52759,0.2845429 0.871413,0.8773408 z M 49.406178,-3.31374 q 0,1.2033796 0.492022,1.8910251 0.497951,0.68171758 1.363435,0.68171758 0.865485,0 1.363435,-0.68171758 0.497951,-0.6876455 0.497951,-1.8910251 0,-1.2033797 -0.497951,-1.8850972 -0.49795,-0.6876455 -1.363435,-0.6876455 -0.865484,0 -1.363435,0.6876455 -0.492022,0.6817175 -0.492022,1.8850972 z"
     style="font-size:12.1405px;font-family:Rubik-Medium;fill:#0067a2"
     id="path745" /><path
     d="m 61.763102,-3.592355 v 0.5335181 h -5.01507 q 0.07114,1.1263159 0.67579,1.7191137 0.610581,0.58686992 1.695402,0.58686992 0.628365,0 1.215235,-0.15412744 0.592798,-0.15412748 1.17374,-0.46238228 v 1.03146822 q -0.58687,0.2489751 -1.20338,0.37939063 -0.61651,0.13041553 -1.250803,0.13041553 -1.588699,0 -2.519391,-0.92476466 -0.924765,-0.92476462 -0.924765,-2.50160692 0,-1.6301941 0.877341,-2.5845987 0.883269,-0.9603325 2.377119,-0.9603325 1.339724,0 2.116289,0.8654849 0.782493,0.8595569 0.782493,2.3415515 z m -1.090748,-0.3201108 q -0.01186,-0.8951248 -0.503878,-1.4286429 -0.486095,-0.533518 -1.2923,-0.533518 -0.912908,0 -1.46421,0.5157341 -0.545374,0.5157341 -0.628366,1.4523547 z"
     style="font-size:12.1405px;font-family:Rubik-Medium;fill:#0067a2"
     id="path742" /></g>
	<g
   aria-label="Doctorado"
   transform="matrix(1 0 0 1 17.0157 106.2871)"
   id="text158"><path
     d="m 2.3889754,-7.8664275 v 6.88238306 h 1.4464267 q 1.8317454,0 2.6794463,-0.82991696 0.8536289,-0.829917 0.8536289,-2.6201666 0,-1.7783935 -0.8536289,-2.6023825 -0.8477009,-0.829917 -2.6794463,-0.829917 z M 1.1915237,-8.850472 h 2.4601111 q 2.5727427,0 3.7761223,1.0729641 1.2033797,1.0670362 1.2033797,3.3433799 0,2.2881998 -1.2093077,3.3611639 Q 6.2125215,0 3.6516348,0 H 1.1915237 Z"
     style="font-size:12.1405px;font-family:Rubik-Bold;fill:#0067a2"
     id="path739" /><path
     d="m 13.065265,-5.8746267 q -0.877341,0 -1.387147,0.6876455 -0.509807,0.6817175 -0.509807,1.8732412 0,1.1915237 0.503879,1.8791692 0.509806,0.68171752 1.393075,0.68171752 0.871412,0 1.381219,-0.68764552 0.509806,-0.6876455 0.509806,-1.8732412 0,-1.1796677 -0.509806,-1.8673133 -0.509807,-0.6935734 -1.381219,-0.6935734 z m 0,-0.9247647 q 1.422714,0 2.234848,0.9247647 0.812133,0.9247646 0.812133,2.5608867 0,1.6301941 -0.812133,2.56088672 -0.812134,0.92476466 -2.234848,0.92476466 -1.428643,0 -2.240776,-0.92476466 -0.806205,-0.93069262 -0.806205,-2.56088672 0,-1.6361221 0.806205,-2.5608867 0.812133,-0.9247647 2.240776,-0.9247647 z"
     style="font-size:12.1405px;font-family:Rubik-Bold;fill:#0067a2"
     id="path736" /><path
     d="m 22.698231,-6.3844329 v 1.0196123 q -0.462382,-0.2549031 -0.930693,-0.3793906 -0.462382,-0.1304155 -0.93662,-0.1304155 -1.061109,0 -1.647978,0.6757895 -0.58687,0.6698616 -0.58687,1.8850972 0,1.2152356 0.58687,1.8910251 0.586869,0.66986162 1.647978,0.66986162 0.474238,0 0.93662,-0.12448755 0.468311,-0.13041557 0.930693,-0.38531857 v 1.00775632 q -0.456455,0.21340723 -0.948477,0.32011084 -0.486094,0.10670362 -1.037396,0.10670362 -1.499779,0 -2.383047,-0.94254859 -0.883269,-0.94254859 -0.883269,-2.54310279 0,-1.6242661 0.889197,-2.5549588 0.895124,-0.9306926 2.448255,-0.9306926 0.503878,0 0.984044,0.1067036 0.480166,0.1007757 0.930693,0.3082549 z"
     style="font-size:12.1405px;font-family:Rubik-Bold;fill:#0067a2"
     id="path733" /><path
     d="m 25.674076,-8.5244332 v 1.8850972 h 2.246704 v 0.847701 h -2.246704 v 3.6042109 q 0,0.8121331 0.219335,1.0433242 0.225263,0.2311912 0.906981,0.2311912 H 27.92078 V 0 H 26.800392 Q 25.537733,0 25.057566,-0.46831031 24.5774,-0.94254859 24.5774,-2.1874241 V -5.791635 H 23.777123 V -6.639336 H 24.5774 v -1.8850972 z"
     style="font-size:12.1405px;font-family:Rubik-Bold;fill:#0067a2"
     id="path730" /><path
     d="m 31.928093,-5.8746267 q -0.877341,0 -1.387147,0.6876455 -0.509806,0.6817175 -0.509806,1.8732412 0,1.1915237 0.503878,1.8791692 0.509806,0.68171752 1.393075,0.68171752 0.871413,0 1.381219,-0.68764552 0.509806,-0.6876455 0.509806,-1.8732412 0,-1.1796677 -0.509806,-1.8673133 -0.509806,-0.6935734 -1.381219,-0.6935734 z m 0,-0.9247647 q 1.422715,0 2.234848,0.9247647 0.812133,0.9247646 0.812133,2.5608867 0,1.6301941 -0.812133,2.56088672 -0.812133,0.92476466 -2.234848,0.92476466 -1.428643,0 -2.240776,-0.92476466 -0.806205,-0.93069262 -0.806205,-2.56088672 0,-1.6361221 0.806205,-2.5608867 0.812133,-0.9247647 2.240776,-0.9247647 z"
     style="font-size:12.1405px;font-family:Rubik-Bold;fill:#0067a2"
     id="path727" /><path
     d="m 40.630366,-5.6197237 q -0.183768,-0.1067036 -0.403103,-0.1541274 -0.213407,-0.053352 -0.474238,-0.053352 -0.924765,0 -1.422715,0.6046538 -0.492022,0.5987258 -0.492022,1.7250418 V 0 h -1.096676 v -6.639336 h 1.096676 v 1.0314683 q 0.343822,-0.6046538 0.895124,-0.8951248 0.551302,-0.2963989 1.339724,-0.2963989 0.112631,0 0.248975,0.017784 0.136343,0.011856 0.302327,0.041496 z"
     style="font-size:12.1405px;font-family:Rubik-Bold;fill:#0067a2"
     id="path724" /><path
     d="m 44.791804,-3.3374519 q -1.321939,0 -1.831745,0.3023269 -0.509806,0.3023269 -0.509806,1.0314683 0,0.5809418 0.379391,0.9247646 0.385318,0.33789478 1.043324,0.33789478 0.90698,0 1.452354,-0.64022168 0.551302,-0.6461497 0.551302,-1.7131858 v -0.2430471 z m 2.175569,-0.4505264 V 0 h -1.090749 v -1.0077564 q -0.373462,0.60465386 -0.930692,0.89512481 -0.55723,0.28454297 -1.363435,0.28454297 -1.019613,0 -1.624266,-0.56908594 -0.598726,-0.57501392 -0.598726,-1.53534644 0,-1.120388 0.746925,-1.6894739 0.752853,-0.5690859 2.240776,-0.5690859 h 1.529418 v -0.1067036 q 0,-0.7528533 -0.49795,-1.1618838 -0.492022,-0.4149585 -1.387147,-0.4149585 -0.569086,0 -1.108532,0.1363435 -0.539446,0.1363435 -1.037396,0.4090305 v -1.0077564 q 0.598726,-0.2311911 1.161884,-0.3438227 0.563158,-0.1185596 1.096676,-0.1185596 1.440499,0 2.151856,0.7469253 0.711358,0.7469253 0.711358,2.2644878 z"
     style="font-size:12.1405px;font-family:Rubik-Bold;fill:#0067a2"
     id="path721" /><path
     d="m 53.582997,-5.6315796 v -3.592355 h 1.090748 V 0 h -1.090748 v -0.9959004 q -0.343823,0.59279786 -0.871413,0.88326881 -0.521662,0.28454297 -1.256731,0.28454297 -1.20338,0 -1.962161,-0.96033253 -0.752854,-0.96033255 -0.752854,-2.52531885 0,-1.5649863 0.752854,-2.5253189 0.758781,-0.9603325 1.962161,-0.9603325 0.735069,0 1.256731,0.290471 0.52759,0.2845429 0.871413,0.8773408 z M 49.866154,-3.31374 q 0,1.2033796 0.492023,1.8910251 0.49795,0.68171758 1.363435,0.68171758 0.865484,0 1.363435,-0.68171758 0.49795,-0.6876455 0.49795,-1.8910251 0,-1.2033797 -0.49795,-1.8850972 -0.497951,-0.6876455 -1.363435,-0.6876455 -0.865485,0 -1.363435,0.6876455 -0.492023,0.6817175 -0.492023,1.8850972 z"
     style="font-size:12.1405px;font-family:Rubik-Bold;fill:#0067a2"
     id="path718" /><path
     d="m 59.586841,-5.8746267 q -0.87734,0 -1.387146,0.6876455 -0.509807,0.6817175 -0.509807,1.8732412 0,1.1915237 0.503879,1.8791692 0.509806,0.68171752 1.393074,0.68171752 0.871413,0 1.381219,-0.68764552 0.509807,-0.6876455 0.509807,-1.8732412 0,-1.1796677 -0.509807,-1.8673133 -0.509806,-0.6935734 -1.381219,-0.6935734 z m 0,-0.9247647 q 1.422715,0 2.234848,0.9247647 0.812133,0.9247646 0.812133,2.5608867 0,1.6301941 -0.812133,2.56088672 -0.812133,0.92476466 -2.234848,0.92476466 -1.428642,0 -2.240775,-0.92476466 -0.806205,-0.93069262 -0.806205,-2.56088672 0,-1.6361221 0.806205,-2.5608867 0.812133,-0.9247647 2.240775,-0.9247647 z"
     style="font-size:12.1405px;font-family:Rubik-Bold;fill:#0067a2"
     id="path715" /></g>
</g>
</svg>
