<?xml version="1.0" encoding="utf-8"?>
<!-- Generator: Adobe Illustrator 27.8.1, SVG Export Plug-In . SVG Version: 6.00 Build 0)  -->
<svg version="1.1" xmlns="http://www.w3.org/2000/svg" xmlns:xlink="http://www.w3.org/1999/xlink" x="0px" y="0px"
	 viewBox="0 0 140.21 132.41" style="enable-background:new 0 0 140.21 132.41;" xml:space="preserve">
<style type="text/css">
	.st0{display:none;}
	.st1{display:inline;fill:none;stroke:#009FE3;stroke-width:0.216;stroke-miterlimit:22.9256;}
	.st2{display:inline;fill-rule:evenodd;clip-rule:evenodd;fill:none;stroke:#009FE3;stroke-width:0.216;stroke-miterlimit:22.9256;}
	.st3{display:inline;fill-rule:evenodd;clip-rule:evenodd;fill:none;stroke:#B2B2B2;stroke-width:0.216;stroke-miterlimit:22.9256;}
	.st4{display:inline;fill:#DADADA;}
	.st5{display:inline;fill:none;stroke:#F59A00;stroke-width:0.216;stroke-miterlimit:22.9256;}
	.st6{display:inline;fill:none;stroke:#EF7D00;stroke-width:0.216;stroke-miterlimit:22.9256;}
	.st7{display:inline;}
	.st8{fill-rule:evenodd;clip-rule:evenodd;fill:#DADADA;}
	.st9{fill:none;stroke:#C6C6C6;stroke-width:0.216;stroke-miterlimit:22.9256;}
	.st10{fill:none;stroke:#B2B2B2;stroke-width:0.216;stroke-miterlimit:22.9256;}
	.st11{display:inline;fill:none;stroke:#C6C6C6;stroke-width:0.216;stroke-miterlimit:22.9256;}
	.st12{display:inline;fill:none;stroke:#B2B2B2;stroke-width:0.216;stroke-miterlimit:22.9256;}
	.st13{fill:#DADADA;}
	.st14{fill-rule:evenodd;clip-rule:evenodd;fill:#009640;}
	.st15{display:inline;fill-rule:evenodd;clip-rule:evenodd;fill:#DADADA;}
	
		.st16{display:inline;fill-rule:evenodd;clip-rule:evenodd;fill:none;stroke:#000000;stroke-width:0.2173;stroke-miterlimit:22.9256;}
	
		.st17{display:inline;fill-rule:evenodd;clip-rule:evenodd;fill:none;stroke:#C6C6C6;stroke-width:0.216;stroke-miterlimit:22.9256;}
	
		.st18{display:inline;fill-rule:evenodd;clip-rule:evenodd;fill:none;stroke:#E30613;stroke-width:0.216;stroke-miterlimit:22.9256;}
	.st19{display:inline;fill-rule:evenodd;clip-rule:evenodd;fill:#009640;}
	.st20{display:inline;fill:none;stroke:#EF7D00;stroke-width:0.2175;stroke-miterlimit:22.9256;}
	.st21{fill:#B3B1B1;}
	.st22{fill:none;stroke:#B3B1B1;stroke-width:0.216;stroke-miterlimit:22.926;}
	.st23{display:inline;fill:none;}
	.st24{display:inline;fill:none;stroke:#020203;stroke-width:0.216;stroke-miterlimit:22.926;}
	.st25{display:inline;fill:none;stroke:#289BD3;stroke-width:0.216;stroke-miterlimit:22.926;}
	.st26{display:inline;fill:none;stroke:#F39A10;stroke-width:0.216;stroke-miterlimit:22.926;}
	.st27{display:inline;fill:#B3B1B1;}
	.st28{display:inline;fill:none;stroke:#B3B1B1;stroke-width:0.216;stroke-miterlimit:22.926;}
	.st29{display:inline;fill:none;stroke:#E30613;stroke-width:0.216;stroke-miterlimit:22.9256;}
	.st30{display:inline;fill:none;stroke:#E30613;stroke-width:0.2175;stroke-miterlimit:22.9256;}
	.st31{display:inline;fill:none;stroke:#C6C6C6;stroke-width:0.2175;stroke-miterlimit:22.9256;}
	.st32{fill-rule:evenodd;clip-rule:evenodd;fill:none;stroke:#009FE3;stroke-width:0.216;stroke-miterlimit:22.9256;}
	.st33{fill-rule:evenodd;clip-rule:evenodd;fill:none;stroke:#B2B2B2;stroke-width:0.216;stroke-miterlimit:22.9256;}
	.st34{fill:none;stroke:#E30613;stroke-width:0.2175;stroke-miterlimit:22.9256;}
	.st35{fill:none;stroke:#C6C6C6;stroke-width:0.2175;stroke-miterlimit:22.9256;}
	.st36{fill:#0067A2;}
	.st37{fill:#0467A2;}
	.st38{fill:#F39A10;}
	.st39{fill:#F59A00;}
	.st40{fill-rule:evenodd;clip-rule:evenodd;fill:#0067A2;}
	.st41{fill-rule:evenodd;clip-rule:evenodd;fill:#F59A00;}
	.st42{fill:#FFFFFF;}
	.st43{fill-rule:evenodd;clip-rule:evenodd;fill:#FFFFFF;}
</style>
<g id="Capa_1" class="st0">
	<path class="st4" d="M0,68.44c0,1.1,0.28,1.96,0.84,2.57c0.56,0.61,1.41,0.91,2.54,0.91h4.95c0.09,0,0.16-0.03,0.22-0.08
		c0.06-0.05,0.09-0.12,0.09-0.21V70.5c0-0.09-0.03-0.16-0.09-0.22C8.5,70.23,8.43,70.2,8.34,70.2H3.38c-0.64,0-1.12-0.15-1.45-0.46
		c-0.32-0.3-0.49-0.74-0.49-1.3c0-0.56,0.16-0.99,0.49-1.3c0.32-0.3,0.81-0.46,1.45-0.46h4.95c0.09,0,0.16-0.03,0.22-0.08
		c0.06-0.06,0.09-0.13,0.09-0.22v-1.12c0-0.09-0.03-0.16-0.09-0.21C8.5,65,8.43,64.98,8.34,64.98H3.38c-1.14,0-1.98,0.3-2.54,0.91
		C0.28,66.49,0,67.34,0,68.44z"/>
	<path class="st4" d="M8.74,68.44c0,1.1,0.28,1.96,0.84,2.57c0.56,0.61,1.41,0.91,2.54,0.91h4.95c0.09,0,0.16-0.03,0.22-0.08
		c0.06-0.05,0.09-0.12,0.09-0.21V70.5c0-0.09-0.03-0.16-0.09-0.22c-0.06-0.06-0.13-0.09-0.22-0.09h-4.95
		c-0.64,0-1.12-0.15-1.45-0.46c-0.32-0.3-0.49-0.74-0.49-1.3c0-0.56,0.16-0.99,0.49-1.3c0.32-0.3,0.81-0.46,1.45-0.46h4.95
		c0.09,0,0.16-0.03,0.22-0.08c0.06-0.06,0.09-0.13,0.09-0.22v-1.12c0-0.09-0.03-0.16-0.09-0.21c-0.06-0.05-0.13-0.08-0.22-0.08
		h-4.95c-1.14,0-1.98,0.3-2.54,0.91C9.02,66.49,8.74,67.34,8.74,68.44z"/>
	<g class="st7">
		<line class="st10" x1="17.38" y1="-7.16" x2="17.38" y2="146.31"/>
		<line class="st10" x1="8.74" y1="-7.16" x2="8.74" y2="146.31"/>
		<line class="st10" x1="0" y1="-7.16" x2="0" y2="146.31"/>
	</g>
	<g class="st7">
		<path class="st13" d="M37.06,8.62c-1.1,0-1.95-0.28-2.56-0.84c-0.61-0.56-0.91-1.4-0.91-2.54V0.3c0-0.09,0.03-0.16,0.08-0.22
			C33.72,0.03,33.79,0,33.88,0H35c0.09,0,0.16,0.03,0.22,0.09c0.06,0.06,0.08,0.13,0.08,0.22v4.94c0,0.64,0.15,1.12,0.46,1.44
			s0.73,0.49,1.29,0.49c0.56,0,0.99-0.16,1.29-0.49c0.3-0.32,0.46-0.81,0.46-1.44V0.3c0-0.09,0.03-0.16,0.08-0.22
			C38.94,0.03,39.01,0,39.1,0h1.12c0.09,0,0.16,0.03,0.21,0.09c0.05,0.06,0.08,0.13,0.08,0.22v4.94c0,1.13-0.3,1.98-0.9,2.54
			C39,8.34,38.16,8.62,37.06,8.62z"/>
		<path class="st13" d="M37.06,8.62c-1.1,0-1.95,0.28-2.56,0.84c-0.61,0.56-0.91,1.4-0.91,2.54v4.94c0,0.09,0.03,0.16,0.08,0.22
			c0.05,0.06,0.12,0.08,0.21,0.08H35c0.09,0,0.16-0.03,0.22-0.08c0.06-0.06,0.08-0.13,0.08-0.22V12c0-0.64,0.15-1.12,0.46-1.44
			s0.73-0.49,1.29-0.49c0.56,0,0.99,0.16,1.29,0.49c0.3,0.32,0.46,0.81,0.46,1.44v4.94c0,0.09,0.03,0.16,0.08,0.22
			c0.06,0.06,0.13,0.08,0.22,0.08h1.12c0.09,0,0.16-0.03,0.21-0.08c0.05-0.06,0.08-0.13,0.08-0.22V12c0-1.13-0.3-1.98-0.9-2.54
			C39,8.9,38.16,8.62,37.06,8.62z"/>
	</g>
	<line class="st5" x1="0" y1="71.92" x2="153.66" y2="72.18"/>
	<line class="st5" x1="0" y1="64.98" x2="153.66" y2="65.24"/>
	<line class="st5" x1="0" y1="49.48" x2="153.66" y2="49.74"/>
	<line class="st5" x1="0" y1="56.42" x2="153.66" y2="56.68"/>
	<line class="st6" x1="0" y1="17.36" x2="153.66" y2="17.62"/>
	<line class="st6" x1="0" y1="0" x2="153.66" y2="0.27"/>
	<g class="st7">
		<path class="st13" d="M0,52.96c0-1.1,0.28-1.96,0.85-2.57c0.57-0.61,1.42-0.91,2.57-0.91h5.01c0.09,0,0.16,0.03,0.22,0.08
			c0.06,0.05,0.09,0.12,0.09,0.21v1.12c0,0.09-0.03,0.16-0.09,0.22c-0.06,0.06-0.13,0.09-0.22,0.09H3.42
			c-0.65,0-1.14,0.15-1.47,0.46c-0.33,0.3-0.49,0.74-0.49,1.3c0,0.56,0.16,0.99,0.49,1.3c0.33,0.3,0.82,0.46,1.47,0.46h5.01
			c0.09,0,0.16,0.03,0.22,0.09c0.06,0.06,0.09,0.13,0.09,0.22v1.12c0,0.09-0.03,0.16-0.09,0.21c-0.06,0.05-0.13,0.08-0.22,0.08H3.42
			c-1.15,0-2.01-0.3-2.57-0.91C0.28,54.9,0,54.05,0,52.96z"/>
		<path class="st13" d="M8.74,52.96c0-1.1,0.28-1.96,0.85-2.57c0.57-0.61,1.42-0.91,2.57-0.91h5.01c0.09,0,0.16,0.03,0.22,0.08
			c0.06,0.05,0.09,0.12,0.09,0.21v1.12c0,0.09-0.03,0.16-0.09,0.22c-0.06,0.06-0.13,0.09-0.22,0.09h-5.01
			c-0.65,0-1.14,0.15-1.47,0.46c-0.33,0.3-0.49,0.74-0.49,1.3c0,0.56,0.16,0.99,0.49,1.3c0.33,0.3,0.82,0.46,1.47,0.46h5.01
			c0.09,0,0.16,0.03,0.22,0.09c0.06,0.06,0.09,0.13,0.09,0.22v1.12c0,0.09-0.03,0.16-0.09,0.21c-0.06,0.05-0.13,0.08-0.22,0.08
			h-5.01c-1.15,0-2.01-0.3-2.57-0.91C9.02,54.9,8.74,54.05,8.74,52.96z"/>
		<rect x="12.16" y="49.48" class="st14" width="3.48" height="1.72"/>
	</g>
	<line class="st5" x1="-0.08" y1="83.35" x2="153.44" y2="83.27"/>
	<path class="st15" d="M84.27,79.6c0,1.13-0.28,2.01-0.83,2.65c-0.55,0.64-1.39,0.96-2.5,0.96h-4.92c-0.09,0-0.16-0.03-0.22-0.08
		c-0.06-0.06-0.09-0.13-0.09-0.21v-1.63c0-0.09,0.03-0.16,0.09-0.22c0.06-0.06,0.13-0.09,0.22-0.09h4.9c0.5,0,0.87-0.12,1.12-0.35
		c0.25-0.23,0.37-0.57,0.37-1.01c0-0.44-0.13-0.77-0.38-1.01c-0.25-0.23-0.63-0.35-1.12-0.35h-4.9c-0.09,0-0.16-0.03-0.22-0.09
		c-0.06-0.06-0.09-0.13-0.09-0.22v-1.62c0-0.09,0.03-0.16,0.09-0.22c0.06-0.06,0.13-0.09,0.22-0.09h4.92c1.11,0,1.94,0.32,2.5,0.95
		C83.99,77.61,84.27,78.49,84.27,79.6z"/>
	<line class="st1" x1="-0.67" y1="114" x2="152.98" y2="114"/>
	<line class="st1" x1="-0.67" y1="98.11" x2="153.56" y2="98.11"/>
	<line class="st1" x1="-0.67" y1="104.31" x2="153.55" y2="104.31"/>
	<line class="st1" x1="-0.67" y1="107.83" x2="153.43" y2="107.83"/>
	<line class="st1" x1="-0.67" y1="93.23" x2="153.19" y2="93.23"/>
	<path class="st15" d="M15.69,106c0,0.55-0.13,0.98-0.4,1.3c-0.27,0.31-0.67,0.47-1.21,0.47h-2.38c-0.04,0-0.08-0.01-0.11-0.04
		c-0.03-0.03-0.04-0.06-0.04-0.1v-0.8c0-0.04,0.01-0.08,0.04-0.11c0.03-0.03,0.07-0.04,0.11-0.04h2.37c0.24,0,0.42-0.06,0.54-0.17
		c0.12-0.11,0.18-0.28,0.18-0.49c0-0.21-0.06-0.38-0.18-0.49c-0.12-0.11-0.3-0.17-0.54-0.17h-2.37c-0.04,0-0.08-0.01-0.11-0.04
		c-0.03-0.03-0.04-0.07-0.04-0.11v-0.79c0-0.04,0.01-0.08,0.04-0.11c0.03-0.03,0.07-0.04,0.11-0.04h2.38c0.54,0,0.94,0.16,1.21,0.47
		C15.56,105.03,15.69,105.46,15.69,106L15.69,106z"/>
	<g class="st7">
		<path class="st8" d="M13.17,91.54c-1.1,0-1.97-0.27-2.59-0.8c-0.63-0.54-0.94-1.34-0.94-2.41v-4.75c0-0.09,0.03-0.16,0.08-0.22
			c0.05-0.06,0.12-0.09,0.21-0.09h1.6c0.09,0,0.16,0.03,0.22,0.09c0.06,0.06,0.09,0.13,0.09,0.22v4.73c0,0.48,0.11,0.84,0.34,1.08
			c0.23,0.24,0.56,0.36,0.98,0.36c0.43,0,0.76-0.12,0.98-0.37c0.23-0.24,0.34-0.6,0.34-1.08v-4.73c0-0.09,0.03-0.16,0.09-0.22
			c0.06-0.06,0.13-0.09,0.22-0.09h1.58c0.09,0,0.16,0.03,0.22,0.09c0.06,0.06,0.09,0.13,0.09,0.22v4.75c0,1.07-0.31,1.88-0.93,2.41
			C15.12,91.27,14.26,91.54,13.17,91.54L13.17,91.54z"/>
		<path class="st8" d="M14.53,92.44c0,0.28-0.07,0.49-0.2,0.65c-0.13,0.16-0.34,0.23-0.6,0.23h-1.19c-0.02,0-0.04-0.01-0.05-0.02
			c-0.01-0.01-0.02-0.03-0.02-0.05v-0.4c0-0.02,0.01-0.04,0.02-0.05c0.01-0.01,0.03-0.02,0.05-0.02h1.18c0.12,0,0.21-0.03,0.27-0.09
			c0.06-0.06,0.09-0.14,0.09-0.25c0-0.11-0.03-0.19-0.09-0.25c-0.06-0.06-0.15-0.09-0.27-0.09h-1.18c-0.02,0-0.04-0.01-0.05-0.02
			c-0.01-0.01-0.02-0.03-0.02-0.05v-0.4c0-0.02,0.01-0.04,0.02-0.05c0.01-0.01,0.03-0.02,0.05-0.02h1.19c0.27,0,0.47,0.08,0.6,0.23
			C14.46,91.95,14.53,92.17,14.53,92.44L14.53,92.44z"/>
	</g>
	<g class="st7">
		<path class="st13" d="M12.55,114.01c-0.06,0-0.12-0.02-0.16-0.06c-0.04-0.04-0.06-0.09-0.06-0.16v-4.56h-1.57
			c-0.07,0-0.12-0.02-0.16-0.07s-0.06-0.1-0.06-0.15v-0.94c0-0.06,0.02-0.12,0.06-0.16c0.04-0.04,0.09-0.06,0.16-0.06h4.73
			c0.06,0,0.12,0.02,0.16,0.06c0.04,0.04,0.06,0.09,0.06,0.16v0.94c0,0.06-0.02,0.11-0.06,0.15s-0.09,0.07-0.16,0.07h-1.57v4.56
			c0,0.06-0.02,0.12-0.06,0.16s-0.09,0.06-0.16,0.06H12.55z"/>
	</g>
	<g class="st7">
		<path class="st13" d="M12.58,104.26c-0.06,0-0.12-0.02-0.16-0.06c-0.04-0.04-0.06-0.09-0.06-0.16v-4.56h-1.57
			c-0.07,0-0.12-0.02-0.16-0.07s-0.06-0.1-0.06-0.15v-0.94c0-0.06,0.02-0.12,0.06-0.16c0.04-0.04,0.09-0.06,0.16-0.06h4.73
			c0.06,0,0.12,0.02,0.16,0.06c0.04,0.04,0.06,0.09,0.06,0.16v0.94c0,0.06-0.02,0.11-0.06,0.15s-0.09,0.07-0.16,0.07h-1.57v4.56
			c0,0.06-0.02,0.12-0.06,0.16s-0.09,0.06-0.16,0.06H12.58z"/>
	</g>
	<path class="st15" d="M15.77,115.75c0,0.55-0.13,0.98-0.4,1.3c-0.27,0.31-0.67,0.47-1.21,0.47h-2.38c-0.04,0-0.08-0.01-0.11-0.04
		c-0.03-0.03-0.04-0.06-0.04-0.1v-0.8c0-0.04,0.01-0.08,0.04-0.11c0.03-0.03,0.07-0.04,0.11-0.04h2.37c0.24,0,0.42-0.06,0.54-0.17
		c0.12-0.11,0.18-0.28,0.18-0.49c0-0.21-0.06-0.38-0.18-0.49c-0.12-0.11-0.3-0.17-0.54-0.17h-2.37c-0.04,0-0.08-0.01-0.11-0.04
		c-0.03-0.03-0.04-0.07-0.04-0.11v-0.79c0-0.04,0.01-0.08,0.04-0.11c0.03-0.03,0.07-0.04,0.11-0.04h2.38c0.54,0,0.94,0.16,1.21,0.47
		C15.63,114.78,15.77,115.21,15.77,115.75L15.77,115.75z"/>
	<line class="st1" x1="-0.67" y1="117.53" x2="153.43" y2="117.53"/>
	<g class="st7">
		<path class="st13" d="M13.12,123.72c-0.06,0-0.12-0.02-0.16-0.06c-0.04-0.04-0.06-0.09-0.06-0.16v-4.56h-1.57
			c-0.07,0-0.12-0.02-0.16-0.07s-0.06-0.1-0.06-0.15v-0.94c0-0.06,0.02-0.12,0.06-0.16c0.04-0.04,0.09-0.06,0.16-0.06h4.73
			c0.06,0,0.12,0.02,0.16,0.06c0.04,0.04,0.06,0.09,0.06,0.16v0.94c0,0.06-0.02,0.11-0.06,0.15s-0.09,0.07-0.16,0.07H14.5v4.56
			c0,0.06-0.02,0.12-0.06,0.16s-0.09,0.06-0.16,0.06H13.12z"/>
	</g>
	<line class="st1" x1="-0.67" y1="123.74" x2="153.43" y2="123.74"/>
	<g class="st7">
		<path class="st13" d="M104.49,132.93c-1.1,0-1.95-0.3-2.56-0.89c-0.61-0.6-0.91-1.5-0.91-2.7v-5.27c0-0.1,0.03-0.17,0.08-0.23
			c0.05-0.06,0.12-0.09,0.21-0.09h1.12c0.09,0,0.16,0.03,0.22,0.09c0.06,0.06,0.09,0.14,0.09,0.23v5.27c0,0.68,0.15,1.19,0.46,1.54
			c0.3,0.34,0.73,0.52,1.29,0.52c0.56,0,0.99-0.17,1.29-0.52c0.3-0.34,0.46-0.86,0.46-1.54v-5.27c0-0.1,0.03-0.17,0.08-0.23
			c0.06-0.06,0.13-0.09,0.22-0.09h1.12c0.09,0,0.16,0.03,0.21,0.09c0.05,0.06,0.08,0.14,0.08,0.23v5.27c0,1.21-0.3,2.11-0.9,2.7
			C106.43,132.63,105.59,132.93,104.49,132.93z"/>
	</g>
	<line class="st29" x1="0.12" y1="75.87" x2="153.5" y2="75.79"/>
	<g class="st7">
		<line class="st10" x1="131.46" y1="-7.72" x2="131.46" y2="145.4"/>
		<line class="st10" x1="122.82" y1="-7.72" x2="122.82" y2="145.4"/>
		<line class="st10" x1="140.11" y1="-7.72" x2="140.11" y2="145.4"/>
		<g>
			<path class="st13" d="M122.76,46.14c0,1.1,0.28,1.96,0.84,2.57c0.56,0.61,1.41,0.91,2.54,0.91h4.95c0.09,0,0.16-0.03,0.22-0.08
				c0.06-0.05,0.09-0.12,0.09-0.21v-1.12c0-0.09-0.03-0.16-0.09-0.22c-0.06-0.06-0.13-0.09-0.22-0.09h-4.95
				c-0.64,0-1.12-0.15-1.45-0.46c-0.32-0.3-0.49-0.74-0.49-1.3c0-0.56,0.16-0.99,0.49-1.3c0.32-0.3,0.81-0.46,1.45-0.46h4.95
				c0.09,0,0.16-0.03,0.22-0.09c0.06-0.06,0.09-0.13,0.09-0.22v-1.12c0-0.09-0.03-0.16-0.09-0.21c-0.06-0.05-0.13-0.08-0.22-0.08
				h-4.95c-1.14,0-1.98,0.3-2.54,0.91C123.04,44.2,122.76,45.05,122.76,46.14z"/>
			<path class="st13" d="M131.5,46.14c0,1.1,0.28,1.96,0.84,2.57c0.56,0.61,1.41,0.91,2.54,0.91h4.95c0.09,0,0.16-0.03,0.22-0.08
				c0.06-0.05,0.08-0.12,0.08-0.21v-1.12c0-0.09-0.03-0.16-0.08-0.22c-0.06-0.06-0.13-0.09-0.22-0.09h-4.95
				c-0.64,0-1.12-0.15-1.45-0.46c-0.32-0.3-0.49-0.74-0.49-1.3c0-0.56,0.16-0.99,0.49-1.3c0.32-0.3,0.81-0.46,1.45-0.46h4.95
				c0.09,0,0.16-0.03,0.22-0.09c0.06-0.06,0.08-0.13,0.08-0.22v-1.12c0-0.09-0.03-0.16-0.08-0.21c-0.06-0.05-0.13-0.08-0.22-0.08
				h-4.95c-1.14,0-1.98,0.3-2.54,0.91C131.78,44.2,131.5,45.05,131.5,46.14z"/>
		</g>
	</g>
	<line class="st1" x1="-0.87" y1="132.35" x2="153.22" y2="132.35"/>
</g>
<g id="Capa_5">
</g>
<g id="Capa_2">
	<path class="st36" d="M44.5,17.15c8.06,0,12.09,6.04,12.09,13.1c0.1,3.22,0,5.05,0,9.07c-1.2,0-3.02,0-3.02,0s-2.66,5.74,2.01,9.07
		c0,0.2-17.23,5.68-21.16-11.08c0,0.2,8.91,5.64,14.1,4.03c0,0,2.03-7.52,0.52-12.07c-1.95-5.89-10.55-4.24-14.62-1.87
		c-10.11,5.88-13.31,14.99-17.13,22C17.3,49.39,19.81,17.15,44.5,17.15z"/>
	<path class="st39" d="M20.91,64.93c-1.13,0-2.01-0.28-2.65-0.84c-0.64-0.56-0.96-1.4-0.96-2.51v-4.95c0-0.09,0.03-0.16,0.08-0.22
		c0.06-0.06,0.13-0.09,0.21-0.09h1.63c0.09,0,0.16,0.03,0.22,0.09c0.06,0.06,0.09,0.14,0.09,0.22v4.93c0,0.5,0.12,0.88,0.35,1.13
		c0.23,0.25,0.57,0.38,1.01,0.38c0.44,0,0.77-0.13,1.01-0.38c0.23-0.25,0.35-0.63,0.35-1.12v-4.93c0-0.09,0.03-0.16,0.09-0.22
		c0.06-0.06,0.13-0.09,0.22-0.09h1.62c0.09,0,0.16,0.03,0.22,0.09c0.06,0.06,0.09,0.14,0.09,0.22v4.95c0,1.12-0.32,1.95-0.95,2.51
		C22.91,64.65,22.03,64.93,20.91,64.93L20.91,64.93z"/>
	<path class="st39" d="M26.22,64.81c-0.08,0-0.15-0.03-0.21-0.09c-0.06-0.06-0.09-0.13-0.09-0.21v-7.89c0-0.09,0.03-0.16,0.09-0.22
		c0.06-0.06,0.13-0.08,0.21-0.08h1.67c0.09,0,0.16,0.03,0.21,0.08c0.06,0.06,0.08,0.13,0.08,0.22v6.29h3.57
		c0.09,0,0.16,0.03,0.22,0.09c0.06,0.06,0.09,0.14,0.09,0.22v1.29c0,0.09-0.03,0.16-0.09,0.22c-0.06,0.06-0.13,0.08-0.22,0.08H26.22
		L26.22,64.81z"/>
	<path class="st39" d="M39.04,57.03c-0.59-0.48-1.4-0.72-2.43-0.72h-3.37c-0.09,0-0.16,0.03-0.21,0.09
		c-0.06,0.06-0.08,0.14-0.08,0.22v7.88c0,0.08,0.03,0.15,0.09,0.21c0.06,0.06,0.13,0.09,0.21,0.09h1.72c0.09,0,0.16-0.03,0.21-0.09
		c0.06-0.06,0.08-0.13,0.08-0.21v-2.62h1.36c1.03,0,1.84-0.23,2.43-0.69c0.59-0.46,0.88-1.15,0.88-2.07
		C39.92,58.21,39.63,57.51,39.04,57.03z M37.32,59.89c-0.19,0.17-0.44,0.26-0.77,0.26h-1.33v-2.09h1.33c0.36,0,0.62,0.1,0.79,0.29
		c0.17,0.19,0.26,0.45,0.26,0.77C37.6,59.46,37.51,59.71,37.32,59.89z"/>
	<path class="st39" d="M44.4,64.93c-1.15,0-2.05-0.29-2.7-0.86c-0.65-0.57-1-1.39-1.04-2.45c-0.01-0.23-0.01-0.6-0.01-1.1
		c0-0.51,0-0.88,0.01-1.12c0.03-1.02,0.38-1.81,1.04-2.37c0.66-0.56,1.56-0.84,2.7-0.84c0.76,0,1.43,0.13,2,0.38
		c0.57,0.25,1,0.57,1.3,0.97c0.3,0.39,0.45,0.8,0.47,1.21c0,0.07-0.03,0.14-0.08,0.19c-0.05,0.05-0.11,0.08-0.18,0.08h-1.85
		c-0.08,0-0.14-0.01-0.18-0.04c-0.04-0.03-0.09-0.07-0.12-0.13c-0.1-0.23-0.25-0.42-0.46-0.58c-0.21-0.16-0.51-0.24-0.89-0.24
		c-0.92,0-1.4,0.49-1.43,1.46c-0.01,0.23-0.01,0.57-0.01,1.04c0,0.47,0,0.82,0.01,1.06c0.03,1.03,0.52,1.54,1.45,1.54
		c0.46,0,0.83-0.12,1.1-0.35c0.27-0.23,0.41-0.59,0.41-1.07v-0.22h-1.06c-0.09,0-0.16-0.03-0.22-0.09
		c-0.06-0.06-0.09-0.14-0.09-0.22v-0.95c0-0.09,0.03-0.16,0.09-0.22c0.06-0.06,0.13-0.09,0.22-0.09h3.03c0.09,0,0.16,0.03,0.22,0.09
		c0.06,0.06,0.09,0.14,0.09,0.22v1.41c0,0.69-0.16,1.28-0.47,1.78c-0.31,0.5-0.76,0.88-1.33,1.14C45.83,64.8,45.16,64.93,44.4,64.93
		L44.4,64.93z"/>
	<path class="st39" d="M52.85,64.93c-1.14,0-2.03-0.28-2.67-0.84c-0.65-0.56-0.99-1.38-1.03-2.45c-0.01-0.22-0.01-0.57-0.01-1.07
		c0-0.5,0-0.87,0.01-1.09c0.04-1.05,0.39-1.86,1.04-2.43c0.66-0.57,1.54-0.86,2.66-0.86c0.71,0,1.34,0.12,1.9,0.35
		c0.56,0.23,1,0.57,1.33,1.02c0.33,0.45,0.5,0.97,0.51,1.58c0,0.07-0.03,0.13-0.08,0.18c-0.05,0.05-0.11,0.07-0.18,0.07h-1.69
		c-0.11,0-0.19-0.02-0.24-0.07c-0.05-0.04-0.1-0.13-0.14-0.25c-0.11-0.4-0.28-0.67-0.51-0.83s-0.53-0.24-0.9-0.24
		c-0.9,0-1.36,0.51-1.39,1.53c-0.01,0.22-0.01,0.55-0.01,1.01c0,0.45,0,0.8,0.01,1.03c0.03,1.02,0.5,1.53,1.39,1.53
		c0.37,0,0.67-0.08,0.9-0.24c0.23-0.16,0.4-0.44,0.51-0.83c0.03-0.12,0.08-0.2,0.13-0.25c0.06-0.04,0.14-0.07,0.25-0.07h1.69
		c0.07,0,0.13,0.02,0.18,0.07c0.05,0.05,0.08,0.11,0.08,0.18c-0.02,0.61-0.19,1.13-0.51,1.58c-0.33,0.45-0.77,0.79-1.33,1.02
		C54.19,64.82,53.56,64.93,52.85,64.93L52.85,64.93z"/>
	<path class="st36" d="M17.58,76.02h38.73c0.16,0,0.28-0.13,0.28-0.28v-1.15c0-0.16-0.13-0.28-0.28-0.28H17.58
		c-0.16,0-0.28,0.13-0.28,0.28v1.15C17.3,75.89,17.43,76.02,17.58,76.02z"/>
	<g>
		<g>
			<g>
				<path class="st36" d="M17.71,104.49c-0.06,0-0.11-0.02-0.15-0.06c-0.04-0.04-0.06-0.09-0.06-0.15V98.5
					c0-0.07,0.02-0.12,0.06-0.16c0.04-0.04,0.09-0.06,0.15-0.06h3.9c0.06,0,0.12,0.02,0.16,0.06c0.04,0.04,0.06,0.09,0.06,0.16v0.58
					c0,0.06-0.02,0.11-0.06,0.15c-0.04,0.04-0.09,0.06-0.16,0.06h-2.92v1.57h2.72c0.07,0,0.12,0.02,0.16,0.06
					c0.04,0.04,0.06,0.09,0.06,0.16v0.55c0,0.07-0.02,0.12-0.06,0.16c-0.04,0.04-0.09,0.06-0.16,0.06h-2.72v1.62h2.99
					c0.06,0,0.12,0.02,0.16,0.06s0.06,0.09,0.06,0.16v0.59c0,0.06-0.02,0.11-0.06,0.15c-0.04,0.04-0.09,0.06-0.16,0.06H17.71z"/>
				<path class="st36" d="M25.1,104.57c-0.55,0-1.01-0.08-1.38-0.24c-0.37-0.16-0.65-0.38-0.84-0.64c-0.19-0.26-0.29-0.54-0.31-0.83
					c0-0.05,0.02-0.1,0.05-0.13c0.04-0.04,0.08-0.05,0.13-0.05h0.79c0.08,0,0.13,0.02,0.17,0.05c0.04,0.03,0.07,0.07,0.1,0.12
					c0.04,0.11,0.1,0.22,0.2,0.33c0.1,0.11,0.24,0.2,0.41,0.27c0.17,0.07,0.39,0.11,0.66,0.11c0.43,0,0.74-0.07,0.95-0.21
					s0.31-0.33,0.31-0.58c0-0.17-0.06-0.31-0.17-0.41s-0.29-0.2-0.52-0.28c-0.23-0.09-0.54-0.18-0.93-0.27
					c-0.44-0.11-0.81-0.24-1.11-0.39c-0.3-0.15-0.52-0.34-0.67-0.57c-0.15-0.23-0.23-0.52-0.23-0.88c0-0.34,0.09-0.65,0.28-0.91
					c0.19-0.27,0.45-0.48,0.8-0.63c0.35-0.15,0.76-0.23,1.24-0.23c0.38,0,0.72,0.05,1.02,0.16c0.29,0.1,0.54,0.24,0.74,0.41
					c0.19,0.17,0.34,0.35,0.45,0.54s0.16,0.38,0.16,0.56c0,0.05-0.02,0.09-0.05,0.13c-0.03,0.04-0.08,0.06-0.14,0.06h-0.83
					c-0.05,0-0.09-0.01-0.14-0.04c-0.05-0.02-0.09-0.07-0.12-0.13c-0.04-0.18-0.15-0.34-0.35-0.47c-0.2-0.13-0.45-0.2-0.75-0.2
					c-0.32,0-0.58,0.06-0.77,0.18s-0.29,0.3-0.29,0.55c0,0.17,0.05,0.3,0.15,0.41s0.25,0.21,0.47,0.29c0.21,0.08,0.5,0.17,0.86,0.27
					c0.5,0.11,0.91,0.24,1.23,0.39s0.55,0.34,0.7,0.56s0.22,0.52,0.22,0.86c0,0.39-0.1,0.72-0.31,1c-0.21,0.28-0.5,0.49-0.88,0.63
					C26.04,104.5,25.6,104.57,25.1,104.57z"/>
				<path class="st36" d="M30.96,104.57c-0.55,0-1.02-0.1-1.4-0.29c-0.38-0.19-0.67-0.47-0.87-0.82c-0.2-0.36-0.31-0.79-0.34-1.29
					c-0.01-0.24-0.01-0.5-0.01-0.78s0-0.54,0.01-0.8c0.02-0.5,0.14-0.92,0.34-1.29c0.2-0.36,0.5-0.64,0.88-0.83
					c0.38-0.19,0.84-0.29,1.39-0.29c0.4,0,0.76,0.05,1.08,0.16s0.59,0.25,0.82,0.44c0.22,0.19,0.4,0.4,0.52,0.65
					c0.12,0.25,0.19,0.52,0.2,0.81c0.01,0.05-0.01,0.1-0.05,0.13c-0.04,0.04-0.08,0.05-0.14,0.05h-0.84c-0.07,0-0.12-0.02-0.16-0.05
					s-0.07-0.09-0.09-0.16c-0.09-0.39-0.26-0.66-0.49-0.8c-0.23-0.14-0.52-0.21-0.86-0.21c-0.4,0-0.71,0.11-0.95,0.33
					s-0.36,0.59-0.38,1.1c-0.02,0.48-0.02,0.98,0,1.49s0.15,0.87,0.38,1.09c0.24,0.22,0.55,0.33,0.95,0.33
					c0.34,0,0.63-0.07,0.86-0.22c0.23-0.15,0.39-0.41,0.49-0.79c0.02-0.08,0.05-0.14,0.09-0.17s0.09-0.04,0.16-0.04h0.84
					c0.05,0,0.1,0.02,0.14,0.05c0.04,0.04,0.05,0.08,0.05,0.13c-0.01,0.29-0.07,0.56-0.2,0.81c-0.12,0.25-0.3,0.47-0.52,0.65
					c-0.23,0.19-0.5,0.33-0.82,0.44S31.36,104.57,30.96,104.57z"/>
				<path class="st36" d="M37.04,104.57c-0.51,0-0.96-0.09-1.34-0.26c-0.38-0.17-0.67-0.44-0.88-0.81s-0.31-0.83-0.31-1.4V98.5
					c0-0.07,0.02-0.12,0.06-0.16c0.04-0.04,0.09-0.06,0.15-0.06h0.81c0.06,0,0.12,0.02,0.15,0.06c0.04,0.04,0.06,0.09,0.06,0.16
					v3.61c0,0.48,0.12,0.84,0.35,1.08s0.55,0.35,0.95,0.35c0.4,0,0.72-0.12,0.94-0.35s0.34-0.59,0.34-1.08V98.5
					c0-0.07,0.02-0.12,0.06-0.16c0.04-0.04,0.09-0.06,0.16-0.06h0.8c0.07,0,0.12,0.02,0.16,0.06c0.04,0.04,0.06,0.09,0.06,0.16v3.61
					c0,0.57-0.1,1.03-0.31,1.4s-0.49,0.63-0.87,0.81C38,104.49,37.56,104.57,37.04,104.57z"/>
				<path class="st36" d="M41.03,104.49c-0.06,0-0.11-0.02-0.15-0.06c-0.04-0.04-0.06-0.09-0.06-0.15V98.5
					c0-0.07,0.02-0.12,0.06-0.16c0.04-0.04,0.09-0.06,0.15-0.06h3.9c0.06,0,0.12,0.02,0.16,0.06c0.04,0.04,0.06,0.09,0.06,0.16v0.58
					c0,0.06-0.02,0.11-0.06,0.15c-0.04,0.04-0.09,0.06-0.16,0.06h-2.92v1.57h2.72c0.07,0,0.12,0.02,0.16,0.06
					c0.04,0.04,0.06,0.09,0.06,0.16v0.55c0,0.07-0.02,0.12-0.06,0.16c-0.04,0.04-0.09,0.06-0.16,0.06h-2.72v1.62H45
					c0.06,0,0.12,0.02,0.16,0.06s0.06,0.09,0.06,0.16v0.59c0,0.06-0.02,0.11-0.06,0.15c-0.04,0.04-0.09,0.06-0.16,0.06H41.03z"/>
				<path class="st36" d="M46.47,104.49c-0.06,0-0.11-0.02-0.15-0.06c-0.04-0.04-0.06-0.09-0.06-0.15v-5.78
					c0-0.06,0.02-0.11,0.06-0.15c0.04-0.04,0.09-0.06,0.15-0.06h0.83c0.06,0,0.11,0.02,0.15,0.06c0.04,0.04,0.06,0.09,0.06,0.15
					v4.94h2.81c0.07,0,0.12,0.02,0.16,0.06c0.04,0.04,0.06,0.09,0.06,0.16v0.62c0,0.06-0.02,0.11-0.06,0.15
					c-0.04,0.04-0.09,0.06-0.16,0.06H46.47z"/>
				<path class="st36" d="M50.95,104.49c-0.05,0-0.09-0.02-0.13-0.05c-0.04-0.04-0.06-0.08-0.06-0.13c0-0.02,0.01-0.05,0.02-0.08
					l2.14-5.72c0.02-0.06,0.05-0.11,0.1-0.16c0.05-0.04,0.12-0.07,0.21-0.07h0.97c0.09,0,0.16,0.02,0.2,0.07
					c0.05,0.04,0.08,0.1,0.11,0.16l2.14,5.72c0.01,0.03,0.01,0.06,0.01,0.08c0,0.05-0.02,0.1-0.05,0.13
					c-0.04,0.04-0.08,0.05-0.12,0.05h-0.77c-0.08,0-0.14-0.02-0.18-0.06c-0.04-0.04-0.06-0.08-0.08-0.11l-0.42-1.08H52.4l-0.42,1.08
					c-0.01,0.04-0.04,0.07-0.08,0.11c-0.04,0.04-0.1,0.06-0.18,0.06H50.95z M52.71,102.22h2.01l-1.01-2.74L52.71,102.22z"/>
				<path class="st36" d="M59.58,104.49c-0.06,0-0.11-0.02-0.15-0.06c-0.04-0.04-0.06-0.09-0.06-0.15V98.5
					c0-0.07,0.02-0.12,0.06-0.16c0.04-0.04,0.09-0.06,0.15-0.06h2.17c0.6,0,1.09,0.09,1.48,0.27c0.39,0.18,0.68,0.46,0.88,0.82
					c0.2,0.36,0.3,0.8,0.31,1.32c0.01,0.26,0.02,0.49,0.02,0.69s-0.01,0.43-0.02,0.68c-0.01,0.55-0.11,1-0.3,1.36
					c-0.19,0.36-0.47,0.62-0.86,0.8c-0.38,0.17-0.87,0.26-1.46,0.26H59.58z M60.6,103.47h1.14c0.33,0,0.6-0.05,0.81-0.14
					s0.36-0.25,0.46-0.46s0.15-0.49,0.16-0.83c0.01-0.18,0.01-0.33,0.01-0.47c0-0.13,0-0.27,0-0.4c0-0.13-0.01-0.29-0.01-0.46
					c-0.01-0.49-0.13-0.84-0.36-1.07c-0.23-0.23-0.6-0.35-1.1-0.35h-1.1V103.47z"/>
				<path class="st36" d="M65.75,104.49c-0.06,0-0.11-0.02-0.15-0.06c-0.04-0.04-0.06-0.09-0.06-0.15V98.5
					c0-0.07,0.02-0.12,0.06-0.16c0.04-0.04,0.09-0.06,0.15-0.06h3.9c0.06,0,0.12,0.02,0.16,0.06c0.04,0.04,0.06,0.09,0.06,0.16v0.58
					c0,0.06-0.02,0.11-0.06,0.15c-0.04,0.04-0.09,0.06-0.16,0.06h-2.92v1.57h2.72c0.07,0,0.12,0.02,0.16,0.06
					c0.04,0.04,0.06,0.09,0.06,0.16v0.55c0,0.07-0.02,0.12-0.06,0.16c-0.04,0.04-0.09,0.06-0.16,0.06h-2.72v1.62h2.99
					c0.06,0,0.12,0.02,0.16,0.06s0.06,0.09,0.06,0.16v0.59c0,0.06-0.02,0.11-0.06,0.15c-0.04,0.04-0.09,0.06-0.16,0.06H65.75z"/>
				<path class="st36" d="M73.08,104.49c-0.06,0-0.12-0.02-0.16-0.06s-0.06-0.09-0.06-0.16v-5.72c0-0.06,0.02-0.12,0.06-0.16
					s0.09-0.06,0.16-0.06h1.18c0.06,0,0.12,0.02,0.16,0.06s0.06,0.09,0.06,0.16v5.72c0,0.07-0.02,0.12-0.06,0.16
					s-0.09,0.06-0.16,0.06H73.08z"/>
				<path class="st36" d="M75.87,104.49c-0.06,0-0.12-0.02-0.16-0.06s-0.06-0.09-0.06-0.16v-5.72c0-0.06,0.02-0.12,0.06-0.16
					s0.09-0.06,0.16-0.06h0.93c0.1,0,0.17,0.02,0.22,0.07c0.04,0.04,0.07,0.08,0.08,0.1l2.15,3.39v-3.33c0-0.06,0.02-0.12,0.06-0.16
					s0.09-0.06,0.16-0.06h1.06c0.06,0,0.12,0.02,0.16,0.06s0.06,0.09,0.06,0.16v5.72c0,0.06-0.02,0.11-0.06,0.15
					s-0.09,0.07-0.16,0.07h-0.94c-0.09,0-0.16-0.02-0.21-0.07s-0.07-0.08-0.08-0.1l-2.15-3.26v3.2c0,0.07-0.02,0.12-0.06,0.16
					s-0.09,0.06-0.16,0.06H75.87z"/>
				<path class="st36" d="M84.45,104.57c-0.56,0-1.04-0.09-1.44-0.28c-0.4-0.18-0.71-0.45-0.93-0.81c-0.22-0.35-0.34-0.79-0.37-1.3
					c-0.01-0.25-0.01-0.52-0.01-0.81c0-0.28,0-0.56,0.01-0.81c0.02-0.5,0.15-0.92,0.37-1.27c0.22-0.35,0.54-0.61,0.94-0.79
					c0.41-0.18,0.88-0.27,1.43-0.27c0.44,0,0.83,0.05,1.17,0.16c0.34,0.11,0.63,0.25,0.86,0.44c0.23,0.18,0.41,0.38,0.53,0.6
					c0.12,0.22,0.18,0.43,0.19,0.64c0,0.05-0.01,0.1-0.05,0.13s-0.08,0.05-0.14,0.05h-1.28c-0.07,0-0.11-0.01-0.15-0.03
					s-0.06-0.05-0.08-0.09c-0.04-0.09-0.1-0.18-0.18-0.28s-0.19-0.18-0.33-0.25c-0.14-0.07-0.32-0.11-0.54-0.11
					c-0.33,0-0.6,0.09-0.79,0.26c-0.19,0.18-0.29,0.46-0.31,0.84c-0.02,0.5-0.02,1.01,0,1.53c0.02,0.41,0.13,0.71,0.33,0.89
					s0.46,0.27,0.79,0.27c0.22,0,0.42-0.04,0.59-0.11s0.31-0.2,0.41-0.36s0.15-0.37,0.15-0.62v-0.17h-0.83
					c-0.06,0-0.12-0.02-0.16-0.07s-0.07-0.1-0.07-0.16v-0.65c0-0.07,0.02-0.12,0.07-0.16s0.1-0.07,0.16-0.07h2.22
					c0.06,0,0.12,0.02,0.16,0.07s0.06,0.1,0.06,0.16v1c0,0.5-0.12,0.94-0.34,1.29c-0.23,0.36-0.55,0.63-0.97,0.82
					C85.49,104.48,85,104.57,84.45,104.57z"/>
				<path class="st36" d="M88.39,104.49c-0.06,0-0.12-0.02-0.16-0.06s-0.06-0.09-0.06-0.16v-5.72c0-0.06,0.02-0.12,0.06-0.16
					s0.09-0.06,0.16-0.06h4.11c0.06,0,0.12,0.02,0.16,0.06s0.06,0.09,0.06,0.16v0.83c0,0.06-0.02,0.12-0.06,0.16
					c-0.04,0.04-0.09,0.06-0.16,0.06h-2.81v1.19h2.61c0.06,0,0.12,0.02,0.16,0.07s0.06,0.1,0.06,0.16v0.77
					c0,0.06-0.02,0.11-0.06,0.15S92.37,102,92.3,102h-2.61v1.22h2.88c0.06,0,0.12,0.02,0.16,0.06c0.04,0.04,0.06,0.09,0.06,0.16
					v0.83c0,0.07-0.02,0.12-0.06,0.16c-0.04,0.04-0.09,0.06-0.16,0.06H88.39z"/>
				<path class="st36" d="M93.94,104.49c-0.06,0-0.12-0.02-0.16-0.06s-0.06-0.09-0.06-0.16v-5.72c0-0.06,0.02-0.12,0.06-0.16
					s0.09-0.06,0.16-0.06h0.93c0.1,0,0.17,0.02,0.22,0.07c0.04,0.04,0.07,0.08,0.08,0.1l2.15,3.39v-3.33c0-0.06,0.02-0.12,0.06-0.16
					s0.09-0.06,0.16-0.06h1.06c0.06,0,0.12,0.02,0.16,0.06s0.06,0.09,0.06,0.16v5.72c0,0.06-0.02,0.11-0.06,0.15
					s-0.09,0.07-0.16,0.07h-0.94c-0.09,0-0.16-0.02-0.21-0.07s-0.07-0.08-0.08-0.1l-2.15-3.26v3.2c0,0.07-0.02,0.12-0.06,0.16
					s-0.09,0.06-0.16,0.06H93.94z"/>
				<path class="st36" d="M100.2,104.49c-0.06,0-0.12-0.02-0.16-0.06s-0.06-0.09-0.06-0.16v-5.72c0-0.06,0.02-0.12,0.06-0.16
					s0.09-0.06,0.16-0.06h1.18c0.06,0,0.12,0.02,0.16,0.06s0.06,0.09,0.06,0.16v5.72c0,0.07-0.02,0.12-0.06,0.16
					s-0.09,0.06-0.16,0.06H100.2z"/>
				<path class="st36" d="M102.97,104.49c-0.06,0-0.12-0.02-0.16-0.06s-0.06-0.09-0.06-0.16v-5.72c0-0.06,0.02-0.12,0.06-0.16
					s0.09-0.06,0.16-0.06h4.11c0.06,0,0.12,0.02,0.16,0.06s0.06,0.09,0.06,0.16v0.83c0,0.06-0.02,0.12-0.06,0.16
					c-0.04,0.04-0.09,0.06-0.16,0.06h-2.81v1.19h2.61c0.06,0,0.12,0.02,0.16,0.07s0.06,0.1,0.06,0.16v0.77
					c0,0.06-0.02,0.11-0.06,0.15s-0.09,0.07-0.16,0.07h-2.61v1.22h2.88c0.06,0,0.12,0.02,0.16,0.06c0.04,0.04,0.06,0.09,0.06,0.16
					v0.83c0,0.07-0.02,0.12-0.06,0.16c-0.04,0.04-0.09,0.06-0.16,0.06H102.97z"/>
				<path class="st36" d="M108.53,104.49c-0.06,0-0.12-0.02-0.16-0.06s-0.06-0.09-0.06-0.16v-5.72c0-0.06,0.02-0.12,0.06-0.16
					s0.09-0.06,0.16-0.06h2.39c0.76,0,1.35,0.17,1.79,0.52c0.44,0.35,0.66,0.84,0.66,1.48c0,0.42-0.1,0.77-0.3,1.06
					c-0.2,0.29-0.47,0.5-0.8,0.65l1.21,2.16c0.02,0.04,0.03,0.07,0.03,0.1c0,0.05-0.02,0.09-0.06,0.13s-0.08,0.06-0.14,0.06h-1.16
					c-0.11,0-0.19-0.03-0.25-0.08s-0.09-0.11-0.11-0.15l-1-1.94h-0.91v1.95c0,0.07-0.02,0.12-0.06,0.16s-0.09,0.06-0.16,0.06H108.53
					z M109.88,101.07h1.02c0.28,0,0.48-0.07,0.62-0.2s0.21-0.32,0.21-0.55c0-0.23-0.07-0.41-0.2-0.55
					c-0.13-0.14-0.34-0.21-0.63-0.21h-1.02V101.07z"/>
				<path class="st36" d="M114.54,104.49c-0.06,0-0.12-0.02-0.16-0.06s-0.06-0.09-0.06-0.16v-5.72c0-0.06,0.02-0.12,0.06-0.16
					s0.09-0.06,0.16-0.06h1.18c0.06,0,0.12,0.02,0.16,0.06s0.06,0.09,0.06,0.16v5.72c0,0.07-0.02,0.12-0.06,0.16
					s-0.09,0.06-0.16,0.06H114.54z M114.58,97.89c-0.09,0-0.14-0.05-0.14-0.14c0-0.05,0.01-0.08,0.04-0.11l0.77-0.94
					c0.06-0.07,0.11-0.12,0.15-0.14s0.1-0.03,0.18-0.03h1.23c0.11,0,0.17,0.06,0.17,0.18c0,0.04-0.01,0.08-0.04,0.11l-1.17,0.96
					c-0.05,0.04-0.09,0.07-0.14,0.09s-0.11,0.03-0.19,0.03H114.58z"/>
				<path class="st36" d="M116.74,104.49c-0.05,0-0.09-0.02-0.13-0.06s-0.06-0.08-0.06-0.13c0-0.03,0-0.06,0.01-0.08l2.07-5.65
					c0.02-0.06,0.05-0.12,0.11-0.17s0.13-0.08,0.23-0.08h1.3c0.1,0,0.18,0.03,0.23,0.08c0.06,0.05,0.09,0.11,0.11,0.17l2.06,5.65
					c0.01,0.02,0.02,0.05,0.02,0.08c0,0.05-0.02,0.09-0.06,0.13s-0.08,0.06-0.14,0.06h-1.08c-0.09,0-0.15-0.02-0.2-0.07
					c-0.04-0.04-0.07-0.08-0.08-0.12l-0.34-0.9h-2.35l-0.33,0.9c-0.01,0.04-0.04,0.07-0.08,0.12s-0.11,0.07-0.21,0.07H116.74z
					 M118.81,102.14h1.64l-0.83-2.32L118.81,102.14z"/>
			</g>
		</g>
	</g>
	<g>
		<g>
			<g>
				<path class="st36" d="M17.69,114.09c-0.06,0-0.12-0.02-0.16-0.06s-0.06-0.09-0.06-0.16v-5.72c0-0.06,0.02-0.12,0.06-0.16
					s0.09-0.06,0.16-0.06h1.18c0.06,0,0.12,0.02,0.16,0.06s0.06,0.09,0.06,0.16v5.72c0,0.07-0.02,0.12-0.06,0.16
					s-0.09,0.06-0.16,0.06H17.69z"/>
				<path class="st36" d="M20.47,114.09c-0.06,0-0.12-0.02-0.16-0.06s-0.06-0.09-0.06-0.16v-5.72c0-0.06,0.02-0.12,0.06-0.16
					s0.09-0.06,0.16-0.06h0.93c0.1,0,0.17,0.02,0.22,0.07c0.04,0.04,0.07,0.08,0.08,0.1l2.15,3.39v-3.33c0-0.06,0.02-0.12,0.06-0.16
					s0.09-0.06,0.16-0.06h1.06c0.06,0,0.12,0.02,0.16,0.06s0.06,0.09,0.06,0.16v5.72c0,0.06-0.02,0.11-0.06,0.15
					s-0.09,0.07-0.16,0.07h-0.94c-0.09,0-0.16-0.02-0.21-0.07s-0.07-0.08-0.08-0.1l-2.15-3.26v3.2c0,0.07-0.02,0.12-0.06,0.16
					s-0.09,0.06-0.16,0.06H20.47z"/>
				<path class="st36" d="M26.73,114.09c-0.06,0-0.12-0.02-0.16-0.06s-0.06-0.09-0.06-0.16v-5.72c0-0.06,0.02-0.12,0.06-0.16
					s0.09-0.06,0.16-0.06h4.04c0.06,0,0.12,0.02,0.16,0.06s0.07,0.09,0.07,0.16v0.89c0,0.06-0.02,0.12-0.07,0.16
					s-0.1,0.06-0.16,0.06h-2.71v1.29h2.53c0.06,0,0.12,0.02,0.16,0.07s0.07,0.1,0.07,0.16v0.88c0,0.06-0.02,0.11-0.07,0.15
					s-0.1,0.07-0.16,0.07h-2.53v1.99c0,0.07-0.02,0.12-0.06,0.16s-0.09,0.06-0.16,0.06H26.73z"/>
				<path class="st36" d="M34.39,114.18c-0.54,0-1.01-0.09-1.41-0.26c-0.4-0.18-0.71-0.44-0.93-0.8c-0.22-0.35-0.35-0.8-0.37-1.33
					c-0.01-0.25-0.01-0.5-0.01-0.76s0-0.51,0.01-0.77c0.02-0.53,0.15-0.97,0.37-1.33c0.23-0.36,0.54-0.63,0.94-0.81
					c0.4-0.18,0.87-0.27,1.4-0.27c0.53,0,0.99,0.09,1.39,0.27c0.4,0.18,0.72,0.45,0.95,0.81c0.23,0.36,0.35,0.8,0.37,1.33
					c0.01,0.26,0.02,0.51,0.02,0.77s-0.01,0.5-0.02,0.76c-0.02,0.53-0.15,0.98-0.37,1.33c-0.22,0.36-0.53,0.62-0.93,0.8
					C35.39,114.09,34.93,114.18,34.39,114.18z M34.39,112.91c0.31,0,0.56-0.09,0.76-0.28c0.2-0.19,0.3-0.49,0.31-0.9
					c0.01-0.26,0.02-0.5,0.02-0.73s-0.01-0.47-0.02-0.71c-0.01-0.28-0.06-0.5-0.15-0.67c-0.09-0.17-0.22-0.3-0.37-0.38
					c-0.16-0.08-0.34-0.12-0.55-0.12c-0.2,0-0.38,0.04-0.54,0.12c-0.16,0.08-0.28,0.21-0.38,0.38c-0.09,0.17-0.15,0.4-0.16,0.67
					c-0.01,0.25-0.01,0.48-0.01,0.71s0,0.47,0.01,0.73c0.02,0.41,0.12,0.71,0.32,0.9S34.07,112.91,34.39,112.91z"/>
				<path class="st36" d="M38.28,114.09c-0.06,0-0.12-0.02-0.16-0.06s-0.06-0.09-0.06-0.16v-5.72c0-0.06,0.02-0.12,0.06-0.16
					s0.09-0.06,0.16-0.06h2.39c0.76,0,1.35,0.17,1.79,0.52c0.44,0.35,0.66,0.84,0.66,1.48c0,0.42-0.1,0.77-0.3,1.06
					c-0.2,0.29-0.47,0.5-0.8,0.65l1.21,2.16c0.02,0.04,0.03,0.07,0.03,0.1c0,0.05-0.02,0.09-0.06,0.13s-0.08,0.06-0.14,0.06h-1.16
					c-0.11,0-0.19-0.03-0.25-0.08s-0.09-0.11-0.11-0.15l-1-1.94h-0.91v1.95c0,0.07-0.02,0.12-0.06,0.16s-0.09,0.06-0.16,0.06H38.28z
					 M39.64,110.68h1.02c0.28,0,0.48-0.07,0.62-0.2s0.21-0.32,0.21-0.55c0-0.23-0.07-0.41-0.2-0.55c-0.13-0.14-0.34-0.21-0.63-0.21
					h-1.02V110.68z"/>
				<path class="st36" d="M44.29,114.09c-0.06,0-0.11-0.02-0.15-0.06s-0.07-0.09-0.07-0.16v-5.72c0-0.06,0.02-0.12,0.07-0.16
					s0.1-0.06,0.15-0.06h0.95c0.09,0,0.17,0.03,0.22,0.08s0.08,0.09,0.09,0.12l1.55,2.78l1.55-2.78c0.02-0.03,0.05-0.07,0.09-0.12
					s0.12-0.08,0.22-0.08h0.94c0.06,0,0.12,0.02,0.16,0.06s0.07,0.09,0.07,0.16v5.72c0,0.07-0.02,0.12-0.07,0.16
					s-0.1,0.06-0.16,0.06h-1.05c-0.06,0-0.12-0.02-0.16-0.06s-0.07-0.09-0.07-0.16v-3.3l-1,1.84c-0.02,0.05-0.06,0.1-0.11,0.14
					s-0.11,0.06-0.19,0.06h-0.46c-0.08,0-0.15-0.02-0.19-0.06s-0.08-0.09-0.11-0.14l-0.99-1.84v3.3c0,0.07-0.02,0.12-0.06,0.16
					s-0.09,0.06-0.16,0.06H44.29z"/>
				<path class="st36" d="M50.93,114.09c-0.05,0-0.09-0.02-0.13-0.06s-0.06-0.08-0.06-0.13c0-0.03,0-0.06,0.01-0.08l2.07-5.65
					c0.02-0.06,0.05-0.12,0.11-0.17s0.13-0.08,0.23-0.08h1.3c0.1,0,0.18,0.03,0.23,0.08c0.06,0.05,0.09,0.11,0.11,0.17l2.06,5.65
					c0.01,0.02,0.02,0.05,0.02,0.08c0,0.05-0.02,0.09-0.06,0.13s-0.08,0.06-0.14,0.06h-1.08c-0.09,0-0.15-0.02-0.2-0.07
					c-0.04-0.04-0.07-0.08-0.08-0.12l-0.34-0.9h-2.35l-0.33,0.9c-0.01,0.04-0.04,0.07-0.08,0.12s-0.11,0.07-0.21,0.07H50.93z
					 M53,111.74h1.64l-0.83-2.32L53,111.74z M53.27,107.49c-0.09,0-0.14-0.05-0.14-0.14c0-0.05,0.01-0.08,0.04-0.11l0.77-0.94
					c0.06-0.07,0.11-0.12,0.15-0.14s0.1-0.03,0.18-0.03h1.23c0.11,0,0.17,0.06,0.17,0.18c0,0.04-0.01,0.08-0.04,0.11l-1.17,0.96
					c-0.05,0.04-0.09,0.07-0.14,0.09c-0.05,0.02-0.11,0.03-0.19,0.03H53.27z"/>
				<path class="st36" d="M59.09,114.09c-0.06,0-0.12-0.02-0.16-0.06c-0.04-0.04-0.06-0.09-0.06-0.16v-4.56H57.3
					c-0.07,0-0.12-0.02-0.16-0.07s-0.06-0.09-0.06-0.15v-0.94c0-0.06,0.02-0.12,0.06-0.16s0.09-0.06,0.16-0.06h4.73
					c0.06,0,0.12,0.02,0.16,0.06s0.06,0.09,0.06,0.16v0.94c0,0.06-0.02,0.11-0.06,0.15s-0.09,0.07-0.16,0.07h-1.57v4.56
					c0,0.07-0.02,0.12-0.06,0.16s-0.09,0.06-0.16,0.06H59.09z"/>
				<path class="st36" d="M63.2,114.09c-0.06,0-0.12-0.02-0.16-0.06s-0.06-0.09-0.06-0.16v-5.72c0-0.06,0.02-0.12,0.06-0.16
					s0.09-0.06,0.16-0.06h1.18c0.06,0,0.12,0.02,0.16,0.06s0.06,0.09,0.06,0.16v5.72c0,0.07-0.02,0.12-0.06,0.16
					s-0.09,0.06-0.16,0.06H63.2z"/>
				<path class="st36" d="M68.29,114.18c-0.56,0-1.03-0.09-1.43-0.27c-0.4-0.18-0.7-0.45-0.92-0.8c-0.22-0.35-0.34-0.79-0.37-1.31
					c-0.01-0.24-0.01-0.5-0.01-0.77s0-0.54,0.01-0.79c0.02-0.51,0.15-0.94,0.37-1.3c0.22-0.36,0.53-0.62,0.93-0.81
					c0.4-0.19,0.87-0.28,1.42-0.28c0.39,0,0.75,0.05,1.07,0.14c0.33,0.1,0.62,0.24,0.86,0.42c0.25,0.18,0.44,0.41,0.58,0.67
					c0.14,0.26,0.21,0.56,0.21,0.88c0.01,0.05-0.01,0.1-0.05,0.13s-0.08,0.05-0.14,0.05h-1.19c-0.08,0-0.14-0.02-0.18-0.05
					s-0.08-0.09-0.11-0.18c-0.08-0.31-0.21-0.52-0.4-0.64c-0.18-0.11-0.41-0.17-0.68-0.17c-0.32,0-0.58,0.09-0.77,0.27
					c-0.19,0.18-0.29,0.48-0.31,0.89c-0.02,0.48-0.02,0.97,0,1.48c0.02,0.42,0.12,0.71,0.31,0.89c0.19,0.18,0.44,0.27,0.77,0.27
					c0.27,0,0.5-0.06,0.69-0.18s0.32-0.33,0.4-0.63c0.02-0.09,0.06-0.15,0.1-0.18c0.04-0.03,0.1-0.05,0.18-0.05h1.19
					c0.05,0,0.1,0.02,0.14,0.05s0.05,0.08,0.05,0.13c-0.01,0.33-0.08,0.62-0.21,0.88c-0.14,0.26-0.33,0.48-0.58,0.67
					c-0.25,0.18-0.53,0.33-0.86,0.42C69.04,114.13,68.68,114.18,68.29,114.18z"/>
				<path class="st36" d="M71.52,114.09c-0.05,0-0.09-0.02-0.13-0.06s-0.06-0.08-0.06-0.13c0-0.03,0-0.06,0.01-0.08l2.07-5.65
					c0.02-0.06,0.05-0.12,0.11-0.17s0.13-0.08,0.23-0.08h1.3c0.1,0,0.18,0.03,0.23,0.08c0.06,0.05,0.09,0.11,0.11,0.17l2.06,5.65
					c0.01,0.02,0.02,0.05,0.02,0.08c0,0.05-0.02,0.09-0.06,0.13s-0.08,0.06-0.14,0.06H76.2c-0.09,0-0.15-0.02-0.2-0.07
					c-0.04-0.04-0.07-0.08-0.08-0.12l-0.34-0.9h-2.35l-0.33,0.9c-0.01,0.04-0.04,0.07-0.08,0.12s-0.11,0.07-0.21,0.07H71.52z
					 M73.59,111.74h1.64l-0.83-2.32L73.59,111.74z"/>
			</g>
		</g>
	</g>
	<g>
		<g>
			<path class="st36" d="M17.84,90.87c-0.33-0.73-0.49-1.62-0.49-2.59c0-0.97,0.16-1.86,0.49-2.59c0.71-1.53,2.21-2.34,4.8-2.34
				c3.32,0,4.69,1.84,4.69,4.6v0.49c0,0.4-0.26,0.49-0.57,0.49h-6.19c0.16,1.42,1,1.79,2.32,1.79c0.86,0,1.7-0.15,2.67-0.69
				c0.2-0.11,0.38-0.24,0.55-0.04l1.08,1.41c0.15,0.18,0.26,0.42,0.02,0.57c-1.44,0.9-2.67,1.24-4.49,1.24
				C20.05,93.21,18.55,92.41,17.84,90.87z M24.25,87.13c-0.05-0.69-0.38-1.46-1.75-1.46c-0.99,0-1.59,0.44-1.82,1.46H24.25z"/>
			<path class="st36" d="M29.66,83.53h8.03c0.2,0,0.37,0.16,0.37,0.37v1.64c0,0.2-0.16,0.37-0.37,0.37h-2.45v4.75h2.45
				c0.2,0,0.37,0.16,0.37,0.36v1.64c0,0.2-0.16,0.36-0.37,0.36h-8.03c-0.2,0-0.36-0.16-0.36-0.36v-1.64c0-0.2,0.16-0.36,0.36-0.36
				h2.45V85.9h-2.45c-0.2,0-0.36-0.16-0.36-0.37V83.9C29.29,83.69,29.46,83.53,29.66,83.53z"/>
			<path class="st36" d="M40.43,83.53h8.03c0.2,0,0.37,0.16,0.37,0.37v1.73c0,0.2-0.16,0.37-0.37,0.37h-8.03
				c-0.2,0-0.36-0.16-0.36-0.37V83.9C40.07,83.69,40.23,83.53,40.43,83.53z M40.07,90.93c0-0.2,0.16-0.37,0.36-0.37h8.03
				c0.2,0,0.37,0.16,0.37,0.37v1.73c0,0.2-0.16,0.36-0.37,0.36h-8.03c-0.2,0-0.36-0.16-0.36-0.36V90.93z M42.79,87.29
				c0-0.31,0.26-0.57,0.57-0.57h2.19c0.31,0,0.57,0.26,0.57,0.57v1.95c0,0.31-0.26,0.57-0.57,0.57h-2.19
				c-0.31,0-0.57-0.26-0.57-0.57V87.29z"/>
		</g>
	</g>
</g>
<g id="Capa_4">
</g>
<g id="Capa_3">
</g>
</svg>
