<?xml version="1.0" encoding="UTF-8" standalone="no"?>
<!-- Created with Inkscape (http://www.inkscape.org/) -->

<svg
   version="1.1"
   id="svg132"
   width="793.70135"
   height="793.70135"
   viewBox="0 0 793.70135 793.70135"
   sodipodi:docname="logoSIANI.svg"
   inkscape:version="1.2.2 (732a01da63, 2022-12-09)"
   xmlns:inkscape="http://www.inkscape.org/namespaces/inkscape"
   xmlns:sodipodi="http://sodipodi.sourceforge.net/DTD/sodipodi-0.dtd"
   xmlns="http://www.w3.org/2000/svg"
   xmlns:svg="http://www.w3.org/2000/svg">
  <defs
     id="defs136">
    <clipPath
       clipPathUnits="userSpaceOnUse"
       id="clipPath148">
      <path
         d="M 0,595.276 H 595.276 V 0 H 0 Z"
         id="path146" />
    </clipPath>
  </defs>
  <sodipodi:namedview
     id="namedview134"
     pagecolor="#ffffff"
     bordercolor="#000000"
     borderopacity="0.25"
     inkscape:showpageshadow="2"
     inkscape:pageopacity="0.0"
     inkscape:pagecheckerboard="0"
     inkscape:deskcolor="#d1d1d1"
     showgrid="false"
     inkscape:zoom="0.97643779"
     inkscape:cx="396.85068"
     inkscape:cy="396.85068"
     inkscape:window-width="1920"
     inkscape:window-height="991"
     inkscape:window-x="-9"
     inkscape:window-y="-9"
     inkscape:window-maximized="1"
     inkscape:current-layer="g140">
    <inkscape:page
       x="0"
       y="0"
       id="page138"
       width="793.70135"
       height="793.70135" />
  </sodipodi:namedview>
  <g
     id="g140"
     inkscape:groupmode="layer"
     inkscape:label="Page 1"
     transform="matrix(1.3333333,0,0,-1.3333333,0,793.70133)">
    <g
       id="g142">
      <g
         id="g144"
         clip-path="url(#clipPath148)">
        <g
           id="g150"
           transform="translate(274.4351,445.7773)">
          <path
             d="m 0,0 c 29.668,3.751 59.438,6.756 89.249,9.06 -1.403,-5.728 -1.807,-11.877 -1.09,-18.166 0.295,-1.587 0.652,-3.175 1.043,-4.748 -30.09,-14.927 -60.094,-30.011 -89.98,-45.375 -6.437,8.78 -12.796,17.622 -19.092,26.525 C -10.04,-24.407 -3.043,-12.717 0,0 m 46.254,-120.901 c -11.23,14.165 -22.275,28.486 -33.148,42.947 28.82,14.243 57.447,28.859 85.963,43.662 2.771,-3.658 5.963,-6.958 9.512,-9.775 -13.231,-24.516 -27.459,-48.535 -42.588,-71.899 -1.465,-0.032 -2.897,-0.125 -4.297,-0.249 -5.028,-0.763 -10.383,-2.335 -15.442,-4.686 M 63.969,77.924 C 85.481,70.499 104.75,57.517 119.709,40.301 112.301,38.511 105.997,34.915 101.016,30.058 67.581,28.128 34.221,24.89 1.043,20.267 c -0.623,3.3 -1.58,6.351 -2.841,9.153 11.573,13.106 23.699,25.715 36.533,37.56 2.553,-0.062 4.92,0.063 6.771,0.25 6.305,0.918 18.166,4.171 22.463,10.694 M -101.514,-83.869 c -1.276,4.047 -2.374,8.172 -3.269,12.39 C -119.656,-1.525 -75.005,67.23 -5.051,82.111 1.93,83.59 8.912,84.477 15.814,84.819 14.602,83.231 13.776,81.41 13.55,79.262 13.612,75.729 15.27,73.16 17.792,71.308 7.339,62.327 -2.607,52.722 -12.142,42.713 c -8.001,6.149 -18.827,8.468 -30.843,5.666 -23.1,-6.755 -41.188,-26.882 -44.122,-50.963 -1.479,-24.828 16.85,-44.41 42.113,-41.935 2.771,0.483 5.449,1.168 8.033,2.055 6.008,-8.732 12.133,-17.387 18.344,-25.979 -20.78,-10.803 -41.491,-21.746 -62.085,-32.86 -5.145,8.032 -12.173,15.145 -20.812,17.434 M 40.62,-172.658 c -43.01,-6.336 -84.788,9.418 -113.002,39.274 1.136,4.404 0.739,9.805 -0.366,14.507 22.703,10.367 45.258,21.076 67.697,32.003 11.542,-15.395 23.403,-30.54 35.575,-45.42 -5.354,-6.211 -8.217,-14.041 -6.241,-23.21 2.661,-8.547 8.825,-13.978 16.337,-17.154 m 110.548,120.73 c -1.992,-35.195 -18.367,-67.743 -44.394,-90.392 -1.275,11.457 -9.479,18.773 -19.596,22.727 14.694,21.294 28.252,43.445 40.596,66.249 4.902,-1.106 10.07,-1.417 15.457,-0.794 2.769,0.498 5.416,1.245 7.937,2.21"
             style="fill:#2f2c70;fill-opacity:1;fill-rule:evenodd;stroke:none"
             id="path152" />
        </g>
        <g
           id="g154"
           transform="translate(411.875,486.187)">
          <path
             d="m 0,0 c -4.109,5.588 -8.623,10.85 -13.449,15.752 -33.172,33.592 -82.219,50.092 -131.821,39.539 -77.401,-16.454 -126.8,-92.525 -110.363,-169.919 0.888,-4.156 1.946,-8.234 3.168,-12.219 -6.405,-5.993 -4.989,-18.711 -1.977,-26.712 5.596,-13.106 16.944,-26.104 31.56,-28.813 0.895,-0.108 1.728,-0.139 2.538,-0.123 33.155,-35.553 83.62,-53.331 134.637,-42.481 64.941,13.807 110.191,69.596 113.336,132.919 0.141,2.77 0.203,5.541 0.172,8.358 -0.078,9.449 -1.121,19.022 -3.145,28.642 C 20.283,-34.494 11.689,-15.893 0,0 m 46.791,-50.34 c 2.988,-14.026 4.109,-28.019 3.518,-41.717 -3.161,-73.798 -55.696,-139.005 -131.315,-155.069 -89.62,-19.053 -177.724,38.152 -196.769,127.781 -19.045,89.63 38.16,177.748 127.789,196.786 C -90.469,90.096 -31.6,69.113 6.787,27.349 26.213,6.211 40.395,-20.236 46.791,-50.34"
             style="fill:#223b3f;fill-opacity:1;fill-rule:evenodd;stroke:none"
             id="path156" />
        </g>
        <g
           id="g158"
           transform="translate(111.3579,53.5137)">
          <path
             d="M 0,0 H -98.362 V 22.805 H 0 c 5.168,0 9.23,1.494 12.227,4.482 2.981,3.129 4.483,7.192 4.483,12.236 0,5.137 -1.502,9.231 -4.483,12.204 C 9.23,54.715 5.168,56.209 0,56.209 h -59.058 c -11.394,0 -20.842,3.721 -28.306,11.207 -7.332,7.598 -10.998,17.029 -10.998,28.285 0,11.408 3.729,20.858 11.208,28.33 7.456,7.455 16.835,11.192 28.096,11.192 h 98.572 v -22.821 h -98.572 c -5.035,0 -9.02,-1.541 -12.016,-4.67 -2.981,-2.988 -4.476,-6.988 -4.476,-12.031 0,-5.013 1.495,-9.076 4.476,-12.205 2.996,-2.988 6.981,-4.482 12.016,-4.482 H 0 c 11.402,0 20.851,-3.721 28.314,-11.207 7.472,-7.457 11.2,-16.891 11.2,-28.284 0,-11.425 -3.728,-20.859 -11.2,-28.332 C 20.851,3.736 11.402,0 0,0"
             style="fill:#2f2c70;fill-opacity:1;fill-rule:evenodd;stroke:none"
             id="path160" />
        </g>
        <path
           d="m 175.124,188.736 h 22.804 V 53.513 h -22.804 z"
           style="fill:#2f2c70;fill-opacity:1;fill-rule:evenodd;stroke:none"
           id="path162" />
        <g
           id="g164"
           transform="translate(338.7148,53.5137)">
          <path
             d="M 0,0 V 21.996 H -89.613 V 0 h -22.797 v 67.807 c 0,19.566 6.312,35.646 18.936,48.269 12.764,12.764 28.992,19.147 48.659,19.147 18.336,0 33.809,-5.635 46.45,-16.905 14.117,-12.343 21.17,-29.187 21.17,-50.511 L 22.805,0 Z m 0,44.814 v 22.993 c 0,13.994 -4.67,25.123 -14.041,33.42 -8.42,7.455 -18.672,11.175 -30.774,11.175 -13.433,0 -24.29,-4.14 -32.563,-12.406 C -85.535,91.84 -89.613,81.115 -89.613,67.807 V 44.814 Z"
             style="fill:#2f2c70;fill-opacity:1;fill-rule:evenodd;stroke:none"
             id="path166" />
        </g>
        <g
           id="g168"
           transform="translate(504.0254,53.5137)">
          <path
             d="m 0,0 v 67.807 c 0,13.308 -4.141,24.033 -12.422,32.189 -8.281,8.266 -19.084,12.406 -32.392,12.406 -13.434,0 -24.299,-4.14 -32.581,-12.406 -8.14,-8.156 -12.218,-18.881 -12.218,-32.189 V 0 h -22.805 v 67.807 c 0,19.55 6.305,35.646 18.93,48.269 12.763,12.764 28.982,19.147 48.674,19.147 19.691,0 35.849,-6.383 48.472,-19.147 12.78,-12.623 19.147,-28.719 19.147,-48.269 V 0 Z"
             style="fill:#2f2c70;fill-opacity:1;fill-rule:evenodd;stroke:none"
             id="path170" />
        </g>
        <path
           d="m 557.105,188.736 h 22.82 V 53.513 h -22.82 z"
           style="fill:#2f2c70;fill-opacity:1;fill-rule:evenodd;stroke:none"
           id="path172" />
      </g>
    </g>
  </g>
</svg>
