<?xml version="1.0" encoding="UTF-8" standalone="no"?>
<svg
   version="1.1"
   id="Layer_1"
   x="0px"
   y="0px"
   width="100%"
   viewBox="0 0 320 320"
   enable-background="new 0 0 320 320"
   xml:space="preserve"
   sodipodi:docname="dbt.svg"
   inkscape:version="1.2.2 (732a01da63, 2022-12-09)"
   xmlns:inkscape="http://www.inkscape.org/namespaces/inkscape"
   xmlns:sodipodi="http://sodipodi.sourceforge.net/DTD/sodipodi-0.dtd"
   xmlns="http://www.w3.org/2000/svg"
   xmlns:svg="http://www.w3.org/2000/svg"><defs
   id="defs315" /><sodipodi:namedview
   id="namedview313"
   pagecolor="#ffffff"
   bordercolor="#000000"
   borderopacity="0.25"
   inkscape:showpageshadow="2"
   inkscape:pageopacity="0.0"
   inkscape:pagecheckerboard="0"
   inkscape:deskcolor="#d1d1d1"
   showgrid="false"
   inkscape:zoom="2.5125"
   inkscape:cx="96.119403"
   inkscape:cy="160.199"
   inkscape:window-width="1920"
   inkscape:window-height="991"
   inkscape:window-x="-9"
   inkscape:window-y="-9"
   inkscape:window-maximized="1"
   inkscape:current-layer="Layer_1" />

<path
   fill="#FF694A"
   opacity="1.000000"
   stroke="none"
   d=" M134.212143,255.059540   C134.212143,255.059540 134.602814,255.196899 134.363953,255.635605   C133.083374,257.716217 132.041687,259.358093 130.750000,261.000000   C130.500000,261.000000 130.000000,261.000000 129.770782,261.169006   C129.027725,261.891998 128.513870,262.446014 127.703850,263.111267   C126.605133,263.481689 125.802567,263.740845 124.770782,264.169006   C124.027710,264.891998 123.513847,265.445984 122.703842,266.111267   C121.605125,266.481659 120.802559,266.740814 119.770782,267.169006   C119.027718,267.891998 118.513855,268.445984 117.697250,269.160950   C114.263000,270.881256 111.131500,272.440643 107.770798,274.169006   C107.027725,274.891998 106.513863,275.446014 105.696625,276.161255   C99.928833,279.215027 94.464417,282.107513 88.770790,285.169006   C88.027718,285.891998 87.513855,286.446014 86.690422,287.154968   C81.920563,289.539948 77.460281,291.769958 72.770790,294.169006   C72.027725,294.891998 71.513863,295.446014 70.686920,296.155701   C67.249237,297.540924 64.124626,298.770447 60.637154,300.096588   C56.516193,300.795441 52.758095,301.397736 48.666668,302.000000   C47.888889,302.000000 47.444447,302.000000 46.830978,301.770813   C46.107971,301.027740 45.553986,300.513855 44.636063,299.933716   C41.181416,298.244965 38.090710,296.622467 34.830978,294.770782   C34.107971,294.027710 33.553986,293.513855 32.750000,293.000000   C32.500000,293.000000 32.000000,293.000000 31.856758,292.723358   C30.809013,291.631134 29.904509,290.815582 29.000000,289.750000   C28.999996,289.500000 28.999990,289.000000 28.830971,288.770782   C28.107967,288.027710 27.553984,287.513855 26.864801,286.755188   C26.486401,286.006927 26.243198,285.503479 25.830978,284.770782   C25.107975,284.027710 24.553988,283.513855 23.850315,282.683746   C23.133739,280.578339 22.566851,278.789154 21.830950,276.770813   C21.107985,276.027740 20.554031,275.513855 20.000063,274.666687   C20.000034,273.888885 20.000017,273.444458 20.091644,272.682098   C20.788832,268.576141 21.394379,264.788055 22.066946,260.633392   C26.089312,252.511185 30.044657,244.755600 34.229218,236.830978   C34.972290,236.107971 35.486149,235.553986 36.098587,234.676804   C36.798111,232.902405 37.399055,231.451202 38.229214,229.830978   C38.972286,229.107971 39.486145,228.553986 40.105858,227.660614   C41.807808,224.214157 43.403904,221.107071 45.229218,217.830978   C45.972294,217.107971 46.486149,216.553986 47.106522,215.658936   C49.808689,210.545258 52.404346,205.772629 55.229210,200.830963   C55.972275,200.107956 56.486134,199.553970 57.104141,198.664841   C58.472198,195.886459 59.736099,193.443237 61.229214,190.830978   C61.972282,190.107971 62.486141,189.553986 63.102043,188.663788   C63.802723,186.551712 64.401367,184.775864 65.229210,182.830994   C65.972282,182.107971 66.486137,181.553986 67.000000,180.625000   C67.000000,179.500000 67.000000,178.750000 67.241959,177.781662   C67.989281,175.375549 68.494637,173.187775 69.000000,170.666672   C69.000000,169.888901 69.000000,169.444443 69.249420,168.723145   C72.390762,159.093964 71.353905,150.261414 66.000000,141.666672   C66.000000,140.888901 66.000000,140.444443 65.890121,139.694061   C64.853500,138.258759 63.926750,137.129379 62.917427,135.666473   C62.556572,134.221970 62.278286,133.110977 61.830978,131.770782   C61.107971,131.027725 60.553986,130.513855 59.888741,129.703857   C59.518326,128.605133 59.259163,127.802567 58.830986,126.770782   C58.107979,126.027710 57.553989,125.513855 57.000000,124.750000   C57.000000,124.500000 57.000000,124.000000 56.890121,123.694077   C55.853500,122.258759 54.926750,121.129379 54.000000,119.750000   C54.000000,119.500000 54.000000,119.000000 53.830986,118.770782   C53.107979,118.027718 52.553993,117.513863 52.000004,116.666672   C52.000000,115.888893 52.000000,115.444443 51.830986,114.770782   C51.107983,114.027710 50.553993,113.513855 50.000000,112.750000   C50.000000,112.500000 50.000000,112.000000 49.830986,111.770782   C49.107983,111.027710 48.553997,110.513855 48.000008,109.666672   C48.000000,108.888893 48.000000,108.444443 47.830986,107.770782   C47.107979,107.027718 46.553989,106.513855 45.888741,105.703850   C45.518318,104.605133 45.259159,103.802567 44.830986,102.770782   C44.107979,102.027718 43.553989,101.513855 43.000000,100.750000   C43.000000,100.500000 43.000000,100.000000 42.830986,99.770782   C42.107979,99.027718 41.553993,98.513863 41.000004,97.666672   C41.000000,96.888893 41.000000,96.444443 40.830986,95.770782   C40.107979,95.027718 39.553989,94.513863 39.000000,93.750000   C39.000000,93.500000 39.000000,93.000000 38.830982,92.770782   C38.107979,92.027718 37.553993,91.513863 37.000000,90.666672   C37.000000,89.888893 37.000000,89.444443 36.830986,88.770782   C36.107979,88.027718 35.553989,87.513855 35.000000,86.750000   C35.000000,86.500000 35.000000,86.000000 34.830986,85.770782   C34.107983,85.027710 33.553997,84.513855 33.000008,83.666672   C33.000000,82.888893 33.000000,82.444443 32.830986,81.770782   C32.107979,81.027718 31.553988,80.513863 30.999996,79.750000   C30.999992,79.500000 30.999985,79.000000 30.830975,78.770790   C30.108000,78.027725 29.554037,77.513863 29.000055,76.666672   C29.000019,75.888893 29.000000,75.444443 28.830967,74.770782   C28.107969,74.027718 27.553984,73.513855 26.999996,72.750000   C26.999992,72.500000 26.999985,72.000000 26.890108,71.694077   C25.853514,70.258766 24.926794,69.129379 23.894558,67.653252   C23.192665,65.204353 22.596294,63.102207 21.908852,60.628716   C21.878494,55.171566 21.939209,50.085758 22.065582,44.638062   C23.420828,41.517448 24.710413,38.758724 26.229540,35.798225   C26.972721,34.730965 27.486361,33.865482 28.193815,32.741882   C29.925089,30.989180 31.462545,29.494591 33.290257,27.898836   C34.387005,27.198446 35.193504,26.599224 36.274223,25.795389   C39.365616,24.393827 42.182785,23.196877 45.381535,21.910305   C52.006084,19.677521 58.062416,20.420549 64.336212,23.102016   C66.448288,23.802736 68.224144,24.401407 70.169014,25.229279   C70.892021,25.972315 71.446007,26.486151 72.250000,26.999989   C72.500000,26.999992 73.000000,27.000000 73.169014,27.229210   C73.892021,27.972273 74.446007,28.486126 75.323196,29.098562   C77.097603,29.798098 78.548798,30.399050 80.169014,31.229214   C80.892021,31.972284 81.446007,32.486141 82.323196,33.098579   C84.097603,33.798107 85.548798,34.399055 87.169014,35.229214   C87.892014,35.972286 88.446007,36.486145 89.333328,37.000000   C90.111107,37.000008 90.555557,37.000015 91.169014,37.229233   C91.892014,37.972298 92.446007,38.486149 93.250000,39.000000   C93.500000,39.000000 94.000000,39.000000 94.169014,39.229214   C94.892021,39.972286 95.446007,40.486145 96.303711,41.088570   C97.404945,41.451427 98.202469,41.725712 99.169014,42.229218   C99.892014,42.972290 100.446007,43.486145 101.323196,44.098579   C103.097603,44.798103 104.548798,45.399052 106.169014,46.229214   C106.892021,46.972286 107.446007,47.486145 108.333328,48.000000   C109.111107,48.000008 109.555557,48.000015 110.169014,48.229229   C110.892021,48.972294 111.446014,49.486145 112.250000,50.000000   C112.500000,50.000000 113.000000,50.000000 113.169014,50.229214   C113.892021,50.972286 114.446007,51.486141 115.303711,52.088570   C116.404945,52.451427 117.202469,52.725712 118.169014,53.229218   C118.892014,53.972286 119.446007,54.486145 120.303711,55.088570   C121.404945,55.451424 122.202469,55.725712 123.169014,56.229214   C123.892021,56.972286 124.446007,57.486141 125.303711,58.088570   C126.404945,58.451424 127.202469,58.725712 128.169006,59.229218   C128.892014,59.972286 129.446014,60.486145 130.303711,61.088570   C131.404953,61.451427 132.202469,61.725716 133.169006,62.229218   C133.892014,62.972286 134.446014,63.486145 135.333328,64.000000   C136.111099,64.000000 136.555557,64.000000 137.169006,64.229218   C137.892029,64.972282 138.446014,65.486137 139.250000,66.000000   C139.500000,66.000000 140.000000,66.000000 140.169006,66.229218   C140.892014,66.972282 141.446014,67.486145 142.303711,68.088570   C143.404938,68.451424 144.202469,68.725708 145.169006,69.229218   C145.892014,69.972282 146.446014,70.486145 147.303711,71.088570   C148.404938,71.451424 149.202469,71.725716 150.169006,72.229218   C150.892014,72.972290 151.445999,73.486145 152.303711,74.088570   C153.404938,74.451431 154.202469,74.725716 155.169006,75.229218   C155.892014,75.972282 156.446014,76.486145 157.333328,77.000000   C158.111099,77.000000 158.555557,77.000000 159.169006,77.229218   C159.892014,77.972282 160.446014,78.486137 161.250000,79.000000   C161.500000,79.000000 162.000000,79.000000 162.169006,79.229218   C162.892014,79.972282 163.446014,80.486137 164.411499,80.997009   C165.920349,80.981995 167.017685,80.969963 168.115036,80.957932   C169.207138,81.587639 170.299240,82.217339 171.722961,83.261108   C173.109436,84.129768 174.164307,84.584351 175.219162,85.038940   C175.731903,85.204605 176.244659,85.370262 176.983002,86.084267   C185.805725,92.088402 194.402863,97.544205 203.189667,103.173058   C207.817230,103.260429 208.578583,101.416779 206.000000,96.666672   C206.000000,95.888893 206.000000,95.444443 206.001236,94.803261   C205.668304,94.071014 205.334152,93.535507 205.000000,92.666672   C205.000000,91.888893 205.000000,91.444443 205.001236,90.803253   C204.668320,90.071007 204.334167,89.535500 204.000000,88.625000   C204.000000,87.500000 204.000000,86.750000 203.830994,85.770782   C203.107971,85.027718 202.553986,84.513863 201.891510,83.664612   C200.522034,80.552811 199.261017,77.776405 197.830994,74.770790   C197.107971,74.027725 196.553986,73.513863 195.864792,72.755203   C195.486389,72.006943 195.243195,71.503471 194.868179,70.689682   C193.490906,67.252907 192.245453,64.126450 191.250000,61.000000   C191.500000,61.000000 192.000000,61.000000 192.229218,60.830986   C192.972290,60.107979 193.486145,59.553993 194.284180,58.815414   C197.045578,57.420544 199.522781,56.210274 202.229202,54.830978   C202.972275,54.107967 203.486130,53.553978 204.296143,52.888741   C205.394867,52.518326 206.197433,52.259163 207.229218,51.830978   C207.972275,51.107971 208.486130,50.553982 209.302856,49.839012   C216.737152,45.785355 223.868576,41.892677 231.229218,37.830978   C231.972275,37.107971 232.486130,36.553986 233.303223,35.854332   C235.070953,35.139114 236.535477,34.569557 238.229218,33.830982   C238.972290,33.107979 239.486145,32.553993 240.307953,31.847160   C242.743942,30.796211 244.871964,29.898102 247.229218,28.830980   C247.972275,28.107979 248.486145,27.553989 249.303223,26.854340   C251.070953,26.139118 252.535477,25.569559 254.229218,24.830982   C254.972275,24.107975 255.486130,23.553986 256.325989,22.889791   C257.767975,22.519711 258.883972,22.259836 260.229187,21.830950   C260.972260,21.107985 261.486145,20.554031 262.333313,20.000065   C263.111115,20.000032 263.555542,20.000017 264.307922,20.064957   C267.410553,20.086609 270.205292,20.043304 273.333313,20.000011   C274.111115,20.000040 274.555542,20.000059 275.178223,20.264112   C276.570953,21.352074 277.785461,22.176001 279.339844,23.056011   C280.786469,23.408066 281.893219,23.704035 283.169006,24.229210   C283.891998,24.972275 284.446014,25.486137 285.255066,26.114723   C286.006744,26.486298 286.503357,26.743147 287.169006,27.229206   C287.891998,27.972277 288.446014,28.486137 289.276642,29.143253   C290.368866,30.191000 291.184418,31.095495 292.143250,32.276627   C293.190979,33.368843 294.095490,34.184422 295.135193,35.244797   C295.513611,35.993061 295.756805,36.496529 296.169006,37.229206   C296.891998,37.972279 297.446014,38.486141 298.110199,39.325966   C298.480286,40.767948 298.740143,41.883965 299.097961,43.367004   C301.121796,49.412159 302.655365,55.108555 299.932983,61.366646   C299.261688,63.444317 298.876312,65.275139 298.016571,66.846413   C293.409576,75.266617 288.684357,83.622139 283.770813,92.169022   C283.027740,92.892029 282.513855,93.446014 281.901428,94.323196   C281.201874,96.097588 280.600922,97.548790 279.770813,99.169014   C279.027710,99.892021 278.513855,100.446007 277.911438,101.303703   C277.548584,102.404938 277.274292,103.202469 276.770813,104.169022   C276.027740,104.892029 275.513855,105.446014 274.894165,106.339394   C273.192230,109.785866 271.596130,112.892937 269.770813,116.169037   C269.027740,116.892044 268.513885,117.446030 267.895874,118.335159   C266.527802,121.113525 265.263916,123.556763 263.770813,126.169022   C263.027740,126.892029 262.513855,127.446014 261.911438,128.303711   C261.548584,129.404953 261.274292,130.202484 260.770782,131.169006   C260.027710,131.892014 259.513855,132.446014 258.897949,133.336212   C258.197266,135.448273 257.598633,137.224136 256.770782,139.169006   C256.027710,139.892014 255.513855,140.445999 255.000000,141.375000   C255.000000,142.500000 255.000000,143.250000 254.758057,144.218338   C254.010727,146.624451 253.505371,148.812225 253.000000,151.333328   C253.000000,152.111099 253.000000,152.555557 252.750641,153.276840   C250.283997,158.779419 249.887543,163.946350 253.000000,169.333328   C253.000000,170.111099 253.000000,170.555557 252.998764,171.196747   C253.331680,171.928986 253.665848,172.464493 254.000000,173.333328   C254.000000,174.111099 254.000000,174.555557 253.944931,175.281006   C254.593246,177.041351 255.296631,178.520676 256.106720,180.342316   C257.475616,183.789749 258.737823,186.894882 260.169006,190.229218   C260.891998,190.972275 261.446014,191.486145 262.111267,192.296143   C262.481689,193.394867 262.740845,194.197433 263.169006,195.229218   C263.891998,195.972275 264.446014,196.486130 265.159821,197.300903   C266.546448,200.067871 267.773224,202.533936 269.169006,205.229218   C269.891998,205.972290 270.446014,206.486145 271.111267,207.296143   C271.481689,208.394867 271.740845,209.197433 272.169006,210.229218   C272.891998,210.972275 273.446014,211.486145 274.145691,212.303223   C274.860901,214.070953 275.430450,215.535477 276.169006,217.229218   C276.891998,217.972290 277.445984,218.486145 278.154846,219.309387   C280.206482,223.412521 282.103241,227.206268 284.169006,231.229218   C284.891998,231.972275 285.446014,232.486145 286.145691,233.303223   C286.860901,235.070953 287.430450,236.535477 288.169006,238.229218   C288.891998,238.972290 289.446014,239.486145 290.149353,240.300293   C291.199158,242.400391 292.099579,244.200195 293.154144,246.235916   C294.454498,246.558929 295.600677,246.646042 296.746887,246.733139   C297.135010,247.431854 297.523132,248.130554 297.779846,249.543671   C297.765625,251.838730 297.882812,253.419357 298.154144,255.235931   C299.454498,255.558945 300.600708,255.646042 301.746918,255.733139   C301.746918,255.733139 301.894989,256.041840 301.651520,256.614563   C301.272064,257.458221 301.136047,257.729095 301.000000,258.250000   C301.000000,258.500000 301.000000,259.000000 301.000000,259.250000   C301.000000,259.500000 301.000000,260.000000 300.998779,260.196747   C301.331726,260.928986 301.665863,261.464478 302.000000,262.333313   C302.000000,263.111115 302.000000,263.555542 301.983673,264.388824   C301.978241,267.185089 301.989136,269.592560 302.028381,272.290344   C301.704498,274.053802 301.352264,275.526917 300.859283,277.243469   C300.664673,278.488220 300.610840,279.489502 300.557007,280.490814   C300.611176,281.535828 300.665344,282.580872 300.090454,283.982452   C298.640930,285.226013 297.820465,286.113007 296.687988,287.132874   C293.250641,289.510498 290.125305,291.755249 286.770782,294.169006   C286.027710,294.892029 285.513855,295.446014 284.720795,296.190308   C282.961060,296.920410 281.480530,297.460205 279.694092,298.109894   C278.258759,299.146515 277.129395,300.073273 275.666687,301.000000   C274.888885,301.000000 274.444458,301.000000 273.803253,300.998779   C273.071014,301.331726 272.535522,301.665863 271.576843,301.996094   C268.435791,301.661469 265.717896,301.330750 262.830994,300.770782   C262.108002,300.027710 261.554016,299.513855 260.633331,298.932983   C257.798462,297.887451 255.192474,297.159546 252.884033,295.890411   C235.809036,286.502991 218.661240,277.236450 201.788742,267.494781   C174.092163,251.503616 146.586288,235.182175 118.808884,218.796234   C116.667923,217.149536 115.189217,216.917572 115.000000,220.399994   C115.000000,221.866653 115.000000,222.933334 114.998772,224.196732   C115.331696,224.928970 115.665848,225.464493 116.000000,226.333328   C116.000000,227.111099 116.000000,227.555557 115.943558,228.303421   C116.924744,231.071228 117.962372,233.535614 119.143250,236.276642   C120.190987,237.368866 121.095490,238.184433 122.204025,239.400208   C122.555908,240.060852 122.703766,240.321289 122.851608,240.581711   C122.642761,240.427338 122.433914,240.272964 122.225067,240.118591   C122.454422,240.004318 122.683777,239.890045 123.247795,240.444366   C123.721649,241.742188 123.860825,242.371384 124.143616,243.325089   C124.599792,244.286942 124.912369,244.924301 125.224930,245.561676   C125.924156,245.676941 126.623390,245.792206 127.327469,246.585724   C127.554878,248.842667 127.777435,250.421326 128.303696,252.088562   C129.404938,252.451431 130.202469,252.725708 131.292709,253.243652   C132.460999,254.011368 133.336578,254.535446 134.212143,255.059540  M179.469437,155.600311   C175.646286,151.733536 171.823151,147.866776 167.712814,143.370850   C163.819427,138.253723 160.419586,137.855820 155.600296,142.530609   C151.066864,147.020401 146.533432,151.510208 141.445084,156.411026   C138.162338,159.808029 138.421005,163.000092 142.530609,166.399704   C147.020401,170.933136 151.510208,175.466568 156.410492,180.554779   C160.873322,183.877365 163.108871,183.549133 167.399704,178.469406   C171.599808,174.312943 175.799911,170.156479 180.554916,165.588974   C183.837662,162.191971 183.578995,158.999908 179.469437,155.600311  z"
   id="path4" />
<path
   fill="#FF6849"
   opacity="1.000000"
   stroke="none"
   d=" M116.000000,228.000000   C116.000000,227.555557 116.000000,227.111099 115.885269,226.078278   C115.513702,224.993271 115.256851,224.496643 115.000000,224.000000   C115.000000,222.933334 115.000000,221.866653 115.325966,220.289764   C116.767952,219.519699 117.883972,219.259842 119.000000,219.000000   C146.586288,235.182175 174.092163,251.503616 201.788742,267.494781   C218.661240,277.236450 235.809036,286.502991 252.884033,295.890411   C255.192474,297.159546 257.798462,297.887451 260.802338,299.162170   C261.892029,299.972290 262.446014,300.486145 263.000000,301.000000   C265.717896,301.330750 268.435791,301.661469 271.831909,301.881348   C273.006714,301.513672 273.503357,301.256836 274.000000,301.000000   C274.444458,301.000000 274.888885,301.000000 275.972595,300.890106   C277.741211,299.853455 278.870605,298.926727 280.000000,298.000000   C281.480530,297.460205 282.961060,296.920410 284.950012,296.021301   C285.972290,295.108002 286.486145,294.553986 287.000000,294.000000   C290.125305,291.755249 293.250641,289.510498 296.698608,287.411438   C297.028442,287.742828 297.035583,287.928528 297.042725,288.114197   C291.999084,296.731323 283.761566,300.783081 274.795135,303.966583   C265.857483,307.139923 258.711487,302.645355 251.543152,298.733032   C238.119873,291.406830 224.823669,283.842560 211.573166,276.206329   C192.496414,265.212433 173.496185,254.085495 154.485565,242.977249   C142.600952,236.032822 130.757294,229.018311 117.619865,222.618759   C119.080452,227.453613 120.541039,232.288452 122.011475,237.783096   C122.014214,238.628601 122.007103,238.814301 122.000000,239.000000   C121.095490,238.184433 120.190987,237.368866 119.049576,235.925049   C117.875107,232.864548 116.937553,230.432281 116.000000,228.000000  z"
   id="path6" />
<path
   fill="#FF6849"
   opacity="1.000000"
   stroke="none"
   d=" M270.000000,116.000008   C271.596130,112.892937 273.192230,109.785866 275.123383,106.170380   C275.972290,105.107971 276.486145,104.553986 277.000000,104.000000   C277.274292,103.202469 277.548584,102.404938 278.140656,101.134689   C278.972290,100.107964 279.486145,99.553978 280.000000,98.999992   C280.600922,97.548790 281.201874,96.097588 282.130615,94.154175   C282.972290,93.107971 283.486145,92.553978 284.000000,92.000000   C288.684357,83.622139 293.409576,75.266617 298.016571,66.846413   C298.876312,65.275139 299.261688,63.444317 300.197876,61.187317   C301.964325,59.094696 303.398834,57.548019 304.833374,56.001343   C302.900726,61.154057 301.602936,66.665840 298.926514,71.397850   C286.791443,92.852989 274.110504,113.998940 261.930176,135.429016   C251.065369,154.544571 253.461349,173.009308 264.716705,191.360535   C275.711456,209.286896 285.867065,227.727905 295.917938,246.170776   C294.629913,246.265701 293.814941,246.132843 293.000000,246.000000   C292.099579,244.200195 291.199158,242.400391 289.980347,240.071091   C289.108002,239.027710 288.554016,238.513855 288.000000,238.000000   C287.430450,236.535477 286.860901,235.070953 285.976685,233.074005   C285.108002,232.027725 284.553986,231.513855 284.000000,231.000000   C282.103241,227.206268 280.206482,223.412521 277.985840,219.080185   C277.108002,218.027710 276.553986,217.513855 276.000000,217.000000   C275.430450,215.535477 274.860901,214.070953 273.976685,212.074005   C273.108002,211.027725 272.553986,210.513855 272.000000,210.000000   C271.740845,209.197433 271.481689,208.394867 270.942261,207.066940   C270.108002,206.027710 269.554016,205.513855 269.000000,205.000000   C267.773224,202.533936 266.546448,200.067871 264.990814,197.071686   C264.107971,196.027725 263.553986,195.513870 263.000000,195.000000   C262.740845,194.197433 262.481689,193.394867 261.942261,192.066940   C261.108002,191.027725 260.553986,190.513870 260.000000,190.000000   C258.737823,186.894882 257.475616,183.789749 256.016968,180.014099   C255.213654,177.895706 254.606827,176.447845 254.000000,175.000000   C254.000000,174.555557 254.000000,174.111099 253.885269,173.078278   C253.513687,171.993286 253.256836,171.496643 253.000000,171.000000   C253.000000,170.555557 253.000000,170.111099 253.000000,168.866470   C253.000000,163.044189 253.000000,158.022095 253.000000,153.000000   C253.000000,152.555557 253.000000,152.111099 253.151840,151.008087   C253.869125,148.233032 254.434570,146.116516 255.000000,144.000000   C255.000000,143.250000 255.000000,142.500000 255.229218,141.205994   C255.972275,140.107986 256.486145,139.554001 257.000000,139.000000   C257.598633,137.224136 258.197266,135.448273 259.127197,133.167206   C259.972290,132.107986 260.486145,131.553986 261.000000,131.000000   C261.274292,130.202484 261.548584,129.404953 262.140656,128.134689   C262.972290,127.107979 263.486145,126.553993 264.000000,126.000000   C265.263916,123.556763 266.527802,121.113525 268.125061,118.166138   C268.972290,117.107979 269.486145,116.553993 270.000000,116.000008  z"
   id="path8" />
<path
   fill="#FF6849"
   opacity="1.000000"
   stroke="none"
   d=" M133.000000,62.000000   C132.202469,61.725716 131.404953,61.451427 130.134705,60.859356   C129.107986,60.027718 128.554001,59.513859 128.000000,59.000000   C127.202469,58.725712 126.404945,58.451424 125.134689,57.859352   C124.107986,57.027714 123.553993,56.513855 123.000000,56.000000   C122.202469,55.725712 121.404945,55.451424 120.134689,54.859352   C119.107979,54.027718 118.553986,53.513859 118.000000,53.000000   C117.202469,52.725712 116.404945,52.451427 115.134689,51.859356   C114.107979,51.027714 113.553993,50.513859 113.000000,50.000000   C113.000000,50.000000 112.500000,50.000000 112.080986,49.770786   C111.107979,49.027721 110.553986,48.513870 110.000000,48.000023   C109.555557,48.000015 109.111107,48.000008 108.164322,47.770786   C107.107979,47.027714 106.553993,46.513859 106.000000,46.000000   C104.548798,45.399052 103.097603,44.798103 101.154190,43.869366   C100.107979,43.027714 99.553993,42.513859 99.000000,42.000000   C98.202469,41.725712 97.404945,41.451427 96.134689,40.859356   C95.107979,40.027714 94.553993,39.513859 94.000000,39.000000   C94.000000,39.000000 93.500000,39.000000 93.080986,38.770782   C92.107979,38.027718 91.553993,37.513866 91.000000,37.000019   C90.555557,37.000015 90.111107,37.000008 89.164322,36.770786   C88.107979,36.027714 87.553993,35.513859 87.000000,35.000000   C85.548798,34.399055 84.097603,33.798107 82.154190,32.869362   C81.107979,32.027710 80.553986,31.513857 80.000000,31.000000   C78.548798,30.399050 77.097603,29.798098 75.154190,28.869349   C74.107979,28.027700 73.553993,27.513849 73.000000,27.000000   C73.000000,27.000000 72.500000,26.999992 72.080986,26.770781   C71.107979,26.027739 70.553993,25.513908 70.000000,25.000076   C68.224144,24.401407 66.448288,23.802736 64.143982,22.828564   C61.077415,20.690926 58.539295,18.928789 56.001179,17.166653   C58.982449,17.930153 62.281235,18.116175 64.892776,19.552105   C80.321373,28.035368 95.669899,36.672085 110.892349,45.520416   C129.092224,56.099438 147.145355,66.931213 165.233093,77.702133   C166.284500,78.328224 167.076538,79.389908 168.052155,80.603409   C167.017685,80.969963 165.920349,80.981995 164.242493,80.767792   C163.107986,80.027710 162.553986,79.513855 162.000000,79.000000   C162.000000,79.000000 161.500000,79.000000 161.080994,78.770782   C160.107986,78.027718 159.553986,77.513863 159.000000,77.000000   C158.555557,77.000000 158.111099,77.000000 157.164307,76.770782   C156.107986,76.027710 155.553986,75.513855 155.000000,75.000000   C154.202469,74.725716 153.404938,74.451431 152.134689,73.859352   C151.107986,73.027710 150.553986,72.513855 150.000000,72.000000   C149.202469,71.725716 148.404938,71.451424 147.134689,70.859352   C146.107986,70.027710 145.553986,69.513855 145.000000,69.000000   C144.202469,68.725708 143.404938,68.451424 142.134689,67.859352   C141.107986,67.027710 140.553986,66.513855 140.000000,66.000000   C140.000000,66.000000 139.500000,66.000000 139.080994,65.770782   C138.107986,65.027718 137.553986,64.513855 137.000000,64.000000   C136.555557,64.000000 136.111099,64.000000 135.164322,63.770786   C134.107986,63.027718 133.554001,62.513859 133.000000,62.000000  z"
   id="path10" />
<path
   fill="#FF6849"
   opacity="1.000000"
   stroke="none"
   d=" M52.000000,115.000000   C52.000000,115.444443 52.000000,115.888893 52.169022,116.895882   C52.892025,117.972282 53.446011,118.486145 54.000000,119.000000   C54.000000,119.000000 54.000000,119.500000 54.109879,120.055923   C55.146507,121.741234 56.073254,122.870613 57.000000,124.000000   C57.000000,124.000000 57.000000,124.500000 57.169014,124.979218   C57.892017,125.972290 58.446007,126.486145 59.000000,127.000000   C59.259163,127.802567 59.518326,128.605133 60.057762,129.933060   C60.892021,130.972290 61.446011,131.486145 61.999996,132.000000   C62.278286,133.110977 62.556572,134.221970 63.027309,135.972412   C64.146507,137.741241 65.073250,138.870621 66.000000,140.000000   C66.000000,140.444443 66.000000,140.888901 66.092911,142.044922   C67.123886,151.504349 68.061943,160.252167 69.000000,169.000000   C69.000000,169.444443 69.000000,169.888901 68.770462,170.868439   C68.027283,172.269028 67.513641,173.134521 66.720337,173.990311   C66.254234,173.974152 66.067787,173.967682 65.881348,173.961197   C65.746124,165.619141 67.129509,156.878571 65.072716,149.040771   C62.753677,140.203659 57.706623,131.974487 53.192783,123.843575   C43.620197,106.600212 33.462090,89.681786 23.898911,72.433388   C21.013334,67.228897 19.296494,61.376404 17.334511,55.636482   C19.083130,57.301502 20.541527,59.150780 21.999924,61.000061   C22.596294,63.102207 23.192665,65.204353 24.004421,67.959183   C25.146532,69.741234 26.073257,70.870621 26.999985,72.000000   C26.999985,72.000000 26.999992,72.500000 27.169010,72.979218   C27.892012,73.972282 28.445997,74.486137 28.999981,75.000000   C29.000000,75.444443 29.000019,75.888893 29.169056,76.895882   C29.892046,77.972282 30.446016,78.486145 30.999985,79.000000   C30.999985,79.000000 30.999992,79.500000 31.169006,79.979218   C31.892015,80.972282 32.446007,81.486145 33.000000,82.000000   C33.000000,82.444443 33.000000,82.888893 33.169022,83.895882   C33.892029,84.972282 34.446014,85.486145 35.000000,86.000000   C35.000000,86.000000 35.000000,86.500000 35.169014,86.979218   C35.892017,87.972282 36.446011,88.486145 37.000000,89.000000   C37.000000,89.444443 37.000000,89.888893 37.169022,90.895882   C37.892025,91.972282 38.446011,92.486145 39.000000,93.000000   C39.000000,93.000000 39.000000,93.500000 39.169014,93.979218   C39.892017,94.972282 40.446011,95.486145 41.000000,96.000000   C41.000000,96.444443 41.000000,96.888893 41.169022,97.895882   C41.892029,98.972282 42.446014,99.486137 43.000000,100.000000   C43.000000,100.000000 43.000000,100.500000 43.169014,100.979218   C43.892017,101.972290 44.446007,102.486145 45.000000,103.000000   C45.259159,103.802567 45.518318,104.605133 46.057755,105.933060   C46.892021,106.972282 47.446011,107.486137 48.000000,108.000000   C48.000000,108.444443 48.000000,108.888893 48.169022,109.895882   C48.892025,110.972290 49.446011,111.486145 50.000000,112.000000   C50.000000,112.000000 50.000000,112.500000 50.169014,112.979218   C50.892017,113.972282 51.446011,114.486145 52.000000,115.000000  z"
   id="path12" />
<path
   fill="#FF6849"
   opacity="1.000000"
   stroke="none"
   d=" M65.588135,174.178192   C66.067787,173.967682 66.254234,173.974152 66.753578,174.270798   C67.044319,175.707321 67.022163,176.853653 67.000000,178.000000   C67.000000,178.750000 67.000000,179.500000 66.770782,180.794006   C66.027718,181.892014 65.513863,182.446014 65.000000,183.000000   C64.401367,184.775864 63.802723,186.551712 62.872826,188.832794   C62.027710,189.892014 61.513851,190.445999 60.999996,191.000000   C59.736099,193.443237 58.472198,195.886459 56.874939,198.833862   C56.027718,199.892014 55.513859,200.446014 55.000000,201.000000   C52.404346,205.772629 49.808689,210.545258 46.877304,215.827957   C46.027714,216.892014 45.513855,217.445999 44.999996,218.000000   C43.403904,221.107071 41.807808,224.214157 39.876644,227.829620   C39.027718,228.892014 38.513859,229.446014 38.000000,230.000000   C37.399055,231.451202 36.798111,232.902405 35.869373,234.845825   C35.027721,235.892029 34.513863,236.446014 34.000000,237.000000   C30.044657,244.755600 26.089312,252.511185 21.813545,260.837738   C20.050966,263.272095 18.608812,265.135498 17.166653,266.998871   C18.710684,262.241364 19.517591,257.069244 21.921389,252.795303   C35.052383,229.448395 48.617203,206.345886 61.908112,183.088043   C63.434269,180.417419 64.184784,177.303558 65.588135,174.178192  z"
   id="path14" />
<path
   fill="#FF6849"
   opacity="1.000000"
   stroke="none"
   d=" M264.000000,20.000002   C263.555542,20.000017 263.111115,20.000032 262.104126,20.169064   C261.027710,20.892036 260.513855,21.445995 260.000000,21.999958   C258.883972,22.259836 257.767975,22.519711 256.096771,23.058811   C255.027725,23.892023 254.513870,24.446014 254.000000,25.000002   C252.535477,25.569559 251.070953,26.139118 249.074005,27.023350   C248.027710,27.892012 247.513855,28.445997 247.000000,28.999989   C244.871964,29.898102 242.743942,30.796211 240.078751,32.016182   C239.027725,32.892033 238.513870,33.446018 238.000000,34.000004   C236.535477,34.569557 235.070953,35.139114 233.074005,36.023357   C232.027725,36.892029 231.513870,37.446018 231.000000,38.000008   C223.868576,41.892677 216.737152,45.785355 209.073654,50.008034   C208.027725,50.892029 207.513870,51.446018 207.000000,52.000000   C206.197433,52.259163 205.394867,52.518326 204.066940,53.057762   C203.027710,53.892021 202.513855,54.446007 202.000000,55.000000   C199.522781,56.210274 197.045578,57.420544 194.054962,58.984425   C193.027710,59.892021 192.513855,60.446011 192.000000,61.000000   C192.000000,61.000000 191.500000,61.000000 190.953537,61.180832   C189.592804,63.281868 188.778549,65.202065 187.964279,67.122269   C186.639374,65.907356 185.314468,64.692444 183.157928,62.714943   C192.178970,57.066475 200.558273,51.457272 209.277466,46.438534   C225.627686,37.027378 242.147736,27.909115 258.676025,18.812374   C260.591705,17.758028 263.007141,17.611624 265.450806,17.356586   C265.140533,18.445932 264.570251,19.222967 264.000000,20.000002  z"
   id="path16" />
<path
   fill="#FF6849"
   opacity="1.000000"
   stroke="none"
   d=" M89.000008,285.000000   C94.464417,282.107513 99.928833,279.215027 105.925842,275.992249   C106.972282,275.108002 107.486145,274.553986 108.000000,274.000000   C111.131500,272.440643 114.263000,270.881256 117.926453,268.991943   C118.972275,268.107971 119.486130,267.553986 119.999992,267.000000   C120.802559,266.740814 121.605125,266.481659 122.933060,265.942261   C123.972290,265.108002 124.486153,264.554016 125.000000,264.000000   C125.802567,263.740845 126.605133,263.481689 127.933060,262.942261   C128.972290,262.108002 129.486145,261.553986 130.000000,261.000000   C130.000000,261.000000 130.500000,261.000000 131.133347,261.000000   C132.788910,261.000000 133.811142,261.000000 134.833359,261.000000   C132.699387,262.686005 130.734207,264.663422 128.405075,266.012543   C107.368576,278.197510 86.299889,290.328247 65.144562,302.305176   C62.658955,303.712402 59.593838,304.096069 56.604721,304.655487   C57.941387,302.904480 59.470695,301.452240 61.000015,300.000000   C64.124626,298.770447 67.249237,297.540924 70.916130,295.986694   C71.972282,295.108002 72.486145,294.553986 73.000000,294.000000   C77.460281,291.769958 81.920563,289.539948 86.919640,286.985962   C87.972298,286.108002 88.486160,285.554016 89.000008,285.000000  z"
   id="path18" />
<path
   fill="#FF6849"
   opacity="1.000000"
   stroke="none"
   d=" M206.000000,95.000000   C206.000000,95.444443 206.000000,95.888893 205.977936,97.041664   C204.970596,99.499992 203.985291,101.250000 203.000000,103.000000   C194.402863,97.544205 185.805725,92.088402 176.975159,86.304306   C182.670883,88.993080 188.627640,91.957619 194.517685,95.049217   C197.494827,96.611855 200.351318,98.404366 203.935196,100.483231   C202.424530,88.088303 196.616180,78.731186 190.269165,69.497162   C192.020859,69.838341 193.510422,70.419174 195.000000,71.000000   C195.243195,71.503471 195.486389,72.006943 196.033813,72.984421   C196.892014,73.972290 197.446014,74.486145 198.000000,75.000000   C199.261017,77.776405 200.522034,80.552811 202.060547,83.893829   C202.892029,84.972282 203.446014,85.486137 204.000000,86.000000   C204.000000,86.750000 204.000000,87.500000 204.114716,88.880035   C204.486298,90.006721 204.743149,90.503357 205.000000,91.000000   C205.000000,91.444443 205.000000,91.888893 205.114716,92.921707   C205.486282,94.006721 205.743134,94.503365 206.000000,95.000000  z"
   id="path20" />
<path
   fill="#FF6849"
   opacity="1.000000"
   stroke="none"
   d=" M26.000000,36.000000   C24.710413,38.758724 23.420828,41.517448 21.809986,44.848995   C20.048035,47.614178 18.607344,49.806534 17.166653,51.998890   C17.139513,41.294350 22.899364,33.297337 30.215452,26.606405   C35.981045,21.333473 42.835361,17.252985 51.355721,17.335587   C49.357712,19.084589 47.178833,20.542255 44.999950,21.999924   C42.182785,23.196877 39.365616,24.393827 35.996960,25.918221   C34.630314,26.830441 33.815155,27.415220 33.000000,28.000000   C31.462545,29.494591 29.925089,30.989180 27.985077,32.961494   C27.055016,34.292812 26.527508,35.146408 26.000000,36.000000  z"
   id="path22" />
<path
   fill="#FF6849"
   opacity="1.000000"
   stroke="none"
   d=" M287.000000,26.999996   C286.503357,26.743147 286.006744,26.486298 285.086060,25.885500   C284.108002,25.027697 283.554016,24.513845 283.000000,23.999998   C281.893219,23.704035 280.786469,23.408066 279.161621,22.791985   C277.429016,21.647943 276.214508,20.824015 275.000000,20.000080   C274.555542,20.000059 274.111115,20.000040 273.094360,19.822422   C271.681732,18.818766 270.841431,17.992708 270.001099,17.166649   C275.470612,19.036669 281.610046,19.895880 286.271362,22.985312   C296.241119,29.593048 303.532349,38.604267 304.649292,51.366203   C302.561951,48.702255 300.780975,45.851116 299.000000,42.999977   C298.740143,41.883965 298.480286,40.767948 297.941193,39.096756   C297.108002,38.027721 296.553986,37.513859 296.000000,37.000000   C295.756805,36.496529 295.513611,35.993061 294.991974,34.968159   C293.809021,33.631145 292.904510,32.815567 292.000000,31.999989   C291.184418,31.095495 290.368866,30.191000 289.107635,28.914028   C288.108002,28.027700 287.553986,27.513847 287.000000,26.999996  z"
   id="path24" />
<path
   fill="#FF6849"
   opacity="1.000000"
   stroke="none"
   d=" M32.000000,293.000000   C32.000000,293.000000 32.500000,293.000000 32.919018,293.229218   C33.892025,293.972290 34.446014,294.486145 35.000000,295.000000   C38.090710,296.622467 41.181416,298.244965 44.805077,300.162933   C45.892021,300.972290 46.446011,301.486145 47.000000,302.000000   C47.444447,302.000000 47.888889,302.000000 48.905624,302.177582   C50.318188,303.181244 51.158466,304.007294 51.998741,304.833374   C42.591492,304.820221 35.367176,300.352203 29.127737,293.321838   C29.029762,292.969360 29.137745,292.862244 29.494457,292.885986   C30.567448,292.939850 31.283724,292.969940 32.000000,293.000000  z"
   id="path26" />
<path
   fill="#FF6849"
   opacity="1.000000"
   stroke="none"
   d=" M28.999989,289.000000   C28.999990,289.000000 28.999996,289.500000 29.012011,290.108734   C29.061932,291.432404 29.099838,292.147308 29.137745,292.862244   C29.137745,292.862244 29.029762,292.969360 28.975750,293.022888   C22.171692,287.147736 17.848679,279.923737 17.338799,270.591919   C18.422207,271.241364 19.211103,272.120697 20.000000,273.000000   C20.000017,273.444458 20.000034,273.888885 20.169056,274.895874   C20.892027,275.972290 21.445993,276.486145 21.999962,277.000000   C22.566851,278.789154 23.133739,280.578339 24.019321,282.912964   C24.892010,283.972290 25.446001,284.486145 25.999994,285.000000   C26.243198,285.503479 26.486401,286.006927 27.033810,286.984436   C27.892004,287.972290 28.445995,288.486145 28.999989,289.000000  z"
   id="path28" />
<path
   fill="#FF694A"
   opacity="1.000000"
   stroke="none"
   d=" M45.381535,21.910305   C47.178833,20.542255 49.357712,19.084589 51.767227,17.396788   C53.067204,17.125900 54.136555,17.085144 55.603539,17.105520   C58.539295,18.928789 61.077415,20.690926 63.807766,22.726517   C58.062416,20.420549 52.006084,19.677521 45.381535,21.910305  z"
   id="path30" />
<path
   fill="#FF694A"
   opacity="1.000000"
   stroke="none"
   d=" M299.097961,43.367004   C300.780975,45.851116 302.561951,48.702255 304.588135,51.775551   C304.874146,53.067139 304.914886,54.136570 304.894501,55.603672   C303.398834,57.548019 301.964325,59.094696 300.264893,60.820698   C302.655365,55.108555 301.121796,49.412159 299.097961,43.367004  z"
   id="path32" />
<path
   fill="#FF694A"
   opacity="1.000000"
   stroke="none"
   d=" M17.106541,52.371979   C18.607344,49.806534 20.048035,47.614178 21.744324,45.210884   C21.939209,50.085758 21.878494,55.171566 21.908852,60.628716   C20.541527,59.150780 19.083130,57.301502 17.395691,55.227173   C17.126577,54.249775 17.086504,53.497425 17.106541,52.371979  z"
   id="path34" />
<path
   fill="#FF694A"
   opacity="1.000000"
   stroke="none"
   d=" M194.868179,70.689682   C193.510422,70.419174 192.020859,69.838341 190.206055,69.147949   C189.316086,68.570122 188.751358,68.101852 188.075439,67.377922   C188.778549,65.202065 189.592804,63.281868 190.703537,61.180832   C192.245453,64.126450 193.490906,67.252907 194.868179,70.689682  z"
   id="path36" />
<path
   fill="#FF694A"
   opacity="1.000000"
   stroke="none"
   d=" M52.396400,304.894470   C51.158466,304.007294 50.318188,303.181244 49.238956,302.177582   C52.758095,301.397736 56.516193,300.795441 60.637150,300.096588   C59.470695,301.452240 57.941387,302.904480 56.207184,304.595032   C54.932877,304.874115 53.863472,304.914856 52.396400,304.894470  z"
   id="path38" />
<path
   fill="#FF694A"
   opacity="1.000000"
   stroke="none"
   d=" M20.091644,272.682098   C19.211103,272.120697 18.422207,271.241364 17.399979,270.182068   C17.126574,269.249725 17.086500,268.497406 17.106541,267.371948   C18.608812,265.135498 20.050966,263.272095 21.746523,261.204346   C21.394379,264.788055 20.788832,268.576141 20.091644,272.682098  z"
   id="path40" />
<path
   fill="#FF694A"
   opacity="1.000000"
   stroke="none"
   d=" M302.000000,272.000000   C301.989136,269.592560 301.978241,267.185089 302.337860,264.388824   C303.416718,264.000153 304.125031,264.000305 304.833374,264.000458   C304.874359,265.728790 304.915344,267.457092 304.677917,269.803833   C303.599640,270.948151 302.799835,271.474060 302.000000,272.000000  z"
   id="path42" />
<path
   fill="#FF694A"
   opacity="1.000000"
   stroke="none"
   d=" M269.603485,17.105518   C270.841431,17.992708 271.681732,18.818766 272.761047,19.822411   C270.205292,20.043304 267.410553,20.086609 264.307922,20.064959   C264.570251,19.222967 265.140533,18.445932 265.854370,17.417770   C267.067291,17.125893 268.136566,17.085138 269.603485,17.105518  z"
   id="path44" />
<path
   fill="#FF6849"
   opacity="1.000000"
   stroke="none"
   d=" M302.028381,272.290344   C302.799835,271.474060 303.599640,270.948151 304.616425,270.232330   C303.661835,273.689423 302.490295,277.336395 301.088989,280.125732   C300.906158,278.512054 300.953064,277.756042 301.000000,277.000000   C301.352264,275.526917 301.704498,274.053802 302.028381,272.290344  z"
   id="path46" />
<path
   fill="#FF6849"
   opacity="1.000000"
   stroke="none"
   d=" M298.000000,255.000000   C297.882812,253.419357 297.765625,251.838730 297.738831,249.781433   C299.022247,251.192947 300.215271,253.081116 300.926605,255.183929   C299.629913,255.265717 298.814972,255.132858 298.000000,255.000000  z"
   id="path48" />
<path
   fill="#FF6849"
   opacity="1.000000"
   stroke="none"
   d=" M304.892212,263.659729   C304.125031,264.000305 303.416718,264.000153 302.354187,264.000000   C302.000000,263.555542 302.000000,263.111115 301.885254,262.078278   C301.513672,260.993286 301.256836,260.496643 301.000000,260.000000   C301.000000,260.000000 301.000000,259.500000 301.468445,259.153595   C302.248718,258.740448 302.560486,258.673737 302.872253,258.606995   C303.565186,260.177673 304.258118,261.748322 304.892212,263.659729  z"
   id="path50" />
<path
   fill="#FF694A"
   opacity="1.000000"
   stroke="none"
   d=" M134.909760,260.763367   C133.811142,261.000000 132.788910,261.000000 131.383347,261.000000   C132.041687,259.358093 133.083374,257.716217 134.479218,255.807617   C134.833344,255.540924 134.923203,255.994492 134.800690,256.483063   C134.822510,257.996246 134.966827,259.020813 135.111145,260.045410   C135.111145,260.045410 134.986160,260.526764 134.909760,260.763367  z"
   id="path52" />
<path
   fill="#FF6849"
   opacity="1.000000"
   stroke="none"
   d=" M297.317932,287.981689   C297.035583,287.928528 297.028442,287.742828 297.010651,287.278564   C297.820465,286.113007 298.640930,285.226013 299.799591,284.177368   C299.289581,285.293549 298.441376,286.571350 297.317932,287.981689  z"
   id="path54" />
<path
   fill="#FF6849"
   opacity="1.000000"
   stroke="none"
   d=" M135.376526,259.921814   C134.966827,259.020813 134.822510,257.996246 134.718872,256.570557   C135.053696,257.379059 135.347794,258.588623 135.376526,259.921814  z"
   id="path56" />
<path
   fill="#FF6849"
   opacity="1.000000"
   stroke="none"
   d=" M134.122131,254.749084   C133.336578,254.535446 132.460999,254.011368 131.347992,252.753052   C131.147385,251.691772 131.184219,251.364716 131.221054,251.037674   C132.158081,252.171326 133.095108,253.304977 134.122131,254.749084  z"
   id="path58" />
<path
   fill="#FF694A"
   opacity="1.000000"
   stroke="none"
   d=" M175.045532,84.763374   C174.164307,84.584351 173.109436,84.129768 172.008301,83.420883   C172.931961,83.606995 173.901932,84.047409 175.045532,84.763374  z"
   id="path60" />
<path
   fill="#FF694A"
   opacity="1.000000"
   stroke="none"
   d=" M298.154144,255.235931   C298.814972,255.132858 299.629913,255.265717 301.075073,255.500549   C301.705261,255.602509 301.701447,255.696442 301.724182,255.714783   C300.600708,255.646042 299.454498,255.558945 298.154144,255.235931  z"
   id="path62" />
<path
   fill="#FF6849"
   opacity="1.000000"
   stroke="none"
   d=" M131.091980,250.786255   C131.184219,251.364716 131.147385,251.691772 131.055267,252.509415   C130.202469,252.725708 129.404938,252.451431 128.303986,251.397491   C128.005539,249.696396 128.010498,248.774918 128.015472,247.853455   C128.997971,248.747238 129.980438,249.641022 131.091980,250.786255  z"
   id="path64" />
<path
   fill="#FF694A"
   opacity="1.000000"
   stroke="none"
   d=" M128.016510,247.704544   C128.010498,248.774918 128.005539,249.696396 128.000275,251.308929   C127.777435,250.421326 127.554878,248.842667 127.559433,246.853409   C127.863548,246.813766 127.940536,247.184692 128.016510,247.704544  z"
   id="path66" />
<path
   fill="#FF694A"
   opacity="1.000000"
   stroke="none"
   d=" M293.154144,246.235916   C293.814941,246.132843 294.629913,246.265701 296.075012,246.500519   C296.705200,246.602478 296.701416,246.696426 296.724152,246.714783   C295.600677,246.646042 294.454498,246.558929 293.154144,246.235916  z"
   id="path68" />
<path
   fill="#FF6849"
   opacity="1.000000"
   stroke="none"
   d=" M124.000000,243.000595   C123.860825,242.371384 123.721649,241.742188 123.504539,240.634125   C123.955170,240.899170 124.483719,241.643066 124.785622,242.683746   C124.372650,242.987213 124.186325,242.993896 124.000000,243.000595  z"
   id="path70" />
<path
   fill="#FF694A"
   opacity="1.000000"
   stroke="none"
   d=" M300.859253,277.243469   C300.953064,277.756042 300.906158,278.512054 300.795898,279.852539   C300.732605,280.436951 300.656189,280.478424 300.606598,280.484619   C300.610840,279.489502 300.664673,278.488220 300.859253,277.243469  z"
   id="path72" />
<path
   fill="#FF694A"
   opacity="1.000000"
   stroke="none"
   d=" M124.143616,243.325089   C124.186325,242.993896 124.372650,242.987213 124.838455,242.970490   C125.465889,243.028900 125.709412,243.226212 125.760773,244.017487   C125.556129,244.782471 125.390076,245.052124 125.174873,245.291519   C125.174873,245.291519 125.335083,245.401245 125.280014,245.481461   C124.912369,244.924301 124.599792,244.286942 124.143616,243.325089  z"
   id="path74" />
<path
   fill="#FF6849"
   opacity="1.000000"
   stroke="none"
   d=" M122.204025,239.400208   C122.007103,238.814301 122.014214,238.628601 122.031998,238.164337   C122.421349,238.615112 122.800026,239.344437 123.015160,240.327744   C122.703766,240.321289 122.555908,240.060852 122.204025,239.400208  z"
   id="path76" />
<path
   fill="#FF6849"
   opacity="1.000000"
   stroke="none"
   d=" M125.507286,245.300781   C125.390076,245.052124 125.556129,244.782471 125.753220,244.260529   C125.835495,244.462341 125.837593,244.886200 125.507286,245.300781  z"
   id="path78" />
<path
   fill="#FF6849"
   opacity="1.000000"
   stroke="none"
   d=" M301.000000,258.000000   C301.136047,257.729095 301.272064,257.458221 301.616760,256.782227   C302.139740,256.739136 302.453979,257.101166 302.342102,257.773621   C301.610626,258.056030 301.305328,258.028015 301.000000,258.000000  z"
   id="path80" />
<path
   fill="#FF694A"
   opacity="1.000000"
   stroke="none"
   d=" M301.000000,258.250000   C301.305328,258.028015 301.610626,258.056030 302.373901,258.131958   C302.831818,258.179901 302.925964,258.386658 302.899109,258.496826   C302.560486,258.673737 302.248718,258.740448 301.468445,258.903595   C301.000000,259.000000 301.000000,258.500000 301.000000,258.250000  z"
   id="path82" />
<path
   fill="#FF694A"
   opacity="1.000000"
   stroke="none"
   d=" M69.249420,168.723145   C68.061943,160.252167 67.123886,151.504349 66.092911,142.378265   C71.353905,150.261414 72.390762,159.093964 69.249420,168.723145  z"
   id="path84" />
<path
   fill="#FF6849"
   opacity="1.000000"
   stroke="none"
   d=" M142.000000,156.000000   C146.533432,151.510208 151.066864,147.020401 156.189209,142.270309   C157.556229,142.021439 158.334335,142.032883 158.958313,142.343475   C153.217270,148.132889 147.630356,153.623138 142.037476,158.724228   C142.020996,157.556702 142.010498,156.778351 142.000000,156.000000  z"
   id="path86" />
<path
   fill="#FF6849"
   opacity="1.000000"
   stroke="none"
   d=" M156.000000,180.000000   C151.510208,175.466568 147.020401,170.933136 142.270309,165.810791   C142.021439,164.443787 142.032867,163.665680 142.343475,163.041702   C148.132889,168.782745 153.623154,174.369644 158.724228,179.962524   C157.556702,179.979004 156.778351,179.989502 156.000000,180.000000  z"
   id="path88" />
<path
   fill="#FF6849"
   opacity="1.000000"
   stroke="none"
   d=" M180.000000,166.000000   C175.799911,170.156479 171.599808,174.312943 166.810226,178.730164   C165.441513,178.980499 164.662262,178.970093 164.037689,178.660370   C169.447067,173.202896 174.701813,168.044754 179.962494,163.275772   C179.978973,164.443298 179.989487,165.221649 180.000000,166.000000  z"
   id="path90" />
<path
   fill="#FF6849"
   opacity="1.000000"
   stroke="none"
   d=" M168.000000,144.000000   C171.823151,147.866776 175.646286,151.733536 179.729828,156.189346   C179.979004,157.556747 179.967804,158.335098 179.657425,158.959229   C174.627716,153.869064 169.897186,148.933151 165.520813,143.997620   C166.583328,143.998672 167.291656,143.999344 168.000000,144.000000  z"
   id="path92" />
<path
   fill="#FF694A"
   opacity="1.000000"
   stroke="none"
   d=" M167.856415,143.685425   C167.291656,143.999344 166.583328,143.998672 165.311035,143.694458   C162.868881,142.942032 160.990662,142.493179 159.112442,142.044312   C158.334335,142.032883 157.556229,142.021439 156.389069,142.005005   C160.419586,137.855820 163.819427,138.253723 167.856415,143.685425  z"
   id="path94" />
<path
   fill="#FF694A"
   opacity="1.000000"
   stroke="none"
   d=" M252.750641,153.276840   C253.000000,158.022095 253.000000,163.044189 253.000000,168.533142   C249.887543,163.946350 250.283997,158.779419 252.750641,153.276840  z"
   id="path96" />
<path
   fill="#FF694A"
   opacity="1.000000"
   stroke="none"
   d=" M163.883026,178.959686   C164.662262,178.970093 165.441513,178.980499 166.610382,178.995453   C163.108871,183.549133 160.873322,183.877365 156.205246,180.277405   C156.778351,179.989502 157.556702,179.979004 159.084167,179.977936   C161.183182,179.644806 162.533096,179.302246 163.883026,178.959686  z"
   id="path98" />
<path
   fill="#FF694A"
   opacity="1.000000"
   stroke="none"
   d=" M142.044312,162.887573   C142.032867,163.665680 142.021439,164.443787 142.005005,165.610947   C138.421005,163.000092 138.162338,159.808029 141.722534,156.205505   C142.010498,156.778351 142.020996,157.556702 142.021530,159.101440   C142.022476,160.874420 142.033386,161.880997 142.044312,162.887573  z"
   id="path100" />
<path
   fill="#FF694A"
   opacity="1.000000"
   stroke="none"
   d=" M179.956604,159.113464   C179.967804,158.335098 179.979004,157.556747 179.995102,156.389191   C183.578995,158.999908 183.837662,162.191971 180.277451,165.794495   C179.989487,165.221649 179.978973,164.443298 179.978455,162.898651   C179.977829,161.126068 179.967224,160.119766 179.956604,159.113464  z"
   id="path102" />
<path
   fill="#FF694A"
   opacity="1.000000"
   stroke="none"
   d=" M203.189667,103.173058   C203.985291,101.250000 204.970596,99.499992 205.977936,97.375000   C208.578583,101.416779 207.817230,103.260429 203.189667,103.173058  z"
   id="path104" />
<path
   fill="#FF694A"
   opacity="1.000000"
   stroke="none"
   d=" M67.241959,177.781662   C67.022163,176.853653 67.044319,175.707321 67.033241,174.280487   C67.513641,173.134521 68.027283,172.269028 68.770462,171.201782   C68.494637,173.187775 67.989281,175.375549 67.241959,177.781662  z"
   id="path106" />
<path
   fill="#FF694A"
   opacity="1.000000"
   stroke="none"
   d=" M115.943558,228.303421   C116.937553,230.432281 117.875107,232.864548 118.906334,235.648407   C117.962372,233.535614 116.924744,231.071228 115.943558,228.303421  z"
   id="path108" />
<path
   fill="#FF694A"
   opacity="1.000000"
   stroke="none"
   d=" M254.758057,144.218338   C254.434570,146.116516 253.869125,148.233032 253.151855,150.674774   C253.505371,148.812225 254.010727,146.624451 254.758057,144.218338  z"
   id="path110" />
<path
   fill="#FF694A"
   opacity="1.000000"
   stroke="none"
   d=" M118.808884,218.796234   C117.883972,219.259842 116.767952,219.519699 115.325966,219.889771   C115.189217,216.917572 116.667923,217.149536 118.808884,218.796234  z"
   id="path112" />
<path
   fill="#FF694A"
   opacity="1.000000"
   stroke="none"
   d=" M253.944931,175.281006   C254.606827,176.447845 255.213654,177.895706 255.910233,179.671783   C255.296631,178.520676 254.593246,177.041351 253.944931,175.281006  z"
   id="path114" />
<path
   fill="#FF694A"
   opacity="1.000000"
   stroke="none"
   d=" M29.494457,292.885986   C29.099838,292.147308 29.061932,291.432404 29.012014,290.358734   C29.904509,290.815582 30.809013,291.631134 31.856758,292.723389   C31.283724,292.969940 30.567448,292.939850 29.494457,292.885986  z"
   id="path116" />
<path
   fill="#FF694A"
   opacity="1.000000"
   stroke="none"
   d=" M279.694092,298.109894   C278.870605,298.926727 277.741211,299.853455 276.305908,300.890106   C277.129395,300.073273 278.258759,299.146515 279.694092,298.109894  z"
   id="path118" />
<path
   fill="#FF694A"
   opacity="1.000000"
   stroke="none"
   d=" M56.890125,123.694077   C56.073254,122.870613 55.146507,121.741234 54.109882,120.305923   C54.926750,121.129379 55.853500,122.258759 56.890125,123.694077  z"
   id="path120" />
<path
   fill="#FF694A"
   opacity="1.000000"
   stroke="none"
   d=" M65.890121,139.694061   C65.073250,138.870621 64.146507,137.741241 63.109879,136.305939   C63.926750,137.129379 64.853500,138.258759 65.890121,139.694061  z"
   id="path122" />
<path
   fill="#FF694A"
   opacity="1.000000"
   stroke="none"
   d=" M275.178223,20.264118   C276.214508,20.824015 277.429016,21.647943 278.821777,22.735901   C277.785461,22.176001 276.570953,21.352074 275.178223,20.264118  z"
   id="path124" />
<path
   fill="#FF694A"
   opacity="1.000000"
   stroke="none"
   d=" M26.890108,71.694077   C26.073257,70.870621 25.146532,69.741234 24.109940,68.305923   C24.926794,69.129379 25.853514,70.258766 26.890108,71.694077  z"
   id="path126" />
<path
   fill="#FF694A"
   opacity="1.000000"
   stroke="none"
   d=" M292.143250,32.276627   C292.904510,32.815567 293.809021,33.631145 294.856750,34.723362   C294.095490,34.184422 293.190979,33.368843 292.143250,32.276627  z"
   id="path128" />
<path
   fill="#FF694A"
   opacity="1.000000"
   stroke="none"
   d=" M26.229542,35.798225   C26.527508,35.146408 27.055016,34.292812 27.791262,33.219612   C27.486361,33.865482 26.972721,34.730965 26.229542,35.798225  z"
   id="path130" />
<path
   fill="#FF694A"
   opacity="1.000000"
   stroke="none"
   d=" M33.290253,27.898834   C33.815155,27.415220 34.630314,26.830441 35.722733,26.122829   C35.193504,26.599224 34.387005,27.198446 33.290253,27.898834  z"
   id="path132" />
<path
   fill="#FF694A"
   opacity="1.000000"
   stroke="none"
   d=" M300.998779,260.196747   C301.256836,260.496643 301.513672,260.993286 301.885254,261.744934   C301.665863,261.464478 301.331726,260.928986 300.998779,260.196747  z"
   id="path134" />
<path
   fill="#FF694A"
   opacity="1.000000"
   stroke="none"
   d=" M87.169014,35.229214   C87.553993,35.513859 88.107979,36.027714 88.830986,36.770786   C88.446007,36.486145 87.892014,35.972286 87.169014,35.229214  z"
   id="path136" />
<path
   fill="#FF694A"
   opacity="1.000000"
   stroke="none"
   d=" M231.229218,37.830982   C231.513870,37.446018 232.027725,36.892029 232.770782,36.169022   C232.486130,36.553986 231.972275,37.107971 231.229218,37.830982  z"
   id="path138" />
<path
   fill="#FF694A"
   opacity="1.000000"
   stroke="none"
   d=" M129.770782,261.169006   C129.486145,261.553986 128.972290,262.108002 128.229218,262.830994   C128.513870,262.446014 129.027725,261.891998 129.770782,261.169006  z"
   id="path140" />
<path
   fill="#FF694A"
   opacity="1.000000"
   stroke="none"
   d=" M288.169006,238.229218   C288.554016,238.513855 289.108002,239.027710 289.830994,239.770782   C289.446014,239.486145 288.891998,238.972290 288.169006,238.229218  z"
   id="path142" />
<path
   fill="#FF694A"
   opacity="1.000000"
   stroke="none"
   d=" M34.229218,236.830978   C34.513863,236.446014 35.027721,235.892029 35.770794,235.169006   C35.486149,235.553986 34.972290,236.107971 34.229218,236.830978  z"
   id="path144" />
<path
   fill="#FF694A"
   opacity="1.000000"
   stroke="none"
   d=" M284.169006,231.229218   C284.553986,231.513855 285.108002,232.027725 285.830994,232.770782   C285.446014,232.486145 284.891998,231.972275 284.169006,231.229218  z"
   id="path146" />
<path
   fill="#FF694A"
   opacity="1.000000"
   stroke="none"
   d=" M91.169014,37.229233   C91.553993,37.513866 92.107979,38.027718 92.830986,38.770786   C92.446007,38.486149 91.892014,37.972298 91.169014,37.229233  z"
   id="path148" />
<path
   fill="#FF694A"
   opacity="1.000000"
   stroke="none"
   d=" M38.229214,229.830978   C38.513859,229.446014 39.027718,228.892014 39.770790,228.169006   C39.486145,228.553986 38.972286,229.107971 38.229214,229.830978  z"
   id="path150" />
<path
   fill="#FF694A"
   opacity="1.000000"
   stroke="none"
   d=" M114.998772,224.196732   C115.256851,224.496643 115.513702,224.993271 115.885269,225.744965   C115.665848,225.464493 115.331696,224.928970 114.998772,224.196732  z"
   id="path152" />
<path
   fill="#FF694A"
   opacity="1.000000"
   stroke="none"
   d=" M296.169006,37.229210   C296.553986,37.513859 297.108002,38.027721 297.830994,38.770790   C297.446014,38.486141 296.891998,37.972279 296.169006,37.229210  z"
   id="path154" />
<path
   fill="#FF694A"
   opacity="1.000000"
   stroke="none"
   d=" M276.169006,217.229218   C276.553986,217.513855 277.108002,218.027710 277.830994,218.770782   C277.445984,218.486145 276.891998,217.972290 276.169006,217.229218  z"
   id="path156" />
<path
   fill="#FF694A"
   opacity="1.000000"
   stroke="none"
   d=" M94.169014,39.229214   C94.553993,39.513859 95.107979,40.027714 95.830986,40.770786   C95.446007,40.486145 94.892021,39.972286 94.169014,39.229214  z"
   id="path158" />
<path
   fill="#FF694A"
   opacity="1.000000"
   stroke="none"
   d=" M45.229218,217.830978   C45.513855,217.445999 46.027714,216.892014 46.770790,216.169006   C46.486149,216.553986 45.972294,217.107971 45.229218,217.830978  z"
   id="path160" />
<path
   fill="#FF694A"
   opacity="1.000000"
   stroke="none"
   d=" M155.169006,75.229218   C155.553986,75.513855 156.107986,76.027710 156.830994,76.770782   C156.446014,76.486145 155.892014,75.972282 155.169006,75.229218  z"
   id="path162" />
<path
   fill="#FF694A"
   opacity="1.000000"
   stroke="none"
   d=" M88.770798,285.169006   C88.486160,285.554016 87.972298,286.108002 87.229218,286.830994   C87.513855,286.446014 88.027718,285.891998 88.770798,285.169006  z"
   id="path164" />
<path
   fill="#FF694A"
   opacity="1.000000"
   stroke="none"
   d=" M273.803253,300.998779   C273.503357,301.256836 273.006714,301.513672 272.255066,301.885254   C272.535522,301.665863 273.071014,301.331726 273.803253,300.998779  z"
   id="path166" />
<path
   fill="#FF694A"
   opacity="1.000000"
   stroke="none"
   d=" M260.229187,21.830946   C260.513855,21.445995 261.027710,20.892036 261.770782,20.169079   C261.486145,20.554031 260.972260,21.107985 260.229187,21.830946  z"
   id="path168" />
<path
   fill="#FF694A"
   opacity="1.000000"
   stroke="none"
   d=" M46.830978,301.770813   C46.446011,301.486145 45.892021,300.972290 45.169014,300.229218   C45.553986,300.513855 46.107971,301.027740 46.830978,301.770813  z"
   id="path170" />
<path
   fill="#FF694A"
   opacity="1.000000"
   stroke="none"
   d=" M262.830994,300.770782   C262.446014,300.486145 261.892029,299.972290 261.169006,299.229218   C261.554016,299.513855 262.108002,300.027710 262.830994,300.770782  z"
   id="path172" />
<path
   fill="#FF694A"
   opacity="1.000000"
   stroke="none"
   d=" M286.770782,294.169006   C286.486145,294.553986 285.972290,295.108002 285.229218,295.830994   C285.513855,295.446014 286.027710,294.892029 286.770782,294.169006  z"
   id="path174" />
<path
   fill="#FF694A"
   opacity="1.000000"
   stroke="none"
   d=" M72.770790,294.169006   C72.486145,294.553986 71.972282,295.108002 71.229210,295.830994   C71.513863,295.446014 72.027725,294.891998 72.770790,294.169006  z"
   id="path176" />
<path
   fill="#FF694A"
   opacity="1.000000"
   stroke="none"
   d=" M34.830978,294.770782   C34.446014,294.486145 33.892025,293.972290 33.169014,293.229218   C33.553986,293.513855 34.107971,294.027710 34.830978,294.770782  z"
   id="path178" />
<path
   fill="#FF694A"
   opacity="1.000000"
   stroke="none"
   d=" M254.229218,24.830984   C254.513870,24.446014 255.027725,23.892023 255.770782,23.169014   C255.486130,23.553986 254.972275,24.107975 254.229218,24.830984  z"
   id="path180" />
<path
   fill="#FF694A"
   opacity="1.000000"
   stroke="none"
   d=" M283.169006,24.229202   C283.554016,24.513845 284.108002,25.027697 284.830994,25.770775   C284.446014,25.486137 283.891998,24.972275 283.169006,24.229202  z"
   id="path182" />
<path
   fill="#FF694A"
   opacity="1.000000"
   stroke="none"
   d=" M70.169014,25.229279   C70.553993,25.513908 71.107979,26.027739 71.830986,26.770779   C71.446007,26.486151 70.892021,25.972315 70.169014,25.229279  z"
   id="path184" />
<path
   fill="#FF694A"
   opacity="1.000000"
   stroke="none"
   d=" M28.830971,288.770782   C28.445995,288.486145 27.892004,287.972290 27.169006,287.229218   C27.553984,287.513855 28.107967,288.027710 28.830971,288.770782  z"
   id="path186" />
<path
   fill="#FF694A"
   opacity="1.000000"
   stroke="none"
   d=" M238.229218,33.830986   C238.513870,33.446018 239.027725,32.892033 239.770798,32.169022   C239.486145,32.553993 238.972290,33.107979 238.229218,33.830986  z"
   id="path188" />
<path
   fill="#FF694A"
   opacity="1.000000"
   stroke="none"
   d=" M25.830978,284.770782   C25.446001,284.486145 24.892010,283.972290 24.169010,283.229218   C24.553988,283.513855 25.107975,284.027710 25.830978,284.770782  z"
   id="path190" />
<path
   fill="#FF694A"
   opacity="1.000000"
   stroke="none"
   d=" M21.830948,276.770813   C21.445993,276.486145 20.892027,275.972290 20.169067,275.229218   C20.554031,275.513855 21.107985,276.027740 21.830948,276.770813  z"
   id="path192" />
<path
   fill="#FF694A"
   opacity="1.000000"
   stroke="none"
   d=" M107.770798,274.169006   C107.486145,274.553986 106.972282,275.108002 106.229218,275.830994   C106.513863,275.446014 107.027725,274.891998 107.770798,274.169006  z"
   id="path194" />
<path
   fill="#FF694A"
   opacity="1.000000"
   stroke="none"
   d=" M73.169014,27.229210   C73.553993,27.513849 74.107979,28.027700 74.830986,28.770765   C74.446007,28.486126 73.892021,27.972273 73.169014,27.229210  z"
   id="path196" />
<path
   fill="#FF694A"
   opacity="1.000000"
   stroke="none"
   d=" M247.229218,28.830975   C247.513855,28.445997 248.027710,27.892012 248.770782,27.169014   C248.486145,27.553989 247.972275,28.107979 247.229218,28.830975  z"
   id="path198" />
<path
   fill="#FF694A"
   opacity="1.000000"
   stroke="none"
   d=" M119.770782,267.169006   C119.486130,267.553986 118.972275,268.107971 118.229202,268.830994   C118.513855,268.445984 119.027718,267.891998 119.770782,267.169006  z"
   id="path200" />
<path
   fill="#FF694A"
   opacity="1.000000"
   stroke="none"
   d=" M287.169006,27.229206   C287.553986,27.513847 288.108002,28.027700 288.830994,28.770777   C288.446014,28.486137 287.891998,27.972277 287.169006,27.229206  z"
   id="path202" />
<path
   fill="#FF694A"
   opacity="1.000000"
   stroke="none"
   d=" M124.770782,264.169006   C124.486153,264.554016 123.972290,265.108002 123.229202,265.830994   C123.513847,265.445984 124.027710,264.891998 124.770782,264.169006  z"
   id="path204" />
<path
   fill="#FF694A"
   opacity="1.000000"
   stroke="none"
   d=" M80.169014,31.229214   C80.553986,31.513857 81.107979,32.027710 81.830986,32.770782   C81.446007,32.486141 80.892021,31.972284 80.169014,31.229214  z"
   id="path206" />
<path
   fill="#FF694A"
   opacity="1.000000"
   stroke="none"
   d=" M272.169006,210.229218   C272.553986,210.513855 273.108002,211.027725 273.830994,211.770782   C273.446014,211.486145 272.891998,210.972275 272.169006,210.229218  z"
   id="path208" />
<path
   fill="#FF694A"
   opacity="1.000000"
   stroke="none"
   d=" M42.830986,99.770782   C42.446014,99.486137 41.892029,98.972282 41.169025,98.229218   C41.553993,98.513863 42.107979,99.027718 42.830986,99.770782  z"
   id="path210" />
<path
   fill="#FF694A"
   opacity="1.000000"
   stroke="none"
   d=" M260.770782,131.169006   C260.486145,131.553986 259.972290,132.107986 259.229218,132.830994   C259.513855,132.446014 260.027710,131.892014 260.770782,131.169006  z"
   id="path212" />
<path
   fill="#FF694A"
   opacity="1.000000"
   stroke="none"
   d=" M61.830978,131.770782   C61.446011,131.486145 60.892021,130.972290 60.169014,130.229218   C60.553986,130.513855 61.107971,131.027725 61.830978,131.770782  z"
   id="path214" />
<path
   fill="#FF694A"
   opacity="1.000000"
   stroke="none"
   d=" M263.770813,126.169022   C263.486145,126.553993 262.972290,127.107979 262.229218,127.830978   C262.513855,127.446014 263.027740,126.892029 263.770813,126.169022  z"
   id="path216" />
<path
   fill="#FF694A"
   opacity="1.000000"
   stroke="none"
   d=" M58.830982,126.770782   C58.446007,126.486145 57.892017,125.972290 57.169014,125.229218   C57.553989,125.513855 58.107979,126.027710 58.830982,126.770782  z"
   id="path218" />
<path
   fill="#FF694A"
   opacity="1.000000"
   stroke="none"
   d=" M28.830967,74.770782   C28.445997,74.486137 27.892012,73.972282 27.169014,73.229218   C27.553984,73.513855 28.107969,74.027718 28.830967,74.770782  z"
   id="path220" />
<path
   fill="#FF694A"
   opacity="1.000000"
   stroke="none"
   d=" M53.830986,118.770782   C53.446011,118.486145 52.892025,117.972282 52.169022,117.229218   C52.553993,117.513863 53.107979,118.027718 53.830986,118.770782  z"
   id="path222" />
<path
   fill="#FF694A"
   opacity="1.000000"
   stroke="none"
   d=" M269.770813,116.169037   C269.486145,116.553993 268.972290,117.107979 268.229248,117.830994   C268.513885,117.446030 269.027740,116.892044 269.770813,116.169037  z"
   id="path224" />
<path
   fill="#FF694A"
   opacity="1.000000"
   stroke="none"
   d=" M51.830986,114.770782   C51.446011,114.486145 50.892017,113.972282 50.169014,113.229218   C50.553993,113.513855 51.107983,114.027710 51.830986,114.770782  z"
   id="path226" />
<path
   fill="#FF694A"
   opacity="1.000000"
   stroke="none"
   d=" M49.830986,111.770782   C49.446011,111.486145 48.892025,110.972290 48.169025,110.229218   C48.553997,110.513855 49.107983,111.027710 49.830986,111.770782  z"
   id="path228" />
<path
   fill="#FF694A"
   opacity="1.000000"
   stroke="none"
   d=" M47.830986,107.770782   C47.446011,107.486137 46.892021,106.972282 46.169014,106.229218   C46.553989,106.513855 47.107979,107.027718 47.830986,107.770782  z"
   id="path230" />
<path
   fill="#FF694A"
   opacity="1.000000"
   stroke="none"
   d=" M276.770813,104.169022   C276.486145,104.553986 275.972290,105.107971 275.229218,105.830978   C275.513855,105.446014 276.027740,104.892029 276.770813,104.169022  z"
   id="path232" />
<path
   fill="#FF694A"
   opacity="1.000000"
   stroke="none"
   d=" M44.830986,102.770782   C44.446007,102.486145 43.892017,101.972290 43.169014,101.229218   C43.553989,101.513855 44.107979,102.027718 44.830986,102.770782  z"
   id="path234" />
<path
   fill="#FF694A"
   opacity="1.000000"
   stroke="none"
   d=" M279.770813,99.169014   C279.486145,99.553978 278.972290,100.107964 278.229218,100.830978   C278.513855,100.446007 279.027710,99.892021 279.770813,99.169014  z"
   id="path236" />
<path
   fill="#FF694A"
   opacity="1.000000"
   stroke="none"
   d=" M150.169006,72.229218   C150.553986,72.513855 151.107986,73.027710 151.830994,73.770782   C151.445999,73.486145 150.892014,72.972290 150.169006,72.229218  z"
   id="path238" />
<path
   fill="#FF694A"
   opacity="1.000000"
   stroke="none"
   d=" M197.830994,74.770790   C197.446014,74.486145 196.892014,73.972290 196.169006,73.229218   C196.553986,73.513863 197.107971,74.027725 197.830994,74.770790  z"
   id="path240" />
<path
   fill="#FF694A"
   opacity="1.000000"
   stroke="none"
   d=" M40.830986,95.770782   C40.446011,95.486145 39.892017,94.972282 39.169014,94.229218   C39.553989,94.513863 40.107979,95.027718 40.830986,95.770782  z"
   id="path242" />
<path
   fill="#FF694A"
   opacity="1.000000"
   stroke="none"
   d=" M206.001221,94.803268   C205.743134,94.503365 205.486282,94.006721 205.114716,93.255043   C205.334152,93.535507 205.668304,94.071014 206.001221,94.803268  z"
   id="path244" />
<path
   fill="#FF694A"
   opacity="1.000000"
   stroke="none"
   d=" M283.770813,92.169022   C283.486145,92.553978 282.972290,93.107971 282.229218,93.830978   C282.513855,93.446014 283.027740,92.892029 283.770813,92.169022  z"
   id="path246" />
<path
   fill="#FF694A"
   opacity="1.000000"
   stroke="none"
   d=" M38.830982,92.770782   C38.446011,92.486145 37.892025,91.972282 37.169022,91.229218   C37.553993,91.513863 38.107979,92.027718 38.830982,92.770782  z"
   id="path248" />
<path
   fill="#FF694A"
   opacity="1.000000"
   stroke="none"
   d=" M205.001236,90.803253   C204.743149,90.503357 204.486298,90.006721 204.114716,89.255035   C204.334167,89.535500 204.668320,90.071007 205.001236,90.803253  z"
   id="path250" />
<path
   fill="#FF694A"
   opacity="1.000000"
   stroke="none"
   d=" M36.830986,88.770782   C36.446011,88.486145 35.892017,87.972282 35.169014,87.229218   C35.553989,87.513855 36.107979,88.027718 36.830986,88.770782  z"
   id="path252" />
<path
   fill="#FF694A"
   opacity="1.000000"
   stroke="none"
   d=" M203.830994,85.770782   C203.446014,85.486137 202.892029,84.972282 202.169022,84.229218   C202.553986,84.513863 203.107971,85.027718 203.830994,85.770782  z"
   id="path254" />
<path
   fill="#FF694A"
   opacity="1.000000"
   stroke="none"
   d=" M34.830986,85.770782   C34.446014,85.486145 33.892029,84.972282 33.169025,84.229218   C33.553997,84.513855 34.107983,85.027710 34.830986,85.770782  z"
   id="path256" />
<path
   fill="#FF694A"
   opacity="1.000000"
   stroke="none"
   d=" M32.830986,81.770782   C32.446007,81.486145 31.892015,80.972282 31.169010,80.229218   C31.553988,80.513863 32.107979,81.027718 32.830986,81.770782  z"
   id="path258" />
<path
   fill="#FF694A"
   opacity="1.000000"
   stroke="none"
   d=" M162.169006,79.229218   C162.553986,79.513855 163.107986,80.027710 163.830994,80.770782   C163.446014,80.486137 162.892014,79.972282 162.169006,79.229218  z"
   id="path260" />
<path
   fill="#FF694A"
   opacity="1.000000"
   stroke="none"
   d=" M159.169006,77.229218   C159.553986,77.513863 160.107986,78.027718 160.830994,78.770782   C160.446014,78.486137 159.892014,77.972282 159.169006,77.229218  z"
   id="path262" />
<path
   fill="#FF694A"
   opacity="1.000000"
   stroke="none"
   d=" M30.830975,78.770790   C30.446016,78.486145 29.892046,77.972282 29.169075,77.229218   C29.554037,77.513863 30.108000,78.027725 30.830975,78.770790  z"
   id="path264" />
<path
   fill="#FF694A"
   opacity="1.000000"
   stroke="none"
   d=" M202.229202,54.830975   C202.513855,54.446007 203.027710,53.892021 203.770782,53.169014   C203.486130,53.553978 202.972275,54.107967 202.229202,54.830975  z"
   id="path266" />
<path
   fill="#FF694A"
   opacity="1.000000"
   stroke="none"
   d=" M65.229210,182.830994   C65.513863,182.446014 66.027718,181.892014 66.770782,181.169006   C66.486137,181.553986 65.972282,182.107971 65.229210,182.830994  z"
   id="path268" />
<path
   fill="#FF694A"
   opacity="1.000000"
   stroke="none"
   d=" M99.169014,42.229218   C99.553993,42.513859 100.107979,43.027714 100.830986,43.770790   C100.446007,43.486145 99.892014,42.972290 99.169014,42.229218  z"
   id="path270" />
<path
   fill="#FF694A"
   opacity="1.000000"
   stroke="none"
   d=" M106.169014,46.229214   C106.553993,46.513859 107.107979,47.027714 107.830986,47.770786   C107.446007,47.486145 106.892021,46.972286 106.169014,46.229214  z"
   id="path272" />
<path
   fill="#FF694A"
   opacity="1.000000"
   stroke="none"
   d=" M110.169014,48.229233   C110.553986,48.513870 111.107979,49.027721 111.830986,49.770782   C111.446014,49.486145 110.892021,48.972294 110.169014,48.229233  z"
   id="path274" />
<path
   fill="#FF694A"
   opacity="1.000000"
   stroke="none"
   d=" M252.998764,171.196747   C253.256836,171.496643 253.513687,171.993286 253.885269,172.744965   C253.665848,172.464493 253.331680,171.928986 252.998764,171.196747  z"
   id="path276" />
<path
   fill="#FF694A"
   opacity="1.000000"
   stroke="none"
   d=" M113.169014,50.229214   C113.553993,50.513859 114.107979,51.027714 114.830986,51.770786   C114.446007,51.486141 113.892021,50.972286 113.169014,50.229214  z"
   id="path278" />
<path
   fill="#FF694A"
   opacity="1.000000"
   stroke="none"
   d=" M61.229210,190.830963   C61.513851,190.445999 62.027710,189.892014 62.770782,189.169006   C62.486141,189.553986 61.972282,190.107971 61.229210,190.830963  z"
   id="path280" />
<path
   fill="#FF694A"
   opacity="1.000000"
   stroke="none"
   d=" M207.229218,51.830978   C207.513870,51.446018 208.027725,50.892029 208.770782,50.169018   C208.486130,50.553982 207.972275,51.107971 207.229218,51.830978  z"
   id="path282" />
<path
   fill="#FF694A"
   opacity="1.000000"
   stroke="none"
   d=" M118.169014,53.229218   C118.553986,53.513859 119.107979,54.027718 119.830986,54.770790   C119.446007,54.486145 118.892014,53.972286 118.169014,53.229218  z"
   id="path284" />
<path
   fill="#FF694A"
   opacity="1.000000"
   stroke="none"
   d=" M269.169006,205.229218   C269.554016,205.513855 270.108002,206.027710 270.830994,206.770782   C270.446014,206.486145 269.891998,205.972290 269.169006,205.229218  z"
   id="path286" />
<path
   fill="#FF694A"
   opacity="1.000000"
   stroke="none"
   d=" M260.169006,190.229218   C260.553986,190.513870 261.108002,191.027725 261.830994,191.770782   C261.446014,191.486145 260.891998,190.972275 260.169006,190.229218  z"
   id="path288" />
<path
   fill="#FF694A"
   opacity="1.000000"
   stroke="none"
   d=" M123.169014,56.229214   C123.553993,56.513855 124.107986,57.027714 124.830986,57.770786   C124.446007,57.486141 123.892021,56.972286 123.169014,56.229214  z"
   id="path290" />
<path
   fill="#FF694A"
   opacity="1.000000"
   stroke="none"
   d=" M128.169006,59.229218   C128.554001,59.513859 129.107986,60.027718 129.830994,60.770786   C129.446014,60.486145 128.892014,59.972286 128.169006,59.229218  z"
   id="path292" />
<path
   fill="#FF694A"
   opacity="1.000000"
   stroke="none"
   d=" M192.229218,60.830982   C192.513855,60.446011 193.027710,59.892021 193.770782,59.169022   C193.486145,59.553993 192.972290,60.107979 192.229218,60.830982  z"
   id="path294" />
<path
   fill="#FF694A"
   opacity="1.000000"
   stroke="none"
   d=" M133.169006,62.229218   C133.554001,62.513859 134.107986,63.027718 134.830994,63.770786   C134.446014,63.486145 133.892014,62.972286 133.169006,62.229218  z"
   id="path296" />
<path
   fill="#FF694A"
   opacity="1.000000"
   stroke="none"
   d=" M137.169006,64.229218   C137.553986,64.513855 138.107986,65.027718 138.830994,65.770782   C138.446014,65.486137 137.892029,64.972282 137.169006,64.229218  z"
   id="path298" />
<path
   fill="#FF694A"
   opacity="1.000000"
   stroke="none"
   d=" M140.169006,66.229218   C140.553986,66.513855 141.107986,67.027710 141.830994,67.770782   C141.446014,67.486145 140.892014,66.972282 140.169006,66.229218  z"
   id="path300" />
<path
   fill="#FF694A"
   opacity="1.000000"
   stroke="none"
   d=" M256.770782,139.169006   C256.486145,139.554001 255.972275,140.107986 255.229218,140.830994   C255.513855,140.445999 256.027710,139.892014 256.770782,139.169006  z"
   id="path302" />
<path
   fill="#FF694A"
   opacity="1.000000"
   stroke="none"
   d=" M145.169006,69.229218   C145.553986,69.513855 146.107986,70.027710 146.830994,70.770782   C146.446014,70.486145 145.892014,69.972282 145.169006,69.229218  z"
   id="path304" />
<path
   fill="#FF694A"
   opacity="1.000000"
   stroke="none"
   d=" M263.169006,195.229218   C263.553986,195.513870 264.107971,196.027725 264.830994,196.770782   C264.446014,196.486130 263.891998,195.972275 263.169006,195.229218  z"
   id="path306" />
<path
   fill="#FF694A"
   opacity="1.000000"
   stroke="none"
   d=" M55.229210,200.830963   C55.513859,200.446014 56.027718,199.892014 56.770782,199.169006   C56.486134,199.553970 55.972275,200.107956 55.229210,200.830963  z"
   id="path308" />

</svg>
