<?xml version="1.0" encoding="UTF-8" standalone="no"?>
<svg
   version="1.1"
   id="Layer_1"
   x="0px"
   y="0px"
   width="100%"
   viewBox="0 0 500 500"
   enable-background="new 0 0 500 500"
   xml:space="preserve"
   sodipodi:docname="marvelmind.svg"
   inkscape:version="1.2.2 (732a01da63, 2022-12-09)"
   xmlns:inkscape="http://www.inkscape.org/namespaces/inkscape"
   xmlns:sodipodi="http://sodipodi.sourceforge.net/DTD/sodipodi-0.dtd"
   xmlns="http://www.w3.org/2000/svg"
   xmlns:svg="http://www.w3.org/2000/svg"><defs
   id="defs13" /><sodipodi:namedview
   id="namedview11"
   pagecolor="#ffffff"
   bordercolor="#000000"
   borderopacity="0.25"
   inkscape:showpageshadow="2"
   inkscape:pageopacity="0.0"
   inkscape:pagecheckerboard="true"
   inkscape:deskcolor="#d1d1d1"
   showgrid="false"
   inkscape:zoom="1.1370277"
   inkscape:cx="161.38569"
   inkscape:cy="351.35468"
   inkscape:window-width="1920"
   inkscape:window-height="991"
   inkscape:window-x="-9"
   inkscape:window-y="-9"
   inkscape:window-maximized="1"
   inkscape:current-layer="Layer_1" />

<path
   fill="#2C679F"
   opacity="1.000000"
   stroke="none"
   d=" M224.999786,473.104767   C198.668198,472.947601 172.829880,472.386841 147.007904,472.813721   C134.492538,473.020599 125.160889,468.429077 117.741524,458.840790   C100.531342,436.599640 83.260406,414.405457 66.085403,392.137207   C59.684246,383.837799 53.833614,375.090607 47.114021,367.065002   C33.827755,351.196350 26.169163,333.072968 22.959085,312.720276   C21.098551,300.924072 18.187672,289.294678 15.794893,277.580933   C13.388235,265.799286 17.093334,255.662979 27.625658,249.952118   C34.011475,246.489563 41.463894,244.120804 48.676205,243.257172   C59.953712,241.906784 69.327393,247.060883 73.841393,257.467590   C78.222626,267.568146 80.960266,278.422302 83.924164,289.083313   C86.055321,296.748993 87.323959,304.652069 89.096725,312.422028   C89.413811,313.811798 90.105522,315.227844 90.974640,316.363647   C113.120369,345.305115 135.285690,374.231781 157.577957,403.060242   C158.682388,404.488495 160.945221,405.781647 162.699295,405.822510   C173.522766,406.074677 184.355057,405.949127 195.946075,405.949127   C195.946075,404.248138 195.946075,402.669891 195.946075,401.091644   C195.946091,331.594543 195.973999,262.097382 195.835922,192.600571   C195.830826,190.035172 194.792969,187.028366 193.243958,184.976471   C172.491150,157.486389 151.520050,130.161179 130.738663,102.692505   C128.624969,99.898651 126.519951,98.630882 122.935028,98.697548   C110.773071,98.923714 98.604202,98.817223 86.438187,98.775986   C69.147202,98.717377 56.145042,85.920265 55.793056,68.677528   C55.410843,49.953976 67.788040,35.642250 85.216064,34.941105   C97.036797,34.465542 108.875122,33.980736 120.697556,34.131111   C130.646317,34.257656 140.733521,34.442970 150.485001,36.160423   C160.915771,37.997505 169.136520,44.303722 175.672668,52.849937   C202.665115,88.143410 229.844894,123.293732 256.777039,158.632904   C258.606049,161.032883 259.855133,164.549835 259.873169,167.556305   C260.335724,244.717712 260.598328,321.880310 260.894836,399.042725   C260.900482,400.511261 260.895508,401.979858 260.895508,404.196533   C273.316467,404.196533 285.385162,404.196533 297.960052,404.196533   C298.549377,395.380798 299.250885,386.134735 299.771667,376.878510   C301.904907,338.962891 303.967133,301.043335 306.087433,263.126984   C307.398682,239.679047 308.869019,216.239166 309.979156,192.781998   C310.114868,189.914917 309.126770,186.516586 307.528778,184.117706   C285.871063,151.605713 264.073334,119.186302 242.167175,86.840897   C235.858490,77.525848 233.887238,67.487190 235.392395,56.484947   C239.065994,29.631783 272.157440,25.411636 286.392792,37.116970   C291.195007,41.065697 295.697174,45.819489 299.035828,51.037518   C323.307312,88.971703 347.277161,127.099220 371.206909,165.250580   C372.509399,167.327133 373.253387,170.190369 373.155945,172.643646   C371.503448,214.257370 369.712036,255.865753 367.875061,297.471954   C366.662659,324.932037 365.341675,352.387390 364.042542,379.843597   C363.654449,388.045624 363.176056,396.243347 362.699249,405.189697   C377.001251,405.189697 390.586243,405.189697 404.647156,405.189697   C406.038300,394.003876 407.504333,382.341125 408.936462,370.674164   C411.834442,347.065948 414.729065,323.457336 417.596802,299.845459   C420.404480,276.727905 423.160675,253.604095 425.971649,230.486954   C427.477539,218.102921 429.272003,205.748062 430.448608,193.333832   C430.767242,189.971573 430.190765,185.931168 428.532806,183.065430   C409.152710,149.567551 389.350708,116.313431 370.027863,82.783028   C366.694061,76.997993 364.637329,70.350586 362.778687,63.875340   C360.673431,56.540901 362.688843,49.552494 367.397156,43.711567   C374.450836,34.960968 383.779724,29.542334 394.894928,28.048794   C409.679596,26.062191 419.141998,34.059147 425.883301,46.134064   C437.700592,67.301117 449.413330,88.526619 461.136688,109.745995   C470.933075,127.477646 480.282227,145.473495 490.637848,162.871155   C495.122192,170.404938 495.959229,177.580032 494.884888,185.958603   C491.605682,211.532303 488.922699,237.182159 485.961334,262.797028   C482.426636,293.370697 478.879700,323.943054 475.271210,354.508087   C472.229248,380.274384 469.120544,406.032867 465.969971,431.786102   C465.405243,436.402161 464.707825,441.023285 463.703674,445.560608   C459.437531,464.837860 448.634521,473.846405 428.480133,473.977661   C392.150665,474.214264 355.817871,474.115326 319.487335,473.955658   C288.157501,473.817993 256.828918,473.401001 224.999786,473.104767  z"
   id="path4" />
<path
   fill="#010101"
   opacity="1.000000"
   stroke="none"
   d=" M17.255064,141.285889   C35.071308,120.855721 64.780220,119.031364 84.132164,135.254288   C99.037262,147.749390 104.853569,164.047272 100.544510,182.948669   C96.247871,201.795532 83.991020,214.133331 65.225899,218.872864   C45.219296,223.925934 25.002718,215.636917 13.942195,198.901138   C2.145124,181.050888 3.253729,160.336090 17.255064,141.285889  M46.441902,151.902237   C39.447632,148.114517 33.010586,148.503433 27.536028,153.044449   C22.873676,156.911789 20.772266,163.933792 22.543371,169.727859   C24.607794,176.481506 30.290627,180.925308 37.133263,181.136734   C44.478825,181.363693 50.547810,177.362228 52.957066,170.703598   C55.454216,163.802048 53.451103,157.468994 46.441902,151.902237  z"
   id="path6" />

</svg>
