<svg version="1.1" id="Layer_1" xmlns="http://www.w3.org/2000/svg" xmlns:xlink="http://www.w3.org/1999/xlink" x="0px" y="0px"
	 width="100%" viewBox="0 0 400 400" enable-background="new 0 0 400 400" xml:space="preserve">
<path fill="#101113" opacity="1.000000" stroke="none" 
	d="
M401.000000,2.000000 
	C401.000000,134.952225 401.000000,267.904449 401.000000,400.928345 
	C267.762390,400.928345 134.524704,400.928345 1.000000,400.928345 
	C1.000000,268.310150 1.000000,135.620087 1.465012,2.464601 
	C134.953354,1.999451 267.976685,1.999726 401.000000,2.000000 
M136.985352,129.288620 
	C136.304504,123.442184 133.199188,119.307495 127.637840,117.593010 
	C122.060631,115.873627 117.117821,117.592964 113.198677,121.924477 
	C109.523346,125.986534 109.039276,130.891846 111.867455,134.922058 
	C114.509300,137.335144 117.151146,139.748215 120.086571,142.865097 
	C127.969902,145.861084 135.318359,141.079742 136.893784,131.349411 
	C136.859467,130.916138 136.825134,130.482864 136.985352,129.288620 
M233.674316,194.291138 
	C234.220779,193.912491 234.767242,193.533844 235.878387,192.783920 
	C244.735855,182.810852 241.664520,172.361450 228.264084,169.186829 
	C227.524353,169.268936 226.784607,169.351059 225.344727,169.444412 
	C218.307755,171.731705 214.785950,175.542984 214.645050,181.881378 
	C214.524475,187.305527 216.535370,191.792023 222.357651,194.463455 
	C222.926147,194.572601 223.494659,194.681747 224.358185,195.313583 
	C224.919937,195.386719 225.481705,195.459869 226.796112,195.711838 
	C228.708176,195.260178 230.620255,194.808533 232.789246,194.478745 
	C232.789246,194.478745 232.993713,194.281113 233.674316,194.291138 
M288.823303,120.905548 
	C288.823303,120.905548 288.457397,120.783646 288.105896,120.152634 
	C281.248413,115.802002 275.039185,116.273651 270.214783,121.511635 
	C265.951935,126.139954 265.722839,133.760635 269.621368,138.822769 
	C272.736298,142.867416 281.048676,146.053757 286.554321,141.809311 
	C287.430450,141.018143 288.306580,140.226974 289.818359,139.136887 
	C294.468689,132.505096 294.186829,126.547012 288.823303,120.905548 
M228.239594,117.291161 
	C222.167526,117.070229 217.894165,120.103653 215.674438,125.393044 
	C213.632507,130.258820 214.179840,135.321671 218.105621,139.274612 
	C221.615646,142.808945 225.687515,145.273773 231.724594,142.961380 
	C236.293579,140.344437 240.749191,137.748337 240.825226,131.454224 
	C240.921127,123.517006 238.435272,120.450424 228.239594,117.291161 
M167.166824,120.869316 
	C167.166824,120.869316 167.019470,121.195045 166.374313,121.389778 
	C162.209732,125.668602 161.312057,130.512085 163.766907,135.991653 
	C165.975983,140.922546 171.979370,144.483994 177.118393,143.834213 
	C182.803940,143.115341 187.913940,138.439163 188.869217,133.081070 
	C189.904404,127.274643 187.161774,121.501976 182.048920,118.725822 
	C176.995575,115.981979 171.736267,116.715996 167.166824,120.869316 
M188.867889,256.500061 
	C188.865875,231.838470 188.904236,207.176773 188.841156,182.515335 
	C188.817322,173.197464 179.889725,167.016479 171.244949,170.169998 
	C165.338028,172.324799 162.501923,177.124283 162.494156,185.456360 
	C162.463516,218.282837 162.487366,251.109344 162.506165,283.935852 
	C162.506927,285.263824 162.563889,286.606323 162.760010,287.917328 
	C163.937775,295.790283 169.383148,300.003662 177.517349,299.391296 
	C184.109283,298.895020 188.836670,293.350464 188.860321,285.994141 
	C188.890884,276.496185 188.867844,266.998108 188.867889,256.500061 
M266.994354,248.500000 
	C266.994507,260.981323 266.978882,273.462708 267.000336,285.944000 
	C267.014404,294.135315 271.979065,299.406006 279.651215,299.445984 
	C287.559204,299.487183 292.801514,294.494446 292.821747,286.380524 
	C292.907684,251.932343 292.908051,217.483765 292.842926,183.035507 
	C292.827667,174.951965 286.815399,168.862289 279.568329,169.157928 
	C272.253235,169.456345 267.022125,175.218094 267.012970,183.096405 
	C266.987946,204.564240 266.998138,226.032135 266.994354,248.500000 
M214.680862,236.920471 
	C214.782379,254.051407 214.639008,271.188965 215.101883,288.310120 
	C215.296204,295.497894 221.257095,299.755096 228.955612,299.413971 
	C235.619324,299.118713 240.717255,293.921478 240.745438,287.073456 
	C240.818008,269.437592 241.049057,251.793182 240.533966,234.172134 
	C240.433701,230.742065 237.885635,226.772903 235.327225,224.174072 
	C231.830307,220.621887 227.000183,220.749878 222.395462,222.762573 
	C216.578186,225.305252 214.736053,230.140411 214.680862,236.920471 
M115.085220,296.497589 
	C119.767395,300.161591 124.918968,300.594421 130.057602,297.952209 
	C135.352280,295.229828 136.987228,290.388397 136.943573,284.602295 
	C136.821701,268.454193 136.919876,252.304504 136.906601,236.155472 
	C136.899567,227.598328 131.069092,221.167343 123.527931,221.334610 
	C115.982964,221.501984 110.568527,227.589249 110.546692,236.108704 
	C110.504883,252.424118 110.300041,268.745941 110.724670,285.050476 
	C110.820259,288.720764 113.222527,292.330963 115.085220,296.497589 
M112.635086,175.210419 
	C108.608986,183.061600 110.303879,190.149857 117.165962,194.159149 
	C122.833557,197.470535 130.844254,195.709534 134.472809,190.354568 
	C138.853790,183.889160 137.677948,176.641830 131.472595,171.862762 
	C125.515839,167.275162 118.519821,168.309525 112.635086,175.210419 
z"/>
<path fill="#2D2E30" opacity="1.000000" stroke="none" 
	d="
M401.000000,1.500000 
	C267.976685,1.999726 134.953354,1.999451 1.465012,1.999588 
	C2.333333,1.666667 3.666421,1.042919 5.000035,1.041790 
	C62.333328,0.993245 119.666664,1.000000 177.000000,1.000000 
	C251.666672,1.000000 326.333344,1.000000 401.000000,1.500000 
z"/>
<path fill="#F8F8F8" opacity="1.000000" stroke="none" 
	d="
M188.867889,257.000061 
	C188.867844,266.998108 188.890884,276.496185 188.860321,285.994141 
	C188.836670,293.350464 184.109283,298.895020 177.517349,299.391296 
	C169.383148,300.003662 163.937775,295.790283 162.760010,287.917328 
	C162.563889,286.606323 162.506927,285.263824 162.506165,283.935852 
	C162.487366,251.109344 162.463516,218.282837 162.494156,185.456360 
	C162.501923,177.124283 165.338028,172.324799 171.244949,170.169998 
	C179.889725,167.016479 188.817322,173.197464 188.841156,182.515335 
	C188.904236,207.176773 188.865875,231.838470 188.867889,257.000061 
z"/>
<path fill="#FBFBFB" opacity="1.000000" stroke="none" 
	d="
M266.994354,248.000000 
	C266.998138,226.032135 266.987946,204.564240 267.012970,183.096405 
	C267.022125,175.218094 272.253235,169.456345 279.568329,169.157928 
	C286.815399,168.862289 292.827667,174.951965 292.842926,183.035507 
	C292.908051,217.483765 292.907684,251.932343 292.821747,286.380524 
	C292.801514,294.494446 287.559204,299.487183 279.651215,299.445984 
	C271.979065,299.406006 267.014404,294.135315 267.000336,285.944000 
	C266.978882,273.462708 266.994507,260.981323 266.994354,248.000000 
z"/>
<path fill="#FAFAFA" opacity="1.000000" stroke="none" 
	d="
M214.682480,236.472992 
	C214.736053,230.140411 216.578186,225.305252 222.395462,222.762573 
	C227.000183,220.749878 231.830307,220.621887 235.327225,224.174072 
	C237.885635,226.772903 240.433701,230.742065 240.533966,234.172134 
	C241.049057,251.793182 240.818008,269.437592 240.745438,287.073456 
	C240.717255,293.921478 235.619324,299.118713 228.955612,299.413971 
	C221.257095,299.755096 215.296204,295.497894 215.101883,288.310120 
	C214.639008,271.188965 214.782379,254.051407 214.682480,236.472992 
z"/>
<path fill="#FCFCFC" opacity="1.000000" stroke="none" 
	d="
M114.824066,296.233215 
	C113.222527,292.330963 110.820259,288.720764 110.724670,285.050476 
	C110.300041,268.745941 110.504883,252.424118 110.546692,236.108704 
	C110.568527,227.589249 115.982964,221.501984 123.527931,221.334610 
	C131.069092,221.167343 136.899567,227.598328 136.906601,236.155472 
	C136.919876,252.304504 136.821701,268.454193 136.943573,284.602295 
	C136.987228,290.388397 135.352280,295.229828 130.057602,297.952209 
	C124.918968,300.594421 119.767395,300.161591 114.824066,296.233215 
z"/>
<path fill="#BE6F9B" opacity="1.000000" stroke="none" 
	d="
M167.505737,120.755531 
	C171.736267,116.715996 176.995575,115.981979 182.048920,118.725822 
	C187.161774,121.501976 189.904404,127.274643 188.869217,133.081070 
	C187.913940,138.439163 182.803940,143.115341 177.118393,143.834213 
	C171.979370,144.483994 165.975983,140.922546 163.766907,135.991653 
	C161.312057,130.512085 162.209732,125.668602 166.689758,121.658989 
	C166.460266,123.114609 165.961929,124.325119 165.362701,125.483437 
	C161.962708,132.055557 166.289658,141.015167 175.774063,140.246704 
	C175.641510,138.024841 174.935196,135.642029 175.482452,133.594238 
	C177.157425,127.326691 174.193008,122.246460 167.505737,120.755531 
z"/>
<path fill="#A999BD" opacity="1.000000" stroke="none" 
	d="
M230.992386,142.971176 
	C225.687515,145.273773 221.615646,142.808945 218.105621,139.274612 
	C214.179840,135.321671 213.632507,130.258820 215.674438,125.393044 
	C217.894165,120.103653 222.167526,117.070229 228.607513,117.766960 
	C228.433258,120.375229 227.547638,122.489761 227.435074,124.644669 
	C227.291611,127.391304 228.422684,130.317474 227.838089,132.902496 
	C226.884171,137.120514 227.100372,140.491913 230.992386,142.971176 
z"/>
<path fill="#8AC7E2" opacity="1.000000" stroke="none" 
	d="
M285.948914,141.849564 
	C281.048676,146.053757 272.736298,142.867416 269.621368,138.822769 
	C265.722839,133.760635 265.951935,126.139954 270.214783,121.511635 
	C275.039185,116.273651 281.248413,115.802002 287.835083,120.530449 
	C284.232849,120.657433 280.901459,120.406593 277.570038,120.155754 
	C277.498383,120.667717 277.426758,121.179680 277.355103,121.691650 
	C278.841614,122.480888 280.328125,123.270126 283.034180,124.706863 
	C280.318085,126.050987 278.497437,126.951973 275.663757,128.354279 
	C277.750366,131.263489 279.819305,134.148056 282.064240,137.277985 
	C279.755859,137.849365 277.967712,138.291992 276.179535,138.734604 
	C276.095276,139.266907 276.011017,139.799210 275.926727,140.331512 
	C277.723877,140.865936 279.491852,141.578461 281.327301,141.879044 
	C282.826019,142.124496 284.405334,141.877960 285.948914,141.849564 
z"/>
<path fill="#A5A4CA" opacity="1.000000" stroke="none" 
	d="
M231.358490,142.966278 
	C227.100372,140.491913 226.884171,137.120514 227.838089,132.902496 
	C228.422684,130.317474 227.291611,127.391304 227.435074,124.644669 
	C227.547638,122.489761 228.433258,120.375229 228.991608,117.893257 
	C238.435272,120.450424 240.921127,123.517006 240.825226,131.454224 
	C240.749191,137.748337 236.293579,140.344437 231.358490,142.966278 
z"/>
<path fill="#ADA0C8" opacity="1.000000" stroke="none" 
	d="
M224.063156,194.790894 
	C223.494659,194.681747 222.926147,194.572601 222.135651,193.866272 
	C221.216003,191.782776 220.119598,190.352386 219.901733,188.798782 
	C219.413589,185.317932 218.862671,181.701996 219.365875,178.292923 
	C219.583908,176.815903 222.341553,175.713730 223.945648,174.441299 
	C223.714203,174.317261 223.482758,174.193222 223.251328,174.069183 
	C224.182495,172.523849 225.113678,170.978516 226.044861,169.433182 
	C226.784607,169.351059 227.524353,169.268936 228.633484,169.669464 
	C229.670029,176.896210 230.276215,183.647369 231.055099,190.378555 
	C231.213028,191.743378 232.022964,193.032745 232.532318,194.356888 
	C230.620255,194.808533 228.708176,195.260178 226.369843,195.379089 
	C225.316772,194.961197 224.689957,194.876053 224.063156,194.790894 
z"/>
<path fill="#F63876" opacity="1.000000" stroke="none" 
	d="
M119.792992,142.161301 
	C117.151146,139.748215 114.509300,137.335144 111.898819,134.106171 
	C111.975227,124.243706 113.806763,121.543373 121.025620,120.266144 
	C122.561333,122.354881 125.620804,124.361290 125.355301,125.716125 
	C124.354950,130.820908 126.884361,131.331818 131.248184,130.564194 
	C131.152893,131.031296 131.057617,131.498398 130.962326,131.965500 
	C128.878922,132.523056 126.795525,133.080612 124.368080,133.730255 
	C125.561333,134.680679 126.501259,135.429321 128.362137,136.911530 
	C123.376816,136.590790 121.339455,137.931595 122.605576,142.045441 
	C121.399551,142.087036 120.596275,142.124176 119.792992,142.161301 
z"/>
<path fill="#D14374" opacity="1.000000" stroke="none" 
	d="
M112.834137,174.899750 
	C118.519821,168.309525 125.515839,167.275162 131.472595,171.862762 
	C137.677948,176.641830 138.853790,183.889160 134.472809,190.354568 
	C130.844254,195.709534 122.833557,197.470535 117.165962,194.159149 
	C110.303879,190.149857 108.608986,183.061600 112.834137,174.899750 
M120.413887,193.599030 
	C127.260460,194.446594 128.230820,193.743408 129.150909,187.588821 
	C129.289383,186.662506 130.013474,185.835144 130.395676,184.931961 
	C132.404999,180.183609 131.045181,174.086578 127.569176,172.163010 
	C123.703247,170.023666 117.578758,171.687607 114.258423,175.779343 
	C111.127007,179.638275 111.327919,184.800369 114.783325,188.304993 
	C116.413872,189.958817 118.103073,191.554794 120.413887,193.599030 
z"/>
<path fill="#85DBF7" opacity="1.000000" stroke="none" 
	d="
M286.251617,141.829437 
	C284.405334,141.877960 282.826019,142.124496 281.327301,141.879044 
	C279.491852,141.578461 277.723877,140.865936 275.926727,140.331512 
	C276.011017,139.799210 276.095276,139.266907 276.179535,138.734604 
	C277.967712,138.291992 279.755859,137.849365 282.064240,137.277985 
	C279.819305,134.148056 277.750366,131.263489 275.663757,128.354279 
	C278.497437,126.951973 280.318085,126.050987 283.034180,124.706863 
	C280.328125,123.270126 278.841614,122.480888 277.355103,121.691650 
	C277.426758,121.179680 277.498383,120.667717 277.570038,120.155754 
	C280.901459,120.406593 284.232849,120.657433 288.010834,120.845955 
	C288.457397,120.783646 288.823303,120.905548 288.899048,121.449219 
	C291.424164,126.781235 292.971741,131.557220 289.404907,136.577545 
	C288.930206,137.245667 289.237549,138.469391 289.182739,139.435822 
	C288.306580,140.226974 287.430450,141.018143 286.251617,141.829437 
z"/>
<path fill="#A5A4CA" opacity="1.000000" stroke="none" 
	d="
M232.660767,194.417816 
	C232.022964,193.032745 231.213028,191.743378 231.055099,190.378555 
	C230.276215,183.647369 229.670029,176.896210 228.999084,169.758942 
	C241.664520,172.361450 244.735855,182.810852 235.243011,192.945175 
	C234.069672,193.497986 233.531693,193.889557 232.993713,194.281128 
	C232.993713,194.281113 232.789246,194.478745 232.660767,194.417816 
z"/>
<path fill="#EF3F7B" opacity="1.000000" stroke="none" 
	d="
M123.008316,142.040955 
	C121.339455,137.931595 123.376816,136.590790 128.362137,136.911530 
	C126.501259,135.429321 125.561333,134.680679 124.368080,133.730255 
	C126.795525,133.080612 128.878922,132.523056 130.962326,131.965500 
	C131.057617,131.498398 131.152893,131.031296 131.248184,130.564194 
	C126.884361,131.331818 124.354950,130.820908 125.355301,125.716125 
	C125.620804,124.361290 122.561333,122.354881 121.375763,120.122932 
	C127.989983,118.313484 132.367294,121.035378 134.173477,127.034683 
	C134.523392,128.196960 135.892059,129.052536 136.790802,130.049591 
	C136.825134,130.482864 136.859467,130.916138 136.564270,131.852371 
	C135.547852,133.251022 134.799606,134.106705 134.184723,135.049377 
	C131.533493,139.113876 128.440872,142.437332 123.008316,142.040955 
z"/>
<path fill="#D6679D" opacity="1.000000" stroke="none" 
	d="
M167.336273,120.812424 
	C174.193008,122.246460 177.157425,127.326691 175.482452,133.594238 
	C174.935196,135.642029 175.641510,138.024841 175.774063,140.246704 
	C166.289658,141.015167 161.962708,132.055557 165.362701,125.483437 
	C165.961929,124.325119 166.460266,123.114609 167.012329,121.561623 
	C167.019470,121.195045 167.166824,120.869316 167.336273,120.812424 
z"/>
<path fill="#A290B1" opacity="1.000000" stroke="none" 
	d="
M225.694794,169.438797 
	C225.113678,170.978516 224.182495,172.523849 223.251328,174.069183 
	C223.482758,174.193222 223.714203,174.317261 223.945648,174.441299 
	C222.341553,175.713730 219.583908,176.815903 219.365875,178.292923 
	C218.862671,181.701996 219.413589,185.317932 219.901733,188.798782 
	C220.119598,190.352386 221.216003,191.782776 221.952484,193.640732 
	C216.535370,191.792023 214.524475,187.305527 214.645050,181.881378 
	C214.785950,175.542984 218.307755,171.731705 225.694794,169.438797 
z"/>
<path fill="#C2416E" opacity="1.000000" stroke="none" 
	d="
M136.888077,129.669098 
	C135.892059,129.052536 134.523392,128.196960 134.173477,127.034683 
	C132.367294,121.035378 127.989983,118.313484 121.372864,119.741440 
	C113.806763,121.543373 111.975227,124.243706 111.899292,133.739365 
	C109.039276,130.891846 109.523346,125.986534 113.198677,121.924477 
	C117.117821,117.592964 122.060631,115.873627 127.637840,117.593010 
	C133.199188,119.307495 136.304504,123.442184 136.888077,129.669098 
z"/>
<path fill="#C2416E" opacity="1.000000" stroke="none" 
	d="
M122.605576,142.045441 
	C128.440872,142.437332 131.533493,139.113876 134.184723,135.049377 
	C134.799606,134.106705 135.547852,133.251022 136.513489,132.175369 
	C135.318359,141.079742 127.969902,145.861084 119.939781,142.513199 
	C120.596275,142.124176 121.399551,142.087036 122.605576,142.045441 
z"/>
<path fill="#8AC7E2" opacity="1.000000" stroke="none" 
	d="
M289.500549,139.286346 
	C289.237549,138.469391 288.930206,137.245667 289.404907,136.577545 
	C292.971741,131.557220 291.424164,126.781235 288.973785,121.626968 
	C294.186829,126.547012 294.468689,132.505096 289.500549,139.286346 
z"/>
<path fill="#A290B1" opacity="1.000000" stroke="none" 
	d="
M224.210663,195.052246 
	C224.689957,194.876053 225.316772,194.961197 225.993515,195.289673 
	C225.481705,195.459869 224.919937,195.386719 224.210663,195.052246 
z"/>
<path fill="#A290B1" opacity="1.000000" stroke="none" 
	d="
M233.334015,194.286133 
	C233.531693,193.889557 234.069672,193.497986 234.960663,193.130814 
	C234.767242,193.533844 234.220779,193.912491 233.334015,194.286133 
z"/>
<path fill="#F63876" opacity="1.000000" stroke="none" 
	d="
M120.089798,193.388000 
	C118.103073,191.554794 116.413872,189.958817 114.783325,188.304993 
	C111.327919,184.800369 111.127007,179.638275 114.258423,175.779343 
	C117.578758,171.687607 123.703247,170.023666 127.569176,172.163010 
	C131.045181,174.086578 132.404999,180.183609 130.395676,184.931961 
	C130.013474,185.835144 129.289383,186.662506 129.150909,187.588821 
	C128.230820,193.743408 127.260460,194.446594 120.089798,193.388000 
M125.050217,174.673798 
	C124.999626,174.210144 124.949028,173.746490 124.898438,173.282837 
	C124.485970,173.389923 124.073502,173.497009 123.661026,173.604111 
	C123.939766,174.000854 124.218506,174.397598 125.050217,174.673798 
z"/>
<path fill="#D14374" opacity="1.000000" stroke="none" 
	d="
M124.773727,174.734070 
	C124.218506,174.397598 123.939766,174.000854 123.661026,173.604111 
	C124.073502,173.497009 124.485970,173.389923 124.898438,173.282837 
	C124.949028,173.746490 124.999626,174.210144 124.773727,174.734070 
z"/>
</svg>