<?xml version="1.0" encoding="UTF-8" standalone="no"?>
<!-- Generator: Adobe Illustrator 19.2.0, SVG Export Plug-In . SVG Version: 6.00 Build 0)  -->

<svg
   version="1.1"
   id="Capa_1"
   x="0px"
   y="0px"
   width="350"
   height="70"
   viewBox="0 0 350 70"
   xml:space="preserve"
   sodipodi:docname="logoEmotur.svg"
   inkscape:version="1.2.2 (732a01da63, 2022-12-09)"
   xmlns:inkscape="http://www.inkscape.org/namespaces/inkscape"
   xmlns:sodipodi="http://sodipodi.sourceforge.net/DTD/sodipodi-0.dtd"
   xmlns="http://www.w3.org/2000/svg"
   xmlns:svg="http://www.w3.org/2000/svg"><defs
   id="defs15" /><sodipodi:namedview
   id="namedview13"
   pagecolor="#ffffff"
   bordercolor="#000000"
   borderopacity="0.25"
   inkscape:showpageshadow="2"
   inkscape:pageopacity="0.0"
   inkscape:pagecheckerboard="0"
   inkscape:deskcolor="#d1d1d1"
   showgrid="false"
   inkscape:zoom="2.123196"
   inkscape:cx="203.70235"
   inkscape:cy="-26.139839"
   inkscape:window-width="1920"
   inkscape:window-height="991"
   inkscape:window-x="-9"
   inkscape:window-y="-9"
   inkscape:window-maximized="1"
   inkscape:current-layer="g10" />
<style
   type="text/css"
   id="style2">
	.st0{fill:#065184;}
	.st1{fill:#FF8A00;}
	.st2{fill:#264485;}
</style>
<g
   id="g10">
	
	
	<path
   class="st2"
   d="M 20.541822,48.309669 20.357713,48.12556 c 0,0.184109 0,0.368219 0.184109,0.184109 -0.184109,0.18411 0,0.18411 0,0.18411 0,0 0,-0.18411 0,-0.18411 m -0.184109,0 v 0 0 0 0 M 17.780174,47.20501 c 0.552329,0.55233 1.288769,1.288769 2.209319,1.104659 0,-0.36822 0.184109,-0.73644 0,-1.104659 0,-0.18411 -0.368221,-0.552329 -0.55233,-0.552329 -0.36822,0 -0.736439,0 -1.288769,0.184109 0.184109,0 0,0.18411 -0.36822,0.36822 m -4.050418,-5.891518 c 0,0.184111 0,0.36822 0.18411,0.36822 0.552329,0.55233 1.288769,1.104661 1.65699,1.8411 0.184109,0.18411 0.36822,0.55233 0.736439,0.55233 0.736439,0.368219 1.841099,0 2.209318,-0.73644 0.184111,-0.552329 -0.18411,-1.65699 -1.104659,-1.841099 -0.184109,0 -0.552329,-0.184111 -0.736439,0 -0.552331,0.184109 -1.104659,0 -1.656989,-0.368219 -0.552331,-0.552331 -0.92055,-0.184111 -1.28877,0.184108 M 13.545647,29.898678 Z m -1.472881,11.230706 c 0,0.184108 0.184111,0.368219 0.368221,0.368219 0.18411,0 0.18411,-0.184111 0.36822,-0.368219 -0.18411,-0.184111 -0.36822,-0.184111 -0.36822,-0.184111 -0.18411,-0.36822 -0.368221,0 -0.368221,0.184111 m -1.104658,-1.8411 c -0.184111,0.18411 0,0.55233 0.368219,0.55233 0.36822,0 0.736439,-0.18411 0.736439,-0.55233 0,-0.18411 -0.184108,-0.368219 -0.368219,-0.368219 -0.18411,0 -0.36822,0 -0.736439,0.368219 M 7.1017996,22.718392 c 0.3682198,-1.104659 0.5523298,-1.841099 0.7364397,-2.945758 0,-0.55233 -0.1841099,-1.288769 -0.3682199,-1.8411 -0.1841098,0 -0.3682198,0 -0.5523297,0.184111 -1.1046594,1.104659 -2.025209,2.393428 -2.7616485,3.866307 0,0.18411 -0.18411,0.368221 -0.18411,0.368221 0.3682197,0.736439 0,1.841098 -0.18411,2.761648 -0.1841098,1.28877 -0.3682198,2.393428 -0.7364396,3.498089 -0.5523297,1.472879 -1.1046595,2.945758 -1.8410991,4.050418 -0.36821991,0.368219 -0.1841099,0.736439 0.1841099,1.288769 0.3682199,0.184109 0.5523297,0.368219 1.2887695,0.184109 0.7364395,-1.28877 2.0252089,-2.025209 2.3934288,-3.498088 1.1046594,-0.18411 1.2887693,-0.368219 0.7364396,-1.10466 -0.18411,-0.184109 -0.3682199,-0.368219 -0.3682199,-0.552329 0.1841099,-0.73644 0.3682199,-1.656989 0.3682199,-2.209319 0,-0.736439 0.3682198,-1.47288 0.7364395,-1.8411 C 6.1812501,24.375381 6.1812501,23.823052 6.36536,23.270722 c 0.3682198,0 0.5523297,-0.18411 0.7364396,-0.55233 m 0.5523298,9.021386 c 0.1841099,-0.18411 0.1841099,-0.36822 0.1841099,-0.36822 -0.1841099,-0.184111 -0.1841099,-0.184111 -0.3682199,-0.36822 l -0.1841098,0.184109 c 0.1841098,0.184111 0.3682198,0.368221 0.3682198,0.552331 m 2.5775386,8.653165 c 0.18411,-0.184109 0.18411,-0.552329 0,-0.736439 -0.3682199,-0.36822 -1.1046589,-0.36822 -1.6569889,-0.18411 0.18411,0.73644 0.55233,1.104659 1.104659,1.288769 0,-0.18411 0.3682199,-0.18411 0.5523299,-0.36822 m 0.73644,-11.967144 z m 0.368219,5.891517 c 0.18411,0 0.18411,-0.18411 0,0 0,-0.18411 0,-0.18411 0,0 0,-0.18411 0,-0.18411 0,0 v 0 M 27.906219,1.361642 v 0 c 0,-0.1841099 0,-0.1841099 0,-0.1841099 0,0 -0.184111,0.1841099 0,0.1841099 v 0 m 1.656989,-0.73643949 c 0,-0.18410996 -0.184111,-0.36821993 -0.368219,-0.36821993 -0.184111,0 -0.368221,0.18410997 -0.368221,0.36821993 0,0.1841097 0.18411,0.3682197 0.368221,0.3682197 0.184108,-0.18411 0.368219,-0.18411 0.368219,-0.3682197 m 7.916726,8.83727539 c -0.36822,-0.1841088 -1.10466,-0.5523303 -1.656989,-0.5523303 -0.55233,0 -2.209319,-0.7364389 -2.761649,-0.7364389 -0.55233,0 -0.55233,-0.18411 -1.104659,-0.3682199 -0.184111,-0.1841098 -0.73644,-0.1841098 -0.73644,-0.1841098 0,0 -1.472879,-0.1841099 -1.472879,-0.5523298 0.18411,-0.3682198 0.18411,0 0.368219,-0.3682198 0.18411,-0.3682198 -0.184109,-0.1841099 -0.184109,-0.5523297 0,-0.18411 0,-0.18411 0,-0.18411 v 0 c 0.184109,-0.1841098 -0.36822,-0.3682198 -0.36822,-0.5523298 0,-0.1841097 0,-0.1841097 0.18411,-0.3682197 0.18411,0 0.368219,0 0.368219,-0.1841098 0,-0.18411 0.18411,-0.36822 -0.368219,-0.36822 -0.368221,0 -0.552329,0.18411 -0.73644,0 -0.18411,-0.1841098 -0.36822,-0.3682197 0,-0.3682197 0.368219,-0.1841099 1.104659,-0.1841099 1.47288,-0.3682198 0.368219,-0.18411 0.368219,-0.3682199 0,-0.3682199 -0.184111,0 -0.73644,0.3682199 -1.47288,0.3682199 -0.552331,0 -0.736439,0.3682198 -0.736439,-0.18411 0,-0.5523296 0,-0.3682198 0,-0.5523296 C 28.090328,2.8345213 27.906219,2.6504114 27.722108,2.6504114 27.538,2.4663015 27.169778,2.4663015 27.169778,2.4663015 26.985669,2.2821915 26.801559,2.0980816 26.801559,1.9139717 c 0,-0.1841098 0,-1.47287915 -0.184109,-1.65698912 -0.184111,0 -0.368221,-0.18410986 -0.368221,0.18410997 0,0.18410996 0.18411,0.36821966 0.18411,0.73643955 0,0.3682199 0,0.7364396 -0.18411,0.7364396 -0.184109,0 -0.552329,0.1841099 -0.552329,0 -0.184111,-0.1841098 -0.36822,-0.7364396 -0.36822,-1.10465949 0,0 -0.18411,-0.55232963 -0.36822,-0.36821966 -0.18411,0.18410996 -0.18411,0.36821966 0,0.55232966 0.18411,0.18410989 0.552329,0.36821979 0.552329,0.73643969 0,0.3682197 0,0.7364396 -0.368219,0.7364396 C 24.77635,2.2821915 24.59224,2.0980816 24.59224,1.9139717 24.408131,1.7298619 24.22402,1.361642 24.22402,1.1775321 c 0,-0.18410989 -0.18411,-0.55232959 -0.36822,-0.36821989 -0.184109,0 -0.368219,0.18411 -0.368219,0.18411 0,0.18410989 0.18411,0.18410989 0.368219,0.36821979 0.18411,0.18411 0.36822,0.5523297 0.552331,0.7364396 0,0.1841099 0.736439,0.5523298 0.552329,0.7364397 -0.18411,0.18411 -0.36822,0 -0.73644,0.18411 -0.36822,0 -1.104659,0.1841098 -1.472879,0 -0.36822,-0.18411 -1.472879,-0.5523298 -1.472879,-0.3682199 -0.18411,0 -0.55233,-0.1841099 -0.73644,-0.1841099 -0.184109,0 -1.28877,0.5523298 -0.736439,1.1046594 0.368219,0.18411 0.18411,-0.1841099 0.736439,-0.1841099 0.36822,0 0.36822,0 0.73644,0.3682199 0.36822,0.3682198 0.73644,0.3682198 1.104659,0.7364395 0.36822,0.18411 0.552331,0.36822 0.36822,0.7364398 -0.18411,0.3682197 -0.55233,0.7364395 -0.55233,1.1046594 0,0.1841099 -0.184109,0.5523297 0,0.7364396 0.18411,0.1841099 0.55233,0.3682199 0.36822,0.5523298 -0.18411,0.1841098 -0.36822,0.1841098 0,0.3682197 0.18411,0 0.18411,0 0.18411,0 v 0 c 0,0.18411 -0.36822,0.5523298 -0.18411,0.5523298 0.368221,0.1841101 0.368221,0 0.368221,0.1841101 0,0.184109 -0.184111,0.5523305 0.184109,0.5523305 0.36822,0 0.36822,0 0.736439,0.3682198 0.36822,0.3682191 0.552331,0.3682191 0.73644,0.5523281 0.18411,0 0.18411,0 0,0.184111 -0.184109,0.18411 -0.55233,0.36822 -0.73644,1.10466 -0.184109,0.552329 0,1.472879 0.36822,1.841098 0.55233,0.368221 2.209319,0.368221 2.39343,0 0.368219,-0.368219 1.288769,-0.552329 1.104658,-1.288769 -0.184108,-0.736439 -0.55233,-1.472879 -1.104658,-1.656989 -0.55233,-0.184111 -0.55233,0 -0.736441,-0.184111 -0.184109,-0.184109 -0.36822,-0.184109 0,-0.3682191 0.184111,0 0.55233,0 0.736441,-0.184109 0.184109,-0.184111 0.552328,-0.3682198 0.736439,-0.184111 0.184111,0.184111 0.368219,0.184111 0.368219,0.36822 0.184111,0.1841101 1.10466,0.1841101 1.28877,-0.184109 0.184111,-0.184111 0,-0.5523306 -0.36822,-1.1046604 -0.184111,-0.1841099 -0.368219,-0.3682198 0,-0.7364397 0.18411,-0.1841098 0.18411,-0.1841098 0.736439,-0.1841098 0.552331,0 1.104661,0 1.65699,0.1841098 0.552329,0.1841099 0.552329,0.3682199 1.10466,0.5523298 0.368219,0 0.73644,0 1.288768,0 0.55233,0.1841099 1.288769,0.1841099 1.288769,0.36822 0.184111,0 1.472881,0.5523305 1.8411,0.5523305 0.73644,0.3682198 1.288769,0.3682198 0.92055,0.1841088 m -8.284945,3.8663081 c 0.368219,0.552331 -0.184111,1.472879 0.184108,2.209319 0.368221,-0.73644 0.368221,-1.104659 0.368221,-1.841098 -0.18411,-0.368221 -0.18411,-0.552331 -0.552329,-0.368221 m 1.841098,-4.7868575 z m 0,0 c -0.18411,0 -0.18411,0 -0.18411,0.1841101 -0.368219,0.5523305 -1.104659,1.2887694 -1.47288,1.8410994 0.368221,0.552329 0.73644,0.552329 1.47288,0.36822 0.36822,-0.736441 0.18411,-1.6569889 0.18411,-2.3934295 m 5.523297,2.0252095 -0.18411,0.18411 v 0.18411 c 0,0 0.18411,0 0.18411,-0.18411 0.36822,0 0.36822,-0.18411 0,-0.18411 m 3.866308,0.36822 c 0,-0.36822 -0.368219,-0.736441 -1.104659,-0.736441 0,0.184111 -0.18411,0.184111 -0.18411,0.368221 0,0.36822 0.55233,0.73644 1.104659,0.552329 -0.184109,0 0.18411,-0.184109 0.18411,-0.184109 m 3.866309,3.313978 c 0,-0.368219 -0.36822,-0.73644 -1.10466,-0.73644 -0.36822,0 -0.736439,0.368221 -0.736439,0.73644 0,0.36822 0.368219,0.73644 1.104658,0.73644 0.368221,0 0.736441,-0.36822 0.736441,-0.73644 M 20.910042,38.735954 c -0.73644,0 -1.472879,0 -1.841099,0 0.36822,0.184111 1.104659,0.55233 1.841099,0 M 33.981845,24.559491 c 0,0 0.184111,-0.552329 -0.184109,-0.552329 -0.368221,-0.18411 -0.55233,-0.368221 -0.55233,-0.18411 0,0.18411 0,0.552329 0.184109,0.736439 -0.184109,0.184111 0.55233,0 0.55233,0 m 3.866308,-3.866308 c 0,0.18411 -0.368219,0.36822 -0.552329,0.18411 -0.73644,-0.36822 -1.65699,-0.736439 -2.761648,-1.8411 1.104658,0.184111 1.841098,0.368221 2.393428,0.55233 0.18411,0 0.18411,0 0.36822,0.184111 0.552329,0.184109 0.73644,0.736439 0.552329,0.920549 m -0.736439,2.945758 c 0,0 0.18411,0.368221 0,0 v 0.368221 c -0.18411,0.184109 -0.18411,0.368219 -0.73644,0.368219 -0.552329,0 -1.472879,0 -1.65699,0.18411 -0.184108,0.184111 -0.368219,0.368219 0.184111,0.55233 0.36822,0 0.552331,0 0.736439,0 0,0 0,0 0,0.184109 v 0 0 h 0.184111 v 0 h -0.184111 v 0 c 0,0.184111 0,0.184111 0,0.368221 0,0 -0.184108,0 -0.368219,0 -0.36822,-0.18411 -0.552331,-0.18411 -1.104659,-0.18411 -0.55233,0 -1.65699,-0.36822 -2.025209,-0.36822 -0.368221,0 -0.368221,0 -1.10466,-0.184111 -0.73644,-0.184108 -0.73644,-0.184108 -1.288769,-0.368219 -0.552329,-0.18411 -0.552329,-0.18411 -1.10466,-0.36822 -0.184111,0 -0.368219,0 -0.55233,-0.184109 0.184111,-0.368221 0.184111,-0.55233 0.368219,-1.10466 0.184111,-0.36822 0.368221,-0.552329 0.552331,-0.552329 0.55233,-0.368221 1.288769,-0.73644 2.025209,-0.552331 2.209319,0.36822 4.234528,0.92055 6.075627,1.841099 m -8.100836,-5.155076 c -1.28877,0.552328 -1.8411,2.025208 -3.682198,1.472878 0,0.55233 0,0.73644 0,1.288769 0.184109,0.368221 0.36822,0.73644 0.552329,1.104661 -1.288769,1.472879 -2.393428,1.656989 -4.050418,0.736439 -0.736439,-0.36822 -1.656989,-1.28877 -2.393428,-1.8411 -0.184111,0.184111 -0.55233,0.55233 -0.736439,0.73644 -0.184111,-0.18411 -0.55233,-0.18411 -0.55233,-0.368219 -0.36822,-0.55233 -0.184111,-1.28877 0,-2.02521 0.368219,0.184111 0.55233,0.36822 0.736439,0.552331 0.736439,0.552329 1.47288,0.552329 2.393429,0.368219 1.288769,-0.368219 2.761648,-0.55233 3.866308,-0.736439 1.288769,-0.184111 2.209319,-0.55233 2.209319,-2.02521 0,-0.184109 0.184111,-0.184109 0.184111,-0.36822 0.552328,0 1.104658,0.184111 1.472878,1.104661 m -2.025209,19.883869 v 1.47288 c -0.368219,-0.18411 -0.73644,-0.36822 -1.10466,-0.55233 -0.36822,-0.368219 -0.736439,-0.73644 -1.288769,-1.10466 0.18411,-0.368219 0.36822,-0.73644 0.36822,-1.288769 0.552329,0 0.552329,0.552329 0.73644,0.73644 0.552329,0.552329 1.104659,0.552329 1.288769,0.736439 m 0,-1.656989 0.184109,-0.184109 v 0 c 0,-0.36822 0.184111,-0.736441 0.184111,-1.28877 0,-0.55233 -0.184111,-1.288769 0.55233,-1.656989 0.184109,-0.18411 0.184109,-0.55233 0.184109,-1.10466 0,-0.184109 0.184111,-0.36822 0.55233,-0.736439 0,0.736439 -0.184111,1.288769 0,1.656989 0,0.368219 0.18411,0.736439 0.36822,1.47288 -0.552331,0.552328 -1.104659,1.288769 -1.8411,1.472878 0,0.184111 -0.184109,0.36822 -0.184109,0.36822 z m 2.393428,-10.678374 c 0.184111,0.36822 0.368221,0.552328 0.368221,0.552328 0,0 0.18411,0.184111 0.18411,0.368222 0,0.184109 0,0.552328 -0.36822,0.552328 -0.368219,0 -0.368219,-0.552328 -0.55233,-0.368219 v 0 c -0.18411,-0.36822 -0.36822,-1.104659 -0.552331,-1.656989 -0.184108,-0.36822 -0.184108,-0.736439 -0.184108,-1.28877 h 0.184108 c 0.368221,0 0.368221,0.18411 0.736442,0.18411 0.368219,0 0.736439,0.18411 1.288769,0.18411 0.184109,0 0.736439,0 0.736439,0.368219 0,0.184111 0.18411,0.36822 -0.18411,0.184111 -0.36822,0 -1.104659,0 -0.73644,0.184109 0.184111,0.184111 0.36822,0.184111 0.73644,0.184111 0.36822,0 0.736439,0.18411 1.10466,0 0.18411,0 0.552329,0 0.18411,-0.184111 -0.36822,-0.184109 -0.552331,-0.36822 -0.18411,-0.36822 0.368219,0 0.552329,0 0.73644,0.184111 0.184109,0.184109 0,0.184109 0.184109,0.36822 0.18411,0.18411 0.55233,0.368219 0.73644,0.18411 0.184109,-0.18411 0.36822,-0.368221 0.73644,-0.18411 0.368219,0.18411 0.55233,0.18411 0.184108,0.368219 -0.368219,0.184111 -0.184108,0.184111 -0.184108,0.184111 0.184108,0 0.55233,0 0.368219,0.184109 -0.184111,0.184111 -0.184111,0.55233 -0.736439,0.368219 -0.55233,-0.184108 -0.55233,-0.184108 -0.736441,-0.184108 -0.184109,0 -1.104658,-0.184111 -1.104658,0 0,0.184108 0.736439,0.368219 1.288769,0.55233 0.368219,0 0.368219,0.368219 0.18411,0.368219 -0.18411,0 -1.10466,0 -1.10466,0 0,0.184109 0.184111,0.36822 0.184111,0.36822 0,0.18411 -0.73644,0.552329 -0.55233,0.736439 0,0 0.368219,0 1.104658,0 -0.184109,0.184111 -0.184109,0.184111 -0.368219,0.368219 -0.36822,0.368221 -1.104659,1.10466 -1.656989,1.472881 -0.18411,0.184109 -0.55233,0.184109 -0.73644,0.368219 0,-0.368219 0,-0.552329 -0.36822,-0.73644 -0.18411,-0.18411 -0.552329,-0.36822 -0.552329,-0.736439 -0.18411,-0.552329 -0.18411,-1.288769 -0.368221,-2.025209 0.368221,0 1.28877,0 1.47288,0 0.18411,0 1.10466,-0.36822 0.736439,-0.552331 0,-0.368219 0,-0.552328 -0.368219,-0.736439 -0.36822,-0.184109 -0.55233,-0.184109 -0.736439,-0.184109 -0.184111,0.184109 -0.184111,0 -0.184111,0 0,0 0,-0.55233 -0.18411,-0.736441 -0.552329,0.736441 -0.920548,0.92055 -0.73644,1.104661 m -2.025208,24.486617 z m 24.302508,-20.98853 c 5.155077,0 7.364395,1.47288 10.310155,4.418639 L 39.505143,46.468571 43.003232,53.096527 73.74959,35.974305 C 69.883282,27.68936 63.255321,22.166062 53.681606,21.613733 c -0.55233,-1.10466 -1.65699,-1.65699 -2.945759,-1.28877 -0.184109,0 -0.552329,0 -0.736439,0 -0.736439,0 -1.656989,-0.184109 -1.8411,-1.104659 -0.184109,-0.552331 -0.552329,-0.736439 -1.288769,-1.104659 -0.36822,-0.184111 -0.552329,-0.368221 -0.736439,-0.55233 0,-0.36822 0.18411,-0.55233 0.18411,-1.10466 0,-0.552329 -0.36822,-1.104659 -1.10466,-1.104659 -0.73644,0 -1.10466,0.55233 -0.73644,1.288769 0,0.18411 0,0.36822 0.184111,0.55233 0.184108,0.36822 0.184108,0.736439 0.368219,1.28877 0.18411,0.368219 0.18411,0.736439 0.36822,1.288769 -0.36822,0 -0.552331,0.184109 -0.736439,0 -1.104661,-0.184111 -2.02521,-0.184111 -3.129869,0 -1.28877,0 -2.761649,-0.184111 -3.866308,-0.736441 -0.73644,-0.36822 -1.472879,-0.736439 -2.209318,-1.472878 0,-0.184111 0,-0.55233 0,-0.73644 0,-0.18411 -0.36822,-0.36822 -0.552331,-0.55233 -0.184111,0 -0.368219,0.18411 -0.368219,0.36822 -0.184111,0.18411 -0.184111,0.36822 -0.184111,0.55233 -0.736439,0 -1.472878,-0.18411 -2.025208,-0.36822 -0.736441,-0.18411 -1.65699,-0.36822 -2.20932,-0.36822 -1.104659,0 -1.841098,-0.18411 -2.761648,-0.18411 -2.945758,-0.368219 -2.209319,-0.55233 -4.050418,1.28877 l -0.18411,0.184109 c -0.73644,0.736441 -2.209319,0.55233 -2.761648,-0.552329 -0.184111,-0.73644 -0.55233,-1.65699 -0.36822,-2.761649 0,-0.552329 0,-1.10466 -0.368221,-1.656989 -0.184109,-0.18411 -0.184109,-0.55233 -0.36822,-1.10466 -0.368219,-1.104659 -0.552328,-1.104659 -1.656989,-0.55233 -0.184109,0 -0.368218,0.184111 -0.368218,0.184111 -0.184111,-0.184111 -0.36822,-0.184111 -0.36822,-0.36822 -1.288769,-0.736441 -2.209319,-0.736441 -3.313978,0.184109 -0.18411,0.184111 -0.552331,0.55233 -0.73644,1.10466 -0.36822,0.36822 -0.18411,0.73644 0,1.288769 0.184109,0.184111 0.55233,0.368221 0.73644,0.55233 0.368219,0.36822 0.552329,0.736439 0.736439,1.28877 0.36822,1.104659 1.104659,1.656989 2.025209,1.656989 0.184111,0 0.36822,0.18411 0.36822,0.18411 0.18411,2.025209 -0.184109,3.866308 -1.104659,5.339187 -0.368221,0.55233 -0.368221,1.28877 0,1.841099 0.552328,1.10466 1.104659,1.841099 1.288769,3.129868 0,0 0.184109,0 0.36822,0.184111 0.184109,-0.55233 0,-1.104661 0.552329,-1.47288 0.552329,-0.184109 1.104659,-0.36822 1.656989,-0.736439 1.104659,0.18411 1.841099,0.368219 2.945758,0.368219 1.10466,0.184111 1.841099,-0.55233 2.945759,-0.368219 0.184109,1.47288 0.73644,3.129869 0.73644,4.786858 0,0.736439 0.184109,1.656988 0.55233,2.209318 0.184109,0.184111 0.184109,0.368219 0.184109,0.368219 0,0.184111 0.18411,0.552331 -0.36822,0.736441 -0.368219,-0.18411 -0.55233,-0.55233 -1.104659,-1.10466 -0.18411,-0.184109 -0.55233,-0.184109 -1.10466,-0.184109 0.184111,0.36822 0.55233,1.104659 0.36822,1.472878 -0.55233,0.55233 -1.288769,0.36822 -2.025209,0.55233 -1.841099,0.36822 -3.682198,0.552331 -5.523297,1.104659 -0.184109,0 -0.184109,0 -0.368219,0.184111 -0.736439,0.368219 -1.28877,1.104659 -1.104659,1.656989 0,0.73644 0.552328,1.288769 1.288769,1.472879 0.36822,0 0.552329,0 1.104658,0 0.55233,-0.18411 1.10466,-0.36822 1.47288,-0.55233 v 0 0 0 0 c 0.184109,-0.552329 0.55233,-1.104659 1.288769,-1.288769 1.104659,-0.368219 1.841099,-0.736439 3.129868,-0.736439 0,0.184109 0.18411,0.36822 0.18411,0.552329 0,0.55233 0.368221,0.736439 1.10466,1.10466 -0.36822,0.736439 -0.55233,1.472879 -1.10466,2.209318 0.18411,0 0.368221,0.184111 0.368221,0.184111 0.184109,0 0.368219,0 0.368219,0.184109 -0.73644,0.18411 -1.656989,0 -2.209319,0.55233 0.18411,0.736439 1.10466,0 1.288769,0.55233 -0.552329,0.552331 -1.472879,0.736439 -2.209318,1.28877 -1.10466,0.368219 -1.841099,0.736439 -2.945758,1.288769 -0.184111,0 -0.368221,0.18411 -0.184111,0.552329 1.104659,0 2.025209,-0.73644 3.129869,-1.104659 0.36822,0.18411 0.552329,0.368219 1.104659,0.55233 0.73644,0.18411 1.472879,0 1.472879,-0.73644 0,-0.368221 0,-0.552329 0,-1.10466 0.55233,-0.368219 1.10466,-1.104658 1.656989,-1.472879 0.184111,0.18411 0.36822,0.18411 0.36822,0.368221 0.55233,1.656989 1.10466,3.313977 1.65699,4.970966 0.184109,0.73644 0.184109,1.65699 -1.10466,1.841099 -0.184109,0 -0.55233,0.184111 -0.736439,0.184111 -0.184111,-0.36822 -0.184111,-0.73644 -0.36822,-1.28877 0,-0.184109 -0.184111,-0.368219 -0.55233,-0.184109 0,0.368219 0,0.552329 0,1.104659 0,0.736439 -0.36822,1.28877 -1.28877,1.104659 -0.368219,0 -0.552329,-0.184109 -0.736439,-0.36822 -0.36822,1.28877 -0.36822,1.28877 0.36822,2.025209 0.368219,-0.184109 0.736439,-0.552329 1.288769,-0.552329 1.472879,0 2.76165,0.36822 3.682197,1.472878 0.368221,0.36822 0.552331,1.10466 0.368221,1.472881 -0.18411,0.368219 -0.368221,0.552329 -0.552329,0.736439 0,0.184109 0.184108,0.36822 0.184108,0.73644 0.552331,-0.36822 1.288771,-0.552331 1.8411,-1.10466 0.184111,0.18411 0.184111,0.36822 0.36822,0.36822 3.682198,8.653166 12.151254,14.176463 21.90908,14.176463 13.255917,0 22.829631,-9.021385 23.750181,-21.172639 l -8.469055,-1.10466 c -1.65699,8.469056 -5.339191,14.176463 -15.281126,14.176463 -8.653166,0 -14.912903,-6.443847 -14.912903,-15.833453 -0.73644,-7.916726 5.339188,-14.360573 13.992353,-14.360573 M 23.8558,32.844436 c -0.184109,-0.368219 -0.368219,-0.736439 -0.736439,-0.736439 -0.36822,-0.18411 -0.73644,-0.18411 -1.104659,0.184111 -0.184111,0.184109 -0.184111,0.552328 0,0.736439 0.184109,0.36822 0.368219,0.55233 0.736439,0.36822 0.36822,-0.18411 0.92055,-0.36822 1.104659,-0.552331 m 0,0 v 0 0 0 0 m 0,-4.602747 c -0.184109,-0.552329 -0.184109,-1.104659 -0.736439,-1.288768 0,0 -0.184109,0 -0.36822,0 -0.36822,0.368219 -0.18411,0.736439 0,1.472878 0,0 0,0.184111 0.184111,0.184111 0.184109,0 0.368219,0.184108 0.368219,0.184108 0.18411,-0.184108 0.36822,-0.368219 0.552329,-0.552329 m -1.656989,1.656989 c 0,-0.552329 -0.36822,-0.736439 -0.73644,-0.736439 -0.368219,0 -0.552329,0.18411 -0.552329,0.552329 0,0.368221 0.36822,0.552331 0.73644,0.552331 0.184109,0 0.36822,-0.18411 0.552329,-0.368221 M 132.11244,68.00943 h 8.28494 V 37.078965 c 0,-8.469055 -6.99618,-15.465232 -16.38578,-15.465232 -5.15508,0 -10.31016,2.025208 -13.25591,6.443846 -3.12988,-4.418638 -8.28495,-6.443846 -13.255922,-6.443846 -9.205496,0 -16.385782,6.996177 -16.385782,15.465232 V 68.00943 h 8.284947 V 38.920065 c 0,-5.707408 3.313977,-9.573716 8.284945,-9.573716 5.339182,0 8.837272,3.129868 8.837272,10.862485 V 68.00943 h 8.28495 V 40.208834 c 0,-7.916726 3.49809,-10.862485 8.83727,-10.862485 4.97098,0 8.28495,3.682198 8.28495,9.573716 z M 184.95198,45.1798 c 0,9.205497 -6.25974,15.833453 -14.91291,15.833453 -8.65316,0 -14.91289,-6.443847 -14.91289,-15.833453 0,-9.205495 6.25973,-15.649342 14.91289,-15.649342 8.65317,0 14.91291,6.443847 14.91291,15.649342 m 8.83727,0 c 0,-13.992353 -10.86248,-23.750177 -23.75018,-23.750177 -12.51947,0 -23.75017,9.757824 -23.75017,23.750177 0,13.992355 11.04659,23.750179 23.93428,23.750179 12.51947,0.18411 23.56607,-9.573716 23.56607,-23.750179 m 14.54469,-14.728792 h 13.99234 V 22.350173 H 208.33394 V 6.5167195 H 200.049 V 53.280637 c 0,9.021386 4.97095,14.728793 13.44001,14.728793 v 0 -8.100836 c -3.49809,-0.18411 -5.15507,-1.656989 -5.15507,-5.523297 z M 269.27431,49.04611 V 22.534282 h -8.28494 v 26.695936 c 0,6.996178 -5.15507,11.967145 -11.23071,11.967145 -6.07562,0 -11.2307,-4.970967 -11.2307,-11.967145 V 22.534282 h -8.28495 v 26.695936 c 0,11.967145 8.28495,20.067981 19.33154,20.067981 11.04661,0 19.69976,-8.284946 19.69976,-20.252089 m 29.6417,-19.515652 h 1.28877 v -8.100835 h -1.8411 c -5.5233,0 -9.57372,1.656989 -12.33537,6.259737 h -0.18411 v -5.155078 h -8.10082 v 45.659257 h 8.28493 V 46.83679 c 0.18412,-12.335363 4.78686,-17.306332 12.8877,-17.306332 m 4.41864,38.294862 v -2.577539 c -0.18411,0 -0.36823,0 -0.36823,-0.184109 -1.84109,-0.55233 -2.2093,-2.02521 -2.2093,-4.602748 v -18.41099 h -2.76166 v 19.515649 0 c 0.1841,3.866309 2.02521,6.259737 5.33919,6.259737 m 18.96332,-9.389605 c 0,4.418638 -3.31397,7.180285 -7.18028,7.180285 -3.86632,0 -7.1803,-2.945758 -7.1803,-7.180285 0,-4.234528 3.31398,-7.180286 7.1803,-7.180286 3.86631,0 7.18028,2.761648 7.18028,7.180286 m 5.33919,9.389605 v -2.393428 c -2.39343,-0.36822 -2.94576,-1.8411 -2.94576,-4.786858 v -1.841099 c 0,-0.184111 0,-0.184111 0,-0.36822 0,-0.18411 0,-0.18411 0,-0.368221 v -0.736439 0 c -0.55234,-5.155077 -4.78686,-8.653165 -9.75782,-8.653165 -5.15508,0 -9.75783,3.866307 -9.75783,9.757825 0,5.707407 4.60275,9.757824 9.75783,9.757824 3.12986,0 6.07562,-1.472878 7.5485,-3.682197 0.92055,2.209319 2.57753,3.313978 5.15508,3.313978 m 18.41099,-9.389605 c 0,4.418638 -3.31399,7.180285 -7.18029,7.180285 -3.8663,0 -7.18028,-2.945758 -7.18028,-7.180285 0,-4.234528 3.31398,-7.180286 7.18028,-7.180286 3.8663,0 7.18029,2.761648 7.18029,7.180286 m 2.39343,0 c 0,-5.707408 -4.60275,-9.757825 -9.75783,-9.757825 -2.94576,0 -5.5233,1.288769 -7.18029,3.313978 v -9.573715 h -2.39342 v 16.569891 0 c 0.1841,5.523298 4.78685,9.205495 9.75782,9.205495 4.97097,-0.184109 9.57372,-4.050417 9.57372,-9.757824"
   id="path8"
   inkscape:label="path8"
   style="stroke-width:1.84111" />
</g>
</svg>
