<?xml version="1.0" encoding="UTF-8" standalone="no"?>
<svg
   version="1.0"
   width="178.000000pt"
   height="178.000000pt"
   viewBox="0 0 178.000000 178.000000"
   preserveAspectRatio="xMidYMid meet"
   id="svg14"
   sodipodi:docname="logoSSM.svg"
   inkscape:version="1.2.2 (732a01da63, 2022-12-09)"
   xmlns:inkscape="http://www.inkscape.org/namespaces/inkscape"
   xmlns:sodipodi="http://sodipodi.sourceforge.net/DTD/sodipodi-0.dtd"
   xmlns="http://www.w3.org/2000/svg"
   xmlns:svg="http://www.w3.org/2000/svg">
  <defs
     id="defs18" />
  <sodipodi:namedview
     id="namedview16"
     pagecolor="#ffffff"
     bordercolor="#000000"
     borderopacity="0.25"
     inkscape:showpageshadow="2"
     inkscape:pageopacity="0.0"
     inkscape:pagecheckerboard="0"
     inkscape:deskcolor="#d1d1d1"
     inkscape:document-units="pt"
     showgrid="false"
     inkscape:zoom="1.6938202"
     inkscape:cx="53.429519"
     inkscape:cy="154.97512"
     inkscape:window-width="1920"
     inkscape:window-height="991"
     inkscape:window-x="-9"
     inkscape:window-y="-9"
     inkscape:window-maximized="1"
     inkscape:current-layer="g12" />
  <metadata
     id="metadata2">
Created by potrace 1.16, written by Peter Selinger 2001-2019
</metadata>
  <g
     transform="translate(0.000000,178.000000) scale(0.100000,-0.100000)"
     fill="#000000"
     stroke="none"
     id="g12">
    <path
       d="m 1378,1718 c -18,-4 -71,-14 -118,-23 -47,-9 -109,-25 -137,-35 -29,-10 -49.5407,-14.3018 -53,-15 -1.9605,-0.3957 -62.8243,-22.6934 -68.5639,-24.1726 C 985.91217,1613.2604 974,1610 956,1601 c -18,-10 -47,-26 -65,-36 l -34,-17 24,-14 c 13,-7 33,-17 44,-23 37,-17 171,-108 210,-142 178,-157 285,-283 361,-426 15,-29 31,-53 34,-53 4,0 13,12 20,28 8,15 19,33 24,41 5.0216,8.46764 9.141,18.19569 12.4129,25.19569 2,6 19.5871,56.80431 38.5871,112.80431 33,94 49,159 61,243 2,19 6,49 9,65 10,65 8,296 -3,307 -12,12 -261,17 -314,6 z"
       id="path4"
       sodipodi:nodetypes="cscsccccccccsccccccsc" />
    <path
       d="m 81,1681 c -11,-7 -13,-37 -8,-162 4,-85 8,-165 11,-179 16,-85 38,-178 46,-195 19,-39 36.26194,-106.8475 41.26194,-110.8475 C 174.13097,1028.5871 185,1005 196,980 c 22,-45 22,-45 33,-20 6,14 19,37 29,51 9,14 30,46 46,70 16,24 36,51 45,61 9,9 27,31 41,49 32,43 157,168 194,194 16,11 51,38 80,61 50.11021,39.6032 121.50642,75.4826 138.34762,88.4761 0.53366,0.4118 -0.42607,-3.7376 -1.16577,-7.3357 -0.58585,-2.8497 -0.81488,-5.2077 -1.59325,-5.7059 C 793.69268,1517.6612 703,1455 683,1447 c -4,-1 -18,-12 -32,-24 -14,-12 -48,-40 -74,-62 -12.84436,-10.9415 -32.92471,-27.2005 -52.41339,-45.6696 C 503.10831,1294.9758 482.15564,1272.2042 468,1257 401,1186 312,1069 262,987 l -41,-68 22.65177,-45.56549 c 13,-25 25.13097,-44.38983 34.13097,-56.73805 C 285.43451,804.13097 323,753 357,704 438,587 551,474 675,383 c 55,-40 105,-77 110,-81 6,-4 81.29492,-46.98955 88,-49 7.38371,-2.21393 19,-7.04415 28,-7 38.89303,-7.03731 352,230 454,359 57,73 141.186,203.59462 148.3267,213.23883 3.718,5.02157 7.587,11.82589 13.0431,18.54391 C 1527.8043,856.26348 1528,846 1515,877 c -24,57 -106,183 -168,258 -32,38 -64,77 -70,85 -7,8 -24,24 -38,35 -13,11 -31.9022,30.5108 -41.9022,44.5108 -11.7396,9.6733 -14.9688,13.7489 -18.3698,16.5108 C 1175.0006,1319.0485 1154,1331 1123,1358 c -56,47 -183,131 -251,166 -25,13 -37,14 -54,5 -18,-10 -20,-9 -15,5 5,11 -4,21 -31,35 -62,31 -186,69 -300,92 -114,22 -367,35 -391,20 z m 284,-47 c 84,-11 193,-36 272,-62 48.93222,-15.5693 66.61976,-25.0684 74.1719,-28.6726 2.47071,-1.1791 4.73257,-0.1446 2.40515,-2.9892 -7.76118,-6.0431 -20.22882,-16.5986 -28.40294,-19.4692 -8.78274,-6.7843 -15.69491,-8.3051 -27,-16.7396 C 646.86903,1493.9122 626,1477 604,1460 464,1349 399,1284 311,1165 c -25,-33 -50.23883,-65.6086 -57.84746,-73.7827 -4.30354,-8.3698 -10.8906,-14.6087 -12.60863,-18.9785 C 236.12943,1063.869 222,1034 217,1040 c -13,14 -50,133 -72,231 -31,137 -45,357 -24,370 14,8 164,4 244,-7 z"
       id="path6"
       sodipodi:nodetypes="ccccccccsccccssscscsccccccccsccsccccccscccccccccsccccccccccc" />
    <path
       d="M 213,889 C 157,817 77,585 63,450 60,420 55,388 51,380 41,358 43,73 53,63 c 5,-4 72,-7 150,-7 142,1 317.04622,33.741139 380,50 21,5.23259 21.96766,5.74192 30.5653,7.72326 5.68202,1.30943 28.09464,7.8431 32.79975,9.53482 7.74876,2.78607 10.84888,3.69777 26.63495,9.74192 19,3 70,23 115,45 44,22 73.5908,38.69185 84.6163,43.13246 7.01274,6.68595 16.14812,4.35494 10.7046,11.52208 C 879.03141,238.30224 868,242 853,249 803,272 634,388 587,433 c -26,24 -47,41 -47,38 0,-3 -30,26 -66,64 -79,84 -173.09168,224.23669 -184,241 -4.69646,7.21726 -57.82743,80.74114 -66.82743,112.74114 C 218.17257,908.74114 222,900 213,889 Z"
       id="path8"
       sodipodi:nodetypes="ccccccsscccsccscscc" />
    <path
       d="m 1499,782 c -46,-82 -149,-212 -248,-308 -52,-52 -98,-94 -102,-94 -5,0 -20,-11 -35,-25 C 1081,324 986.06281,264.21393 969,258 958.04415,249.18843 931.50367,239.3631 927.2699,234.91853 923.44541,230.90362 961,214 988,204 c 26,-10 46.9558,-20.23259 54.2767,-22.46517 C 1049.3209,179.4092 1062,175 1078,169 c 15,-6 34,-12 43,-14 8,-2 40,-11 70,-20 30,-9 74,-19 99,-21 25,-3 70,-9 100,-14 30,-4 107,-7 170,-6 l 115,1 3,85 c 6,149 -29,363 -83,510 -35,97 -54,140 -63,140 -4,0 -19,-22 -33,-48 z m 65,-135 c 30,-98 41.2139,-182.33955 44,-194 6.1884,-23.66045 20,-83 28,-218 l 6,-100 -38,-3 c -68,-4 -279,17 -363,37 -82,20 -211,60 -211,66 0,1 39,32 88,68 48,36 103,81 123,99 20,18 45,40 55,49 11,9 28,27 39,40 95,114 124,151 154,197 18,28 37,50 41,47 5,-3 20,-42 34,-88 z"
       id="path10"
       sodipodi:nodetypes="ccsccsccccsccccccscccccccscsccccc" />
  </g>
</svg>
